<?xml version="1.0" encoding="UTF-8"?>
<svg version="1.1" xmlns="http://www.w3.org/2000/svg" width="225" height="225">
<path d="M0 0 C0.92941406 -0.01611328 1.85882813 -0.03222656 2.81640625 -0.04882812 C17.13983938 -0.05881657 27.67396285 5.72955894 37.8125 15.625 C42.125 20.00456843 42.125 20.00456843 42.125 22.3125 C42.82625 22.498125 43.5275 22.68375 44.25 22.875 C50.9818123 26.24090615 53.98691868 32.22190934 56.33203125 39.1328125 C57.54853687 44.01082026 57.9691991 48.92859483 58.33984375 53.9296875 C59.50517411 58.95046409 62.33826298 61.05907235 66.44140625 63.9375 C67.18261719 64.39125 67.92382812 64.845 68.6875 65.3125 C72.68623754 67.90735464 76.23415687 70.42180496 77.69921875 75.17578125 C79.34412535 83.430496 77.83966191 90.82383653 74.125 98.3125 C72.74609375 100.05859375 72.74609375 100.05859375 71.375 101.5 C69.01049738 104.45562827 68.37338744 106.09836068 68.65234375 109.875 C70.24119002 118.0687196 73.40757165 125.31399045 77.69921875 132.39453125 C81.5811505 138.79910635 84.47535761 143.91813957 83.8203125 151.68359375 C82.36395414 157.18993743 79.15824525 160.61812896 74.875 164.1875 C72.18390429 165.28840279 69.98552864 165.64780798 67.125 166.0625 C63.513985 166.65385467 63.513985 166.65385467 60.68359375 168.78125 C59.92613112 169.98474464 59.18949184 171.20156058 58.47265625 172.4296875 C55.37508421 176.75730988 50.09920332 179.65443223 45.125 181.3125 C36.07506995 182.25747262 28.68516647 179.46052085 20.94921875 174.984375 C18.55926546 174.10413525 17.45940212 174.33082989 15.125 175.3125 C13.64524854 176.79536926 13.64524854 176.79536926 12.375 178.625 C8.37054366 183.46620841 4.4993543 185.78309926 -1.73828125 186.76171875 C-9.49434028 187.2052037 -14.0510843 185.3237763 -19.875 180.3125 C-20.47828125 179.74015625 -21.0815625 179.1678125 -21.703125 178.578125 C-24.81438659 175.63503971 -26.35996961 174.41381745 -30.6875 173.5625 C-35.34902045 173.89936769 -38.86337189 176.37071241 -42.67578125 178.90234375 C-46.75440985 181.51759228 -50.11326768 181.85011494 -54.875 181.3125 C-61.21575068 178.31855364 -65.08420062 174.7080819 -67.875 168.3125 C-71.78398103 154.26129793 -68.88767462 137.30762048 -65.875 123.3125 C-65.73094727 122.64202637 -65.58689453 121.97155273 -65.43847656 121.28076172 C-64.63714109 117.61115406 -63.78293534 113.95711988 -62.875 110.3125 C-63.4421875 110.09464844 -64.009375 109.87679687 -64.59375 109.65234375 C-71.83479786 105.39946804 -76.86142821 95.59436222 -79.2890625 87.84375 C-80.79546748 81.3360805 -80.19001567 76.25666603 -76.875 70.3125 C-74.12353348 67.5903044 -72.54997477 66.40998718 -68.68359375 65.8515625 C-67.01490234 65.89410156 -67.01490234 65.89410156 -65.3125 65.9375 C-64.19746094 65.95039062 -63.08242188 65.96328125 -61.93359375 65.9765625 C-59.04868365 66.29342363 -57.32397401 66.81557212 -54.875 68.3125 C-54.72804688 66.641875 -54.72804688 66.641875 -54.578125 64.9375 C-52.57643281 43.84525045 -48.13774773 23.17382349 -31.078125 8.9140625 C-21.47394027 1.93229701 -11.63039426 -0.03999448 0 0 Z M-32.6875 21.25 C-37.04254698 26.56720852 -40.57917803 31.09467517 -39.875 38.3125 C-35.81647165 38.88500157 -35.81647165 38.88500157 -31.875 38.3125 C-29.91855231 36.41134322 -28.5558311 34.46342523 -27.1015625 32.16015625 C-25.875 30.3125 -25.875 30.3125 -23.875 29.3125 C-20.4375 28.9375 -20.4375 28.9375 -16.875 29.3125 C-14.9375 31.8125 -14.9375 31.8125 -13.875 34.3125 C-11.89963255 33.96463292 -11.89963255 33.96463292 -9.875 33.3125 C-9.545 32.6525 -9.215 31.9925 -8.875 31.3125 C-6.04927942 32.34543147 -5.04521695 32.99202982 -3.609375 35.6953125 C-3.12210938 37.05269531 -3.12210938 37.05269531 -2.625 38.4375 C-2.28984375 39.34757812 -1.9546875 40.25765625 -1.609375 41.1953125 C-1.36703125 41.89398438 -1.1246875 42.59265625 -0.875 43.3125 C0.35495949 42.3968974 1.58392386 41.47995797 2.8125 40.5625 C3.54339844 40.01722656 4.27429688 39.47195312 5.02734375 38.91015625 C6.67889538 37.65227055 8.2860856 36.33613257 9.875 35 C13.34605263 32.39671053 13.34605263 32.39671053 16.125 32.3125 C20.28195915 33.69815305 22.36394673 35.2656941 24.5 39 C25.03625 40.093125 25.5725 41.18625 26.125 42.3125 C26.785 41.9825 27.445 41.6525 28.125 41.3125 C26.98371319 30.7513385 25.34096496 19.82163957 17.3125 12.1875 C2.22378082 0.63915069 -20.97781701 8.45104418 -32.6875 21.25 Z M-70.58984375 74.5234375 C-73.14154668 78.07565617 -72.48690232 82.15499547 -71.875 86.3125 C-70.24901214 91.44473329 -68.76118513 96.03209696 -64.19921875 99.12890625 C-63.43222656 99.51949219 -62.66523437 99.91007812 -61.875 100.3125 C-61.22464629 97.79275747 -60.57962507 95.27184065 -59.9375 92.75 C-59.66389648 91.69329102 -59.66389648 91.69329102 -59.38476562 90.61523438 C-58.2634486 86.19112902 -57.44043671 81.84194562 -56.875 77.3125 C-60.29251155 74.03738476 -66.29876992 71.49329425 -70.58984375 74.5234375 Z M44.375 79.6875 C41.40242065 83.55185315 40.79793595 87.74342727 40.4375 92.5 C40.35113281 93.54542969 40.26476562 94.59085938 40.17578125 95.66796875 C39.92069696 98.29081319 39.92069696 98.29081319 41.125 100.3125 C47.09540388 99.24873093 51.33241551 94.83157557 54.75390625 90.0234375 C57.12897231 85.97702866 58.62128062 83.10470978 58.125 78.3125 C57.465 77.3225 56.805 76.3325 56.125 75.3125 C51.24901098 75.3125 48.20072335 76.68157451 44.375 79.6875 Z M-59.875 142.3125 C-62.06654143 148.77178001 -63.48086993 155.88177787 -60.5 162.25 C-58.89270773 164.37333743 -58.89270773 164.37333743 -56.875 166.3125 C-54.895 166.3125 -52.915 166.3125 -50.875 166.3125 C-50.545 158.0625 -50.215 149.8125 -49.875 141.3125 C-56.2952491 140.94356761 -56.2952491 140.94356761 -59.875 142.3125 Z M32.125 151.3125 C29.80016215 153.19625675 29.80016215 153.19625675 29.9375 156.3125 C29.92420391 159.23636603 29.92420391 159.23636603 31.125 161.3125 C31.785 161.3125 32.445 161.3125 33.125 161.3125 C33.33125 161.951875 33.5375 162.59125 33.75 163.25 C35.02038209 165.66175077 35.02038209 165.66175077 38.25 166.0625 C39.19875 166.145 40.1475 166.2275 41.125 166.3125 C41.455 165.6525 41.785 164.9925 42.125 164.3125 C41.05142331 161.40568598 41.05142331 161.40568598 39.4375 158.25 C38.91800781 157.16589844 38.39851563 156.08179688 37.86328125 154.96484375 C36.39092169 152.21886779 36.39092169 152.21886779 34.04296875 151.31640625 C33.41003906 151.31511719 32.77710938 151.31382812 32.125 151.3125 Z " fill="#FAFAFA" transform="translate(115.875,17.6875)"/>
<path d="M0 0 C0.92941406 -0.01611328 1.85882813 -0.03222656 2.81640625 -0.04882812 C17.13983938 -0.05881657 27.67396285 5.72955894 37.8125 15.625 C42.125 20.00456843 42.125 20.00456843 42.125 22.3125 C42.82625 22.498125 43.5275 22.68375 44.25 22.875 C50.9818123 26.24090615 53.98691868 32.22190934 56.33203125 39.1328125 C57.54853687 44.01082026 57.9691991 48.92859483 58.33984375 53.9296875 C59.50517411 58.95046409 62.33826298 61.05907235 66.44140625 63.9375 C67.18261719 64.39125 67.92382812 64.845 68.6875 65.3125 C72.68623754 67.90735464 76.23415687 70.42180496 77.69921875 75.17578125 C79.34412535 83.430496 77.83966191 90.82383653 74.125 98.3125 C72.74609375 100.05859375 72.74609375 100.05859375 71.375 101.5 C69.01049738 104.45562827 68.37338744 106.09836068 68.65234375 109.875 C70.24119002 118.0687196 73.40757165 125.31399045 77.69921875 132.39453125 C81.5811505 138.79910635 84.47535761 143.91813957 83.8203125 151.68359375 C82.36395414 157.18993743 79.15824525 160.61812896 74.875 164.1875 C72.18390429 165.28840279 69.98552864 165.64780798 67.125 166.0625 C63.513985 166.65385467 63.513985 166.65385467 60.68359375 168.78125 C59.92613112 169.98474464 59.18949184 171.20156058 58.47265625 172.4296875 C55.37508421 176.75730988 50.09920332 179.65443223 45.125 181.3125 C36.07506995 182.25747262 28.68516647 179.46052085 20.94921875 174.984375 C18.55926546 174.10413525 17.45940212 174.33082989 15.125 175.3125 C13.64524854 176.79536926 13.64524854 176.79536926 12.375 178.625 C8.37054366 183.46620841 4.4993543 185.78309926 -1.73828125 186.76171875 C-9.49434028 187.2052037 -14.0510843 185.3237763 -19.875 180.3125 C-20.47828125 179.74015625 -21.0815625 179.1678125 -21.703125 178.578125 C-24.81438659 175.63503971 -26.35996961 174.41381745 -30.6875 173.5625 C-35.34902045 173.89936769 -38.86337189 176.37071241 -42.67578125 178.90234375 C-46.75440985 181.51759228 -50.11326768 181.85011494 -54.875 181.3125 C-61.21575068 178.31855364 -65.08420062 174.7080819 -67.875 168.3125 C-71.78398103 154.26129793 -68.88767462 137.30762048 -65.875 123.3125 C-65.73094727 122.64202637 -65.58689453 121.97155273 -65.43847656 121.28076172 C-64.63714109 117.61115406 -63.78293534 113.95711988 -62.875 110.3125 C-63.4421875 110.09464844 -64.009375 109.87679687 -64.59375 109.65234375 C-71.83479786 105.39946804 -76.86142821 95.59436222 -79.2890625 87.84375 C-80.79546748 81.3360805 -80.19001567 76.25666603 -76.875 70.3125 C-74.12353348 67.5903044 -72.54997477 66.40998718 -68.68359375 65.8515625 C-67.01490234 65.89410156 -67.01490234 65.89410156 -65.3125 65.9375 C-64.19746094 65.95039062 -63.08242188 65.96328125 -61.93359375 65.9765625 C-59.04868365 66.29342363 -57.32397401 66.81557212 -54.875 68.3125 C-54.72804688 66.641875 -54.72804688 66.641875 -54.578125 64.9375 C-52.57643281 43.84525045 -48.13774773 23.17382349 -31.078125 8.9140625 C-21.47394027 1.93229701 -11.63039426 -0.03999448 0 0 Z M-32.75 21.375 C-37.13072324 26.28134862 -37.13072324 26.28134862 -38.875 32.3125 C-39.535 32.3125 -40.195 32.3125 -40.875 32.3125 C-43.88011118 41.20799783 -45.85085325 49.89249505 -47.125 59.1875 C-47.29773438 60.35796875 -47.47046875 61.5284375 -47.6484375 62.734375 C-48.44440516 68.30614863 -49.10476457 73.68326807 -48.875 79.3125 C-49.37128906 79.04695313 -49.86757812 78.78140625 -50.37890625 78.5078125 C-56.10668587 75.52980184 -62.24578142 72.3917752 -68.875 73.3125 C-70.85694072 74.85938056 -71.75146186 75.8568412 -72.4140625 78.30078125 C-72.72313888 86.65989251 -69.40832316 93.50433236 -64.875 100.3125 C-62.397642 102.5727755 -62.397642 102.5727755 -59.8125 104.4375 C-57.51171875 106.27734375 -57.51171875 106.27734375 -55.875 108.3125 C-55.50956267 112.58006478 -56.66674149 116.2438744 -57.875 120.3125 C-58.40758465 122.55974742 -58.92848814 124.80979623 -59.4375 127.0625 C-59.68628906 128.06796875 -59.93507813 129.0734375 -60.19140625 130.109375 C-61.64215227 136.90715636 -62.07853912 143.57152201 -62.125 150.5 C-62.145625 151.28052734 -62.16625 152.06105469 -62.1875 152.86523438 C-62.2193508 157.55924562 -61.81317827 160.44377649 -58.875 164.3125 C-58.441875 164.910625 -58.00875 165.50875 -57.5625 166.125 C-54.89186918 168.0043328 -53.06376492 167.75017362 -49.875 167.3125 C-46.72751385 165.49196646 -46.72751385 165.49196646 -43.875 163.3125 C-38.72102907 160.09126817 -32.72745348 160.86457069 -26.875 161.3125 C-23.37500211 162.41053855 -21.35566101 163.89088213 -18.6171875 166.29296875 C-13.07205566 171.29566105 -13.07205566 171.29566105 -6.0625 173.125 C-2.63269427 172.79835183 -1.82674695 172.27368777 1 170 C1.70125 169.113125 2.4025 168.22625 3.125 167.3125 C3.723125 166.755625 4.32125 166.19875 4.9375 165.625 C6.34863777 164.36031729 6.34863777 164.36031729 6.125 162.3125 C11.95119967 159.72307793 17.8861877 159.31371102 24.125 160.3125 C27.92452319 161.79926994 31.38914706 163.80963499 34.8984375 165.87890625 C38.6166523 167.530946 40.27842586 167.48556871 44.125 166.3125 C49.16176336 162.56421099 50.56155924 158.14680331 52.125 152.3125 C53.10082031 152.33570313 54.07664062 152.35890625 55.08203125 152.3828125 C56.35433594 152.40085938 57.62664062 152.41890625 58.9375 152.4375 C60.20207031 152.46070313 61.46664062 152.48390625 62.76953125 152.5078125 C66.2588024 152.58831918 66.2588024 152.58831918 69.125 150.3125 C68.52575994 145.79251782 66.63522953 142.26327218 64.5 138.3125 C61.10714369 131.78837164 58.46105401 125.15788547 56.125 118.1875 C55.82255371 117.29933594 55.52010742 116.41117187 55.20849609 115.49609375 C52.40568127 106.86598554 52.40568127 106.86598554 53.125 102.3125 C54.76953125 99.75 54.76953125 99.75 56.9375 97.3125 C62.24547885 90.99929329 64.44720165 86.85362148 64.5234375 78.58203125 C64.03830653 75.81868721 63.40535994 74.92064499 61.125 73.3125 C55.00437872 72.88408943 55.00437872 72.88408943 49.125 74.3125 C47.77176954 75.62563475 46.43647976 76.95766554 45.125 78.3125 C45.14071045 77.66925781 45.1564209 77.02601562 45.17260742 76.36328125 C45.84261227 46.74319044 45.84261227 46.74319044 32.8125 20.875 C23.79043115 11.58494891 12.56487005 7.33771639 -0.375 7 C-13.12007216 7.14108936 -24.2262861 11.9456415 -32.75 21.375 Z " fill="#090809" transform="translate(115.875,17.6875)"/>
<path d="M0 0 C9.90539921 2.45878704 18.37306418 8.4037482 24 17 C30.92388155 29.86145519 32.15363727 43.87257186 32.875 58.1875 C32.9673291 59.81884888 32.9673291 59.81884888 33.06152344 61.4831543 C33.10051758 62.51351807 33.13951172 63.54388184 33.1796875 64.60546875 C33.21819824 65.52481201 33.25670898 66.44415527 33.29638672 67.39135742 C32.93532548 70.56923165 31.7308609 72.34098454 30 75 C28.26985245 80.55468425 27.79285482 85.19993509 28 91 C35.60786697 87.19606651 40.84672756 82.05836291 44 74 C44.29685356 70.80882425 44.0216276 69.06488281 43 66 C39.04 66.99 39.04 66.99 35 68 C35.495 66.515 35.495 66.515 36 65 C39.70289737 63.37072516 44.05805927 63.74971805 48 64 C50.17009555 65.56068516 50.88606225 66.51863507 51.50390625 69.12890625 C51.6943274 77.03773139 48.8714913 82.88409637 43.453125 88.64453125 C42.99421875 89.11246094 42.5353125 89.58039063 42.0625 90.0625 C39.44669474 93.78804083 39.94662464 95.25193054 40.5480957 99.56762695 C41.25032462 103.34737124 42.31896788 106.92865441 43.5625 110.5625 C43.81990967 111.32973389 44.07731934 112.09696777 44.3425293 112.88745117 C46.51654043 119.1214937 49.25130545 124.97193897 52.37133789 130.78540039 C54.18413311 134.18299714 55.49607438 137.16578333 56 141 C52.2632157 143.49118953 50.25548181 143.2065226 45.8125 143.125 C44.54019531 143.10695312 43.26789063 143.08890625 41.95703125 143.0703125 C40.98121094 143.04710937 40.00539062 143.02390625 39 143 C38.75765625 143.67546875 38.5153125 144.3509375 38.265625 145.046875 C34.72008206 154.4834739 34.72008206 154.4834739 31 157 C27.9375 157.875 27.9375 157.875 25 158 C23.515 157.01 23.515 157.01 22 156 C23.98 156 25.96 156 28 156 C25.97732685 148.3163491 25.97732685 148.3163491 23.5625 140.75 C22.22614021 136.80422188 21.05572256 132.82567652 19.9375 128.8125 C19.61652344 127.66394531 19.29554688 126.51539063 18.96484375 125.33203125 C16.41076351 114.67662954 15.71966547 104.02550212 15.84967041 93.10623932 C15.87583426 90.88220927 15.88838674 88.65842541 15.89794922 86.43426514 C15.92431002 80.91246677 15.97262195 75.39090662 16.02075195 69.8692627 C16.06711982 64.43891562 16.10409361 59.00863317 16.125 53.578125 C16.12804138 52.83605301 16.13108276 52.09398102 16.13421631 51.329422 C16.16328943 40.44970389 15.74418867 29.7571279 14 19 C13.34 19 12.68 19 12 19 C11.72027344 18.20335938 11.44054687 17.40671875 11.15234375 16.5859375 C8.46822506 9.49157878 6.14341351 5.45698627 0 1 C0 0.67 0 0.34 0 0 Z " fill="#C9C7CA" transform="translate(129,27)"/>
<path d="M0 0 C5.28186514 1.39814077 8.09198917 4.56988984 11 9 C14.65257687 16.24566552 15.62280545 23.62883968 16.21484375 31.6171875 C17.38017411 36.63796409 20.21326298 38.74657235 24.31640625 41.625 C25.05761719 42.07875 25.79882812 42.5325 26.5625 43 C30.56123754 45.59485464 34.10915687 48.10930496 35.57421875 52.86328125 C37.21912535 61.117996 35.71466191 68.51133653 32 76 C30.62109375 77.74609375 30.62109375 77.74609375 29.25 79.1875 C26.88549738 82.14312827 26.24838744 83.78586068 26.52734375 87.5625 C28.11619002 95.7562196 31.28257165 103.00149045 35.57421875 110.08203125 C39.4561505 116.48660635 42.35035761 121.60563957 41.6953125 129.37109375 C40.23895414 134.87743743 37.03324525 138.30562896 32.75 141.875 C30.05890429 142.97590279 27.86052864 143.33530798 25 143.75 C21.388985 144.34135467 21.388985 144.34135467 18.55859375 146.46875 C17.80113112 147.67224464 17.06449184 148.88906058 16.34765625 150.1171875 C13.25008421 154.44480988 7.97420332 157.34193223 3 159 C-6.04993005 159.94497262 -13.43983353 157.14802085 -21.17578125 152.671875 C-23.56573454 151.79163525 -24.66559788 152.01832989 -27 153 C-28.47975146 154.48286926 -28.47975146 154.48286926 -29.75 156.3125 C-33.75445634 161.15370841 -37.6256457 163.47059926 -43.86328125 164.44921875 C-51.61934028 164.8927037 -56.1760843 163.0112763 -62 158 C-62.60328125 157.42765625 -63.2065625 156.8553125 -63.828125 156.265625 C-66.93938659 153.32253971 -68.48496961 152.10131745 -72.8125 151.25 C-77.47402045 151.58686769 -80.98837189 154.05821241 -84.80078125 156.58984375 C-88.87940985 159.20509228 -92.23826768 159.53761494 -97 159 C-103.29452707 156.02787929 -107.31764881 152.41431805 -110 146 C-110.25 143.0625 -110.25 143.0625 -110 141 C-109.1646875 142.11375 -109.1646875 142.11375 -108.3125 143.25 C-104.25135261 148.27773759 -104.25135261 148.27773759 -98.328125 150.45703125 C-91.27974125 150.84165118 -87.74868488 149.54090141 -82.20703125 145.3671875 C-78.95069798 143.3499899 -76.33218408 143.05008075 -72.546875 143.2734375 C-67.45062546 144.72727556 -63.88698159 148.55367453 -60 152 C-55.85874001 155.09531547 -52.15647925 156.64388518 -46.96875 156.3046875 C-39.58272161 155.16161168 -36.3661239 151.60852914 -31.796875 145.9609375 C-29.37975762 143.3231268 -27.42938055 143.06134008 -23.9375 142.5625 C-19.10196946 143.09978117 -16.32691952 144.92868196 -12.33203125 147.58984375 C-7.85056085 150.29974461 -3.16158754 150.53808055 2 150 C7.21062873 148.19632082 9.33207981 145.7641432 12 141 C12.68322481 139.34005239 13.35295125 137.67438053 14 136 C14.88042969 135.98582031 15.76085937 135.97164062 16.66796875 135.95703125 C23.8515477 135.73760931 23.8515477 135.73760931 30.3125 132.9375 C32.43284114 129.2465358 32.55911251 126.13135635 32 122 C30.54627166 118.81678774 30.54627166 118.81678774 28.4375 115.8125 C24.6912258 109.82521132 22.22093506 103.69532083 20 97 C19.69763428 96.10385986 19.39526855 95.20771973 19.08374023 94.28442383 C16.34035934 85.73937475 16.34035934 85.73937475 17 81 C18.171875 79.19921875 18.171875 79.19921875 19.75 77.6875 C25.87516454 71.03980957 27.44542625 64.74224332 27.43359375 55.796875 C26.78714909 51.62701574 25.08322496 48.95192497 21.9375 46.1875 C18.87757721 44.95050994 17.07316374 44.87559602 13.81640625 44.92578125 C12.9147876 44.93649658 12.01316895 44.94721191 11.08422852 44.95825195 C10.0525354 44.97891724 10.0525354 44.97891724 9 45 C8.92483154 44.13217896 8.92483154 44.13217896 8.84814453 43.24682617 C7.42159255 23.13100854 7.42159255 23.13100854 1.0234375 4.21484375 C0 2 0 2 0 0 Z " fill="#EBEBEB" transform="translate(158,40)"/>
<path d="M0 0 C0.92941406 -0.01611328 1.85882813 -0.03222656 2.81640625 -0.04882812 C17.17512362 -0.05884118 27.74304662 5.72315362 37.8125 15.75 C39.26039268 17.26094244 40.70185767 18.77822291 42.125 20.3125 C41.795 20.9725 41.465 21.6325 41.125 22.3125 C39.805 21.3225 38.485 20.3325 37.125 19.3125 C36.465 19.6425 35.805 19.9725 35.125 20.3125 C35.125 19.6525 35.125 18.9925 35.125 18.3125 C34.54492188 18.21453125 33.96484375 18.1165625 33.3671875 18.015625 C27.99800267 16.98786025 24.69109797 15.3876272 20.125 12.3125 C6.47954108 7.27825302 -6.2687986 6.67813711 -19.875 12.3125 C-28.80377118 16.9506491 -34.2293459 23.55722882 -38.875 32.3125 C-39.535 32.3125 -40.195 32.3125 -40.875 32.3125 C-42.35565653 38.81020254 -43.67962325 45.31899685 -44.875 51.875 C-45.04870117 52.82648926 -45.22240234 53.77797852 -45.40136719 54.75830078 C-46.86042979 62.91454286 -47.97818308 71.07594465 -48.875 79.3125 C-51.96057415 78.76582247 -54.29856756 78.12069582 -57.1875 76.8125 C-61.33279083 75.12628 -64.42227556 74.53890972 -68.875 74.3125 C-71.22762492 76.66512492 -71.27158378 77.32980987 -71.4375 80.5625 C-71.26576744 87.96846671 -67.89738769 94.27165784 -63.875 100.3125 C-61.397642 102.5727755 -61.397642 102.5727755 -58.8125 104.4375 C-56.51171875 106.27734375 -56.51171875 106.27734375 -54.875 108.3125 C-54.50956267 112.58006478 -55.66674149 116.2438744 -56.875 120.3125 C-57.40758465 122.55974742 -57.92848814 124.80979623 -58.4375 127.0625 C-58.68628906 128.06796875 -58.93507813 129.0734375 -59.19140625 130.109375 C-60.64215227 136.90715636 -61.07853912 143.57152201 -61.125 150.5 C-61.145625 151.28052734 -61.16625 152.06105469 -61.1875 152.86523438 C-61.21944959 157.57380527 -60.80095496 160.42779766 -57.875 164.3125 C-57.215 165.3025 -56.555 166.2925 -55.875 167.3125 C-56.514375 167.580625 -57.15375 167.84875 -57.8125 168.125 C-60.20631686 169.19917752 -60.20631686 169.19917752 -60.875 172.3125 C-61.88394372 171.38463211 -62.88190907 170.44481567 -63.875 169.5 C-64.7103125 168.71689453 -64.7103125 168.71689453 -65.5625 167.91796875 C-66.875 166.3125 -66.875 166.3125 -66.875 163.3125 C-67.535 163.3125 -68.195 163.3125 -68.875 163.3125 C-69.25086762 149.62320859 -68.76025247 136.71569185 -65.875 123.3125 C-65.73094727 122.64202637 -65.58689453 121.97155273 -65.43847656 121.28076172 C-64.63714109 117.61115406 -63.78293534 113.95711988 -62.875 110.3125 C-63.4421875 110.09464844 -64.009375 109.87679687 -64.59375 109.65234375 C-71.83479786 105.39946804 -76.86142821 95.59436222 -79.2890625 87.84375 C-80.79546748 81.3360805 -80.19001567 76.25666603 -76.875 70.3125 C-74.12353348 67.5903044 -72.54997477 66.40998718 -68.68359375 65.8515625 C-67.01490234 65.89410156 -67.01490234 65.89410156 -65.3125 65.9375 C-64.19746094 65.95039062 -63.08242188 65.96328125 -61.93359375 65.9765625 C-59.04868365 66.29342363 -57.32397401 66.81557212 -54.875 68.3125 C-54.72804688 66.641875 -54.72804688 66.641875 -54.578125 64.9375 C-52.57643281 43.84525045 -48.13774773 23.17382349 -31.078125 8.9140625 C-21.47394027 1.93229701 -11.63039426 -0.03999448 0 0 Z M32.125 14.3125 C32.455 15.3025 32.785 16.2925 33.125 17.3125 C33.125 16.3225 33.125 15.3325 33.125 14.3125 C32.795 14.3125 32.465 14.3125 32.125 14.3125 Z " fill="#1E1C1C" transform="translate(115.875,17.6875)"/>
<path d="M0 0 C0.99 0.33 1.98 0.66 3 1 C4.10327148 3.34155273 4.10327148 3.34155273 5.12109375 6.43359375 C5.49943359 7.55830078 5.87777344 8.68300781 6.26757812 9.84179688 C6.65365234 11.02837891 7.03972656 12.21496094 7.4375 13.4375 C8.2047068 15.74947056 8.97420878 18.06068085 9.74609375 20.37109375 C10.11976074 21.49241699 10.49342773 22.61374023 10.87841797 23.76904297 C12.18634378 27.53680314 13.64547108 31.22149377 15.18774414 34.89868164 C15.96778796 36.91666696 16.52461326 38.89164639 17 41 C16.05898437 40.97679687 15.11796875 40.95359375 14.1484375 40.9296875 C12.90320313 40.91164062 11.65796875 40.89359375 10.375 40.875 C9.14523438 40.85179687 7.91546875 40.82859375 6.6484375 40.8046875 C3.02922218 40.99843564 0.32628561 41.58869741 -3 43 C-4.12516085 44.83284443 -4.12516085 44.83284443 -5 47 C-9.34782609 51.67391304 -9.34782609 51.67391304 -12 53 C-17.78896383 35.04074943 -17.78896383 35.04074943 -17 26 C-14.50968466 22.40287784 -13.09859798 21.36619933 -9 20 C-6.36634013 24.9221313 -4.35524176 29.57903298 -3 35 C-1.35 35.33 0.3 35.66 2 36 C1.56471664 31.38599639 0.82255277 27.19506761 -0.5 22.75 C-4.62179895 8.09924929 -4.62179895 8.09924929 -1.5078125 2.1484375 C-0.76144531 1.08496094 -0.76144531 1.08496094 0 0 Z " fill="#C9C8CB" transform="translate(125,137)"/>
<path d="M0 0 C2.74084113 2.48011146 3.00539173 4.04672833 3.43359375 7.7578125 C3.45692777 9.21335523 3.45721534 10.66940376 3.4375 12.125 C3.42831543 13.26134888 3.42831543 13.26134888 3.41894531 14.4206543 C3.21418092 21.79611004 1.54799906 27.63006576 -2.9375 33.5625 C-5.41130041 35.28666392 -6.9765091 35.92441273 -10 36 C-12.90478424 34.5891048 -13.83581479 33.33657968 -15.25 30.4375 C-17.23865995 21.32280858 -16.0035698 12.46600146 -12 4 C-8.04193727 0.15064013 -5.5476054 -0.82186747 0 0 Z " fill="#171413" transform="translate(99,46)"/>
<path d="M0 0 C4.47453277 6.13176712 4.75987903 12.78665273 3.69140625 20.1171875 C2.44513319 25.78607559 0.15319473 30.84680527 -4 35 C-7.375 35.4375 -7.375 35.4375 -11 35 C-13.79591451 32.3183058 -14.89868407 30.65336805 -15.49609375 26.80078125 C-15.32203875 16.43870678 -14.70407829 7.51147634 -7 0 C-3.84150454 -1.05283182 -2.969245 -1.29904469 0 0 Z " fill="#070707" transform="translate(135,50)"/>
<path d="M0 0 C1.85776765 3.13498292 2.20140476 5.37471432 2 9 C2.99 6.03 3.98 3.06 5 0 C5.66 0 6.32 0 7 0 C8.15594868 3.35076516 9.29789972 6.70614301 10.4375 10.0625 C10.76298828 11.00544922 11.08847656 11.94839844 11.42382812 12.91992188 C14.30610163 21.44788576 15.92655712 27.3170236 12.16796875 35.7578125 C10.75194337 38.47620236 9.55631162 40.27073037 7 42 C3.9375 42.875 3.9375 42.875 1 43 C0.01 42.34 -0.98 41.68 -2 41 C-0.02 41 1.96 41 4 41 C2.61144733 35.73137816 1.21821967 30.50514342 -0.625 25.375 C-3.18367822 17.79323243 -3.70827454 9.85806287 -2 2 C-1.34 1.34 -0.68 0.68 0 0 Z " fill="#C7C5C9" transform="translate(153,142)"/>
<path d="M0 0 C5.28186514 1.39814077 8.09198917 4.56988984 11 9 C14.65257687 16.24566552 15.62280545 23.62883968 16.21484375 31.6171875 C17.38017411 36.63796409 20.21326298 38.74657235 24.31640625 41.625 C25.05761719 42.07875 25.79882812 42.5325 26.5625 43 C30.55713561 45.59219283 34.08178288 48.10361043 35.58203125 52.8359375 C36.05061712 55.26207367 36.16866832 57.52928392 36.1875 60 C36.20167969 60.845625 36.21585938 61.69125 36.23046875 62.5625 C35.98543096 65.15408616 35.30584901 66.77024992 34 69 C34.03480469 68.10796875 34.06960937 67.2159375 34.10546875 66.296875 C34.14607422 64.54117188 34.14607422 64.54117188 34.1875 62.75 C34.22230469 61.58984375 34.25710937 60.4296875 34.29296875 59.234375 C33.97712666 55.74747837 33.58023592 54.34250632 31 52 C29.68 52 28.36 52 27 52 C25.28859531 50.03814584 23.62126675 48.03697617 22 46 C18.98509443 44.99503148 16.95818308 44.89664697 13.8125 44.9375 C12.91144531 44.94652344 12.01039063 44.95554688 11.08203125 44.96484375 C10.39496094 44.97644531 9.70789063 44.98804688 9 45 C8.9498877 44.42145264 8.89977539 43.84290527 8.84814453 43.24682617 C7.42159255 23.13100854 7.42159255 23.13100854 1.0234375 4.21484375 C0 2 0 2 0 0 Z " fill="#F0EFEF" transform="translate(158,40)"/>
<path d="M0 0 C0.28875 0.639375 0.5775 1.27875 0.875 1.9375 C1.82823451 4.15206079 1.82823451 4.15206079 4 5 C4 5.99 4 6.98 4 8 C4.99 8 5.98 8 7 8 C7.12375 7.195625 7.2475 6.39125 7.375 5.5625 C7.58125 4.716875 7.7875 3.87125 8 3 C8.66 2.67 9.32 2.34 10 2 C9.67 7.94 9.34 13.88 9 20 C11.64 20.33 14.28 20.66 17 21 C17.33 21.99 17.66 22.98 18 24 C18.66 23.67 19.32 23.34 20 23 C20.66 23.33 21.32 23.66 22 24 C22.16721119 22.18755015 22.33375441 20.37503867 22.5 18.5625 C22.63921875 17.04849609 22.63921875 17.04849609 22.78125 15.50390625 C23.03268756 12.62584415 22.72322886 10.80251184 22 8 C22.66 8 23.32 8 24 8 C24.33 5.36 24.66 2.72 25 0 C25.33 0 25.66 0 26 0 C26.12117188 1.22074219 26.24234375 2.44148437 26.3671875 3.69921875 C27.32657842 13.18406239 28.41303199 22.59637042 30 32 C28.6078125 31.0409375 28.6078125 31.0409375 27.1875 30.0625 C22.79287896 27.21892168 19.77401849 26.82069591 14.625 26.75 C13.50351563 26.72421875 12.38203125 26.6984375 11.2265625 26.671875 C7.6639577 27.03417379 5.89028999 27.9470366 3 30 C-0.88674477 32.6908233 -3.26194558 33.33056194 -8 33 C-8 32.67 -8 32.34 -8 32 C-6.35 32 -4.7 32 -3 32 C-2.94465088 31.31486328 -2.88930176 30.62972656 -2.83227539 29.92382812 C-2.57747217 26.78240409 -2.32000565 23.64120362 -2.0625 20.5 C-1.93198242 18.88351563 -1.93198242 18.88351563 -1.79882812 17.234375 C-1.3241187 11.46753453 -0.77252077 5.73474876 0 0 Z " fill="#B1B0B3" transform="translate(68,152)"/>
<path d="M0 0 C10.77110989 -0.70246369 19.56464723 3.53329391 28 10 C31.48433989 13.19980878 34.78341823 16.5322318 38 20 C37.67 20.66 37.34 21.32 37 22 C35.68 21.01 34.36 20.02 33 19 C32.01 19.495 32.01 19.495 31 20 C31 19.34 31 18.68 31 18 C30.41992188 17.90203125 29.83984375 17.8040625 29.2421875 17.703125 C23.87300267 16.67536025 20.56609797 15.0751272 16 12 C7.7829674 8.53269723 -1.22030258 7.92589861 -10 7 C-10 6.67 -10 6.34 -10 6 C-9.22914062 5.93941406 -8.45828125 5.87882812 -7.6640625 5.81640625 C-6.66117187 5.73261719 -5.65828125 5.64882813 -4.625 5.5625 C-3.62726563 5.48128906 -2.62953125 5.40007813 -1.6015625 5.31640625 C0.97927613 5.15034374 0.97927613 5.15034374 3 4 C3 3.34 3 2.68 3 2 C2.01 1.34 1.02 0.68 0 0 Z M28 14 C28.33 14.99 28.66 15.98 29 17 C29 16.01 29 15.02 29 14 C28.67 14 28.34 14 28 14 Z " fill="#1C1C1D" transform="translate(120,18)"/>
<path d="M0 0 C5 2 5 2 10 4 C8.85039017 14.02189279 7.19920808 23.40237576 4 33 C-0.2026393 30.36113346 -3.56638098 27.63559661 -7 24 C-6.67 23.34 -6.34 22.68 -6 22 C-5.34 22.66 -4.68 23.32 -4 24 C-3.13024657 21.12891082 -2.27899167 18.25437467 -1.4375 15.375 C-1.19064453 14.56675781 -0.94378906 13.75851563 -0.68945312 12.92578125 C0.66194585 8.24346932 1.30834073 4.84164413 0 0 Z " fill="#DBDADE" transform="translate(57,93)"/>
<path d="M0 0 C4.66541363 -0.79224005 6.85057093 -0.78262364 10.83984375 1.93359375 C12.74904303 3.535271 14.6320341 5.16883069 16.484375 6.8359375 C20.18981916 10.02354009 22.904031 11.1974145 27.75 11.625 C28.54921875 11.69976562 29.3484375 11.77453125 30.171875 11.8515625 C30.77515625 11.90054688 31.3784375 11.94953125 32 12 C32.495 13.485 32.495 13.485 33 15 C32.67 15.66 32.34 16.32 32 17 C29.36 17 26.72 17 24 17 C23.67 17.66 23.34 18.32 23 19 C18.57004708 16.16724099 14.34367418 13.42262372 10.5625 9.75 C7.08360394 6.60592727 3.7161717 6.04550211 -0.86328125 5.51953125 C-3 5 -3 5 -5 2 C-3.35 2 -1.7 2 0 2 C0 1.34 0 0.68 0 0 Z " fill="#F5F5F5" transform="translate(82,185)"/>
<path d="M0 0 C0.99 0.33 1.98 0.66 3 1 C4.24227282 3.75666254 5.27949277 6.39972392 6.25 9.25 C6.53101563 10.01441406 6.81203125 10.77882812 7.1015625 11.56640625 C8.54933662 15.71621424 9.48930253 18.67063219 8 23 C6.68 23.33 5.36 23.66 4 24 C3.67 26.64 3.34 29.28 3 32 C-1.23121072 24.08708644 -3.59065827 13.96259722 -3 5 C-1.5078125 2.1484375 -1.5078125 2.1484375 0 0 Z " fill="#DBDBDC" transform="translate(125,137)"/>
<path d="M0 0 C-0.99 0.495 -0.99 0.495 -2 1 C-2.65213292 3.02463255 -2.65213292 3.02463255 -3 5 C-3.76183594 5.03738281 -4.52367188 5.07476563 -5.30859375 5.11328125 C-11.30403724 5.49501361 -16.46145443 6.26056293 -22.0859375 8.3671875 C-24.44610963 9.14748931 -26.53332816 9.23871018 -29 9 C-29 8.34 -29 7.68 -29 7 C-29.99 7 -30.98 7 -32 7 C-32 6.01 -32 5.02 -32 4 C-31.360625 3.855625 -30.72125 3.71125 -30.0625 3.5625 C-28.02454854 3.18992819 -28.02454854 3.18992819 -27 2 C-19.18750772 -2.65029302 -8.63620136 -2.05151143 0 0 Z " fill="#110C0C" transform="translate(125,19)"/>
<path d="M0 0 C-1.25 1.5625 -1.25 1.5625 -3 3 C-5.1875 2.6875 -5.1875 2.6875 -7 2 C-7 2.99 -7 3.98 -7 5 C-6.01 5 -5.02 5 -4 5 C-4 5.66 -4 6.32 -4 7 C-3.34 7.33 -2.68 7.66 -2 8 C-2.96099609 8.54527344 -2.96099609 8.54527344 -3.94140625 9.1015625 C-9.47377716 12.3170985 -14.27462786 15.68552979 -19 20 C-19.33 17.69 -19.66 15.38 -20 13 C-20.33 14.65 -20.66 16.3 -21 18 C-21.99 17.67 -22.98 17.34 -24 17 C-24 17.66 -24 18.32 -24 19 C-24.66 18.67 -25.32 18.34 -26 18 C-21.62446287 10.39037021 -9.65937448 -3.21979149 0 0 Z " fill="#3C3334" transform="translate(100,21)"/>
<path d="M0 0 C0.28875 0.639375 0.5775 1.27875 0.875 1.9375 C1.82823451 4.15206079 1.82823451 4.15206079 4 5 C4 5.99 4 6.98 4 8 C4.99 8 5.98 8 7 8 C7 10.64 7 13.28 7 16 C6.34 16 5.68 16 5 16 C5.33 16.66 5.66 17.32 6 18 C6.1875 21 6.1875 21 6 24 C4 26 4 26 1 27 C1 27.66 1 28.32 1 29 C0.34 29.66 -0.32 30.32 -1 31 C-1.33 31.66 -1.66 32.32 -2 33 C-3.98 33 -5.96 33 -8 33 C-8 32.67 -8 32.34 -8 32 C-6.35 32 -4.7 32 -3 32 C-2.94465088 31.31486328 -2.88930176 30.62972656 -2.83227539 29.92382812 C-2.57747217 26.78240409 -2.32000565 23.64120362 -2.0625 20.5 C-1.93198242 18.88351563 -1.93198242 18.88351563 -1.79882812 17.234375 C-1.3241187 11.46753453 -0.77252077 5.73474876 0 0 Z " fill="#D1D0D2" transform="translate(68,152)"/>
<path d="M0 0 C1.76150391 -0.02126953 1.76150391 -0.02126953 3.55859375 -0.04296875 C6.5625 0.1875 6.5625 0.1875 8.5625 2.1875 C7.5725 3.6725 7.5725 3.6725 6.5625 5.1875 C6.5625 6.5075 6.5625 7.8275 6.5625 9.1875 C5.86382812 9.09210938 5.16515625 8.99671875 4.4453125 8.8984375 C3.53523438 8.78757812 2.62515625 8.67671875 1.6875 8.5625 C0.78257813 8.44648437 -0.12234375 8.33046875 -1.0546875 8.2109375 C-1.84101562 8.20320313 -2.62734375 8.19546875 -3.4375 8.1875 C-5.93255962 10.68255962 -5.79698376 11.86078888 -6.0625 15.3125 C-6.13726562 16.22257812 -6.21203125 17.13265625 -6.2890625 18.0703125 C-6.33804688 18.76898438 -6.38703125 19.46765625 -6.4375 20.1875 C-6.7675 20.1875 -7.0975 20.1875 -7.4375 20.1875 C-7.7675 17.5475 -8.0975 14.9075 -8.4375 12.1875 C-9.4275 12.1875 -10.4175 12.1875 -11.4375 12.1875 C-12.0975 11.8575 -12.7575 11.5275 -13.4375 11.1875 C-13.02235103 6.3440954 -10.97541301 4.37162171 -7.4375 1.1875 C-5.56506019 -0.68493981 -2.50090482 0.01369608 0 0 Z " fill="#3B3637" transform="translate(50.4375,83.8125)"/>
<path d="M0 0 C0.33 0 0.66 0 1 0 C1.63410985 7.29226327 -0.51589529 13.7145712 -4.9375 19.5625 C-7.30218264 21.21061214 -9.1532583 21.68369537 -12 22 C-12.99 20.35 -13.98 18.7 -15 17 C-14.01 17 -13.02 17 -12 17 C-12 15.02 -12 13.04 -12 11 C-11.236875 10.9175 -10.47375 10.835 -9.6875 10.75 C-6.42771232 9.84029181 -5.77798023 8.79396893 -4 6 C-3.34 5.34 -2.68 4.68 -2 4 C-1.30251417 2.68252676 -0.63040043 1.35085807 0 0 Z " fill="#0B0909" transform="translate(101,60)"/>
<path d="M0 0 C3.0164727 3.0164727 3.95763177 4.56219495 4.375 8.875 C4.04535613 14.91089297 2.35394648 19.96908027 -1 25 C-1.66 24.01 -2.32 23.02 -3 22 C-2.01 21.67 -1.02 21.34 0 21 C-0.66 20.01 -1.32 19.02 -2 18 C-2.99 19.32 -3.98 20.64 -5 22 C-5.66 21.67 -6.32 21.34 -7 21 C-6.505 20.113125 -6.01 19.22625 -5.5 18.3125 C-3.08432834 12.82336814 -3.76172626 6.86859393 -4 1 C-2.68 0.67 -1.36 0.34 0 0 Z " fill="#E7E7E5" transform="translate(189,91)"/>
<path d="M0 0 C0 2.97 0 5.94 0 9 C0.66 9 1.32 9 2 9 C2.99 11.97 3.98 14.94 5 18 C3.68 17.67 2.36 17.34 1 17 C1 17.66 1 18.32 1 19 C0.01 19.33 -0.98 19.66 -2 20 C-2.6509259 18.75264433 -3.29551669 17.50198168 -3.9375 16.25 C-4.29714844 15.55390625 -4.65679687 14.8578125 -5.02734375 14.140625 C-7.19967404 9.35975352 -7.08628839 5.17730369 -7 0 C-4 -1 -4 -1 0 0 Z " fill="#2F2727" transform="translate(43,95)"/>
<path d="M0 0 C0.33 0 0.66 0 1 0 C1.50604984 6.98629919 1.0333905 11.20200116 -3 17 C-3.66 17 -4.32 17 -5 17 C-5.33 18.98 -5.66 20.96 -6 23 C-6.33 22.34 -6.66 21.68 -7 21 C-7.99 21.33 -8.98 21.66 -10 22 C-10 21.34 -10 20.68 -10 20 C-10.99 20.33 -11.98 20.66 -13 21 C-9.81715576 10.63882619 -9.81715576 10.63882619 -7 7 C-6.01 7 -5.02 7 -4 7 C-4 6.34 -4 5.68 -4 5 C-3.34 5 -2.68 5 -2 5 C-1.34 3.35 -0.68 1.7 0 0 Z " fill="#190F0F" transform="translate(80,33)"/>
<path d="M0 0 C3.10844671 3.10844671 4.56635516 7.0497853 6.46875 10.98046875 C7.65830734 13.326203 8.88420271 15.35431675 10.375 17.5 C12.70253256 22.51314704 12.88399452 27.55268243 12 33 C10.47265625 34.859375 10.47265625 34.859375 9 36 C9.165 35.34 9.33 34.68 9.5 34 C10.12183299 30.26900206 10.06408926 26.78126622 10 23 C9.34 23 8.68 23 8 23 C7.34 24.98 6.68 26.96 6 29 C5.67 29 5.34 29 5 29 C4.33333333 27 3.66666667 25 3 23 C2.566875 21.989375 2.13375 20.97875 1.6875 19.9375 C1.460625 18.968125 1.23375 17.99875 1 17 C1.53625 16.236875 2.0725 15.47375 2.625 14.6875 C4.32425592 12.13779515 4.32425592 12.13779515 3.31640625 9.79296875 C2.57540171 8.20583445 1.79746605 6.63532397 0.98046875 5.0859375 C0 3 0 3 0 0 Z " fill="#ECECEC" transform="translate(187,139)"/>
<path d="M0 0 C0.33 0 0.66 0 1 0 C1.12117188 1.22074219 1.24234375 2.44148437 1.3671875 3.69921875 C2.32657842 13.18406239 3.41303199 22.59637042 5 32 C4.154375 31.38125 3.30875 30.7625 2.4375 30.125 C-0.91372345 27.86952264 -4.08856854 26.93874355 -8 26 C-7.01 25.01 -6.02 24.02 -5 23 C-4.34 23.33 -3.68 23.66 -3 24 C-2.83278881 22.18755015 -2.66624559 20.37503867 -2.5 18.5625 C-2.4071875 17.55316406 -2.314375 16.54382813 -2.21875 15.50390625 C-1.96731244 12.62584415 -2.27677114 10.80251184 -3 8 C-2.34 8 -1.68 8 -1 8 C-0.67 5.36 -0.34 2.72 0 0 Z " fill="#C6C6C8" transform="translate(93,152)"/>
<path d="M0 0 C-0.42089996 5.60461531 -0.91613111 10.72086547 -3 16 C-7.2026393 13.36113346 -10.56638098 10.63559661 -14 7 C-13.67 6.34 -13.34 5.68 -13 5 C-12.34 5.66 -11.68 6.32 -11 7 C-10.649375 6.030625 -10.29875 5.06125 -9.9375 4.0625 C-8 1 -8 1 -4.375 0.125 C-1 0 -1 0 0 0 Z " fill="#D3D1D6" transform="translate(64,110)"/>
<path d="M0 0 C1.69867523 0.9751016 3.34835906 2.03449916 4.98828125 3.10546875 C4.65828125 4.42546875 4.32828125 5.74546875 3.98828125 7.10546875 C2.33828125 7.43546875 0.68828125 7.76546875 -1.01171875 8.10546875 C-0.68171875 6.78546875 -0.35171875 5.46546875 -0.01171875 4.10546875 C-1.00171875 4.10546875 -1.99171875 4.10546875 -3.01171875 4.10546875 C-3.01171875 4.76546875 -3.01171875 5.42546875 -3.01171875 6.10546875 C-4.26984375 6.29109375 -5.52796875 6.47671875 -6.82421875 6.66796875 C-7.88576172 6.82458984 -7.88576172 6.82458984 -8.96875 6.984375 C-11.01171875 7.10546875 -11.01171875 7.10546875 -14.01171875 6.10546875 C-14.67171875 5.44546875 -15.33171875 4.78546875 -16.01171875 4.10546875 C-11.55639256 -0.65712132 -6.43948801 -2.86338399 0 0 Z " fill="#EFEFEF" transform="translate(140.01171875,183.89453125)"/>
<path d="M0 0 C0.33 2.31 0.66 4.62 1 7 C0.40832031 6.96519531 -0.18335938 6.93039063 -0.79296875 6.89453125 C-5.79029546 6.72333409 -8.88437794 6.8527596 -13 10 C-13.99 10.66 -14.98 11.32 -16 12 C-16 7.66619977 -15.86733701 5.41927874 -13.625 1.75 C-9.4143245 -1.057117 -4.91686744 -0.30518488 0 0 Z " fill="#040404" transform="translate(139,177)"/>
<path d="M0 0 C0.66 0.33 1.32 0.66 2 1 C1.525625 1.7425 1.05125 2.485 0.5625 3.25 C-2.15722833 8.58682541 -2 15.11454488 -2 21 C1.85658398 18.84921278 5.54319097 16.76544722 9 14 C7.44396229 17.81936528 5.04395069 20.26044438 2 23 C1.34 23 0.68 23 0 23 C0 23.66 0 24.32 0 25 C-1.32 25 -2.64 25 -4 25 C-4.33923576 22.64655194 -4.67150534 20.2924516 -5 17.9375 C-5.09539062 17.28072266 -5.19078125 16.62394531 -5.2890625 15.94726562 C-5.88887674 11.59861237 -6.09127093 7.38670929 -6 3 C-4.03533587 1.93224776 -2.03144641 0.93446535 0 0 Z " fill="#F5F4F6" transform="translate(159,97)"/>
<path d="M0 0 C5.64913063 1.65707832 10.26300637 3.47762012 15 7 C14.01 7.495 14.01 7.495 13 8 C13 9.32 13 10.64 13 12 C13.66 11.34 14.32 10.68 15 10 C15.33 10.99 15.66 11.98 16 13 C16.66 13.33 17.32 13.66 18 14 C17.34 15.65 16.68 17.3 16 19 C17.32 19.66 18.64 20.32 20 21 C18.02 21.33 16.04 21.66 14 22 C14 21.01 14 20.02 14 19 C13.34 19 12.68 19 12 19 C11.72027344 18.20335938 11.44054687 17.40671875 11.15234375 16.5859375 C8.46822506 9.49157878 6.14341351 5.45698627 0 1 C0 0.67 0 0.34 0 0 Z " fill="#DDDDDE" transform="translate(129,27)"/>
<path d="M0 0 C1.32 0.33 2.64 0.66 4 1 C4 1.99 4 2.98 4 4 C5.32 4 6.64 4 8 4 C8 3.01 8 2.02 8 1 C9.98 1.66 11.96 2.32 14 3 C13.67 3.66 13.34 4.32 13 5 C12.690625 5.680625 12.38125 6.36125 12.0625 7.0625 C11 9 11 9 9 10 C6.41814302 8.81252571 3.98552574 7.42172788 1.5078125 6.03125 C-0.88208636 4.82484411 -0.88208636 4.82484411 -3.1484375 5.18359375 C-6.05491337 6.46514113 -7.87261702 8.6953351 -10 11 C-9 9 -8 7 -7 5 C-9.475 4.01 -9.475 4.01 -12 3 C-8.79984144 1.93328048 -7.11455706 2.05154528 -3.8125 2.4375 C-2.46091797 2.59025391 -2.46091797 2.59025391 -1.08203125 2.74609375 C-0.39496094 2.82988281 0.29210937 2.91367188 1 3 C0.67 2.01 0.34 1.02 0 0 Z " fill="#F7F7F7" transform="translate(136,187)"/>
<path d="M0 0 C0.33 0.66 0.66 1.32 1 2 C1.66 2.33 2.32 2.66 3 3 C2.55527344 3.40089844 2.11054688 3.80179687 1.65234375 4.21484375 C-1.85817323 7.67519486 -1.85817323 7.67519486 -3.2109375 12.2578125 C-2.93855803 14.55358233 -2.52205906 16.74862029 -2 19 C-1.814375 20.175625 -1.62875 21.35125 -1.4375 22.5625 C-1.293125 23.366875 -1.14875 24.17125 -1 25 C-2.32 25.33 -3.64 25.66 -5 26 C-5.433125 25.38125 -5.86625 24.7625 -6.3125 24.125 C-7.99740483 21.7802755 -7.99740483 21.7802755 -11 20 C-11 19.34 -11 18.68 -11 18 C-10.175 17.5875 -9.35 17.175 -8.5 16.75 C-7.675 16.1725 -6.85 15.595 -6 15 C-6.0309375 13.700625 -6.0309375 13.700625 -6.0625 12.375 C-5.96729875 7.23413228 -3.00169759 4.02013071 0 0 Z " fill="#BFBDC0" transform="translate(172,110)"/>
<path d="M0 0 C2.25 0.125 2.25 0.125 5 1 C7.1875 3.875 7.1875 3.875 9 7 C9.99 8.485 9.99 8.485 11 10 C9.8125 11.5625 9.8125 11.5625 8 13 C5.625 13.125 5.625 13.125 3 12 C0.08458908 8.88599161 -2 6.34171669 -2 2 C-1.34 2 -0.68 2 0 2 C0 1.34 0 0.68 0 0 Z " fill="#131212" transform="translate(44,112)"/>
<path d="M0 0 C2.125 0.375 2.125 0.375 4 1 C4 1.66 4 2.32 4 3 C4.99 2.67 5.98 2.34 7 2 C10.7753383 4.26520298 12.9265766 6.79441742 14.5 10.93359375 C15.84692579 16.50018551 15.89271145 21.98673513 13 27 C13.03480469 26.10796875 13.06960937 25.2159375 13.10546875 24.296875 C13.13253906 23.12640625 13.15960938 21.9559375 13.1875 20.75 C13.22230469 19.58984375 13.25710937 18.4296875 13.29296875 17.234375 C12.97712666 13.74747837 12.58023592 12.34250632 10 10 C8.68 10 7.36 10 6 10 C4.26776336 8.05651499 2.60118397 6.05279996 1 4 C0.01 3.34 -0.98 2.68 -2 2 C-1.34 1.34 -0.68 0.68 0 0 Z " fill="#F4F4F4" transform="translate(179,82)"/>
<path d="M0 0 C1.2065625 0.0309375 1.2065625 0.0309375 2.4375 0.0625 C2.7675 0.7225 3.0975 1.3825 3.4375 2.0625 C2.81875 2.31 2.2 2.5575 1.5625 2.8125 C-1.04516811 4.34642242 -1.49893186 5.25164134 -2.5625 8.0625 C-2.80360759 11.11264928 -2.80360759 11.11264928 -2.6875 14.3125 C-2.66945313 15.39015625 -2.65140625 16.4678125 -2.6328125 17.578125 C-2.60960937 18.39796875 -2.58640625 19.2178125 -2.5625 20.0625 C-2.8925 20.0625 -3.2225 20.0625 -3.5625 20.0625 C-3.8925 17.4225 -4.2225 14.7825 -4.5625 12.0625 C-5.5525 12.0625 -6.5425 12.0625 -7.5625 12.0625 C-8.2225 11.7325 -8.8825 11.4025 -9.5625 11.0625 C-9.14735103 6.2190954 -7.10041301 4.24662171 -3.5625 1.0625 C-2.5625 0.0625 -2.5625 0.0625 0 0 Z " fill="#413939" transform="translate(46.5625,83.9375)"/>
<path d="M0 0 C0.66 1.32 1.32 2.64 2 4 C1.34 4.66 0.68 5.32 0 6 C0.33 6.33 0.66 6.66 1 7 C1.99 5.35 2.98 3.7 4 2 C4.33 2.66 4.66 3.32 5 4 C4.12077066 5.46840364 3.22083011 6.9244174 2.3125 8.375 C1.81363281 9.18710938 1.31476563 9.99921875 0.80078125 10.8359375 C-1.29475532 13.35421789 -2.9171256 14.01387863 -6 15 C-6.99 15.495 -6.99 15.495 -8 16 C-8 15.01 -8 14.02 -8 13 C-7.34 12.67 -6.68 12.34 -6 12 C-6.103125 11.113125 -6.20625 10.22625 -6.3125 9.3125 C-5.90331912 4.97518268 -4.23868703 3.76473283 -1 1 C-0.67 0.67 -0.34 0.34 0 0 Z M-5 8 C-4 10 -4 10 -4 10 Z " fill="#EFEFEF" transform="translate(187,108)"/>
<path d="M0 0 C1.96875 1.203125 1.96875 1.203125 4 3 C5.17775243 7.95348815 4.51512096 12.72353833 2 17.125 C1.34 18.07375 0.68 19.0225 0 20 C-0.66 19.67 -1.32 19.34 -2 19 C-1.52244304 13.28963808 -1.01320121 7.64497815 0 2 C0 1.34 0 0.68 0 0 Z " fill="#C0C0C1" transform="translate(176,91)"/>
<path d="M0 0 C0.66 0 1.32 0 2 0 C3.15594868 3.35076516 4.29789972 6.70614301 5.4375 10.0625 C5.76298828 11.00544922 6.08847656 11.94839844 6.42382812 12.91992188 C8.12962835 17.96698028 9.47741125 22.69314808 10 28 C6.20483774 25.46989183 5.89567864 23.64440079 4.4375 19.375 C4.22134033 18.74416504 4.00518066 18.11333008 3.7824707 17.46337891 C1.81208543 11.62792066 0 6.2015686 0 0 Z " fill="#939196" transform="translate(158,142)"/>
<path d="M0 0 C0.33 0 0.66 0 1 0 C1.41612253 2.76916073 1.80847753 5.53823496 2.1875 8.3125 C2.36829102 9.49102539 2.36829102 9.49102539 2.55273438 10.69335938 C2.65263672 11.45068359 2.75253906 12.20800781 2.85546875 12.98828125 C3.00471802 14.03302612 3.00471802 14.03302612 3.15698242 15.09887695 C3 17 3 17 1.6340332 18.75073242 C0 20 0 20 -2 20 C-2.05407567 17.41638482 -2.093707 14.83390745 -2.125 12.25 C-2.14175781 11.52039063 -2.15851563 10.79078125 -2.17578125 10.0390625 C-2.21072239 6.1955376 -2.17499684 3.25393228 0 0 Z " fill="#CFCDD0" transform="translate(152,101)"/>
<path d="M0 0 C-1.25 1.5625 -1.25 1.5625 -3 3 C-5.1875 2.6875 -5.1875 2.6875 -7 2 C-7 2.99 -7 3.98 -7 5 C-6.01 5 -5.02 5 -4 5 C-4 5.66 -4 6.32 -4 7 C-3.34 7.33 -2.68 7.66 -2 8 C-5.63 9.98 -9.26 11.96 -13 14 C-12.67 12.35 -12.34 10.7 -12 9 C-10.35 9 -8.7 9 -7 9 C-7.33 8.34 -7.66 7.68 -8 7 C-11.02934491 6.34227572 -11.02934491 6.34227572 -14 6 C-10.33829808 1.75242578 -5.68114185 -1.89371395 0 0 Z " fill="#5C5454" transform="translate(100,21)"/>
<path d="M0 0 C0.66 0.99 1.32 1.98 2 3 C1.67 3.99 1.34 4.98 1 6 C0.34 6 -0.32 6 -1 6 C-0.67 6.66 -0.34 7.32 0 8 C1.32 7.34 2.64 6.68 4 6 C3.34 7.98 2.68 9.96 2 12 C1.67 11.34 1.34 10.68 1 10 C0.34 10 -0.32 10 -1 10 C-0.67 10.99 -0.34 11.98 0 13 C-1.98 13.99 -1.98 13.99 -4 15 C-5.72107623 7.33183857 -5.72107623 7.33183857 -3.953125 4.06640625 C-2.5625 2.4375 -2.5625 2.4375 0 0 Z " fill="#E4E3E4" transform="translate(180,115)"/>
<path d="M0 0 C1.65 0.33 3.3 0.66 5 1 C5.25 6.625 5.25 6.625 3 10 C1.35 9.67 -0.3 9.34 -2 9 C-2.25 3.375 -2.25 3.375 0 0 Z " fill="#121212" transform="translate(106,83)"/>
<path d="M0 0 C6.625 -0.25 6.625 -0.25 10 2 C9.34 2.66 8.68 3.32 8 4 C7.3574765 6.06874034 7.3574765 6.06874034 7 8 C7.66 8.33 8.32 8.66 9 9 C2.73 8.34 -3.54 7.68 -10 7 C-10 6.67 -10 6.34 -10 6 C-9.22914062 5.93941406 -8.45828125 5.87882812 -7.6640625 5.81640625 C-6.66117187 5.73261719 -5.65828125 5.64882813 -4.625 5.5625 C-3.62726563 5.48128906 -2.62953125 5.40007813 -1.6015625 5.31640625 C0.97927613 5.15034374 0.97927613 5.15034374 3 4 C3 3.34 3 2.68 3 2 C2.01 1.34 1.02 0.68 0 0 Z " fill="#535152" transform="translate(120,18)"/>
<path d="M0 0 C3 1 3 1 5 4 C5.99 2.68 6.98 1.36 8 0 C8.99 2.97 9.98 5.94 11 9 C9.68 8.67 8.36 8.34 7 8 C7 8.66 7 9.32 7 10 C6.01 10.33 5.02 10.66 4 11 C3.32591692 9.73308493 2.66099503 8.46129251 2 7.1875 C1.62875 6.47980469 1.2575 5.77210937 0.875 5.04296875 C0 3 0 3 0 0 Z " fill="#3A3636" transform="translate(37,104)"/>
<path d="M0 0 C0.33 0 0.66 0 1 0 C1.13277344 0.80824219 1.26554688 1.61648437 1.40234375 2.44921875 C1.57894531 3.51785156 1.75554687 4.58648437 1.9375 5.6875 C2.11152344 6.74324219 2.28554687 7.79898438 2.46484375 8.88671875 C2.93167121 11.60249604 3.44422616 14.30124235 4 17 C2.35 17.66 0.7 18.32 -1 19 C-1.77380214 14.61512119 -1.99656842 11.31846317 -1 7 C-1 5.9275 -1 4.855 -1 3.75 C-1 1 -1 1 0 0 Z " fill="#F6F5F5" transform="translate(183,122)"/>
<path d="M0 0 C2.64 0 5.28 0 8 0 C8.625 1.875 8.625 1.875 9 4 C7 6 7 6 4.6875 6.08203125 C3.800625 5.99308594 2.91375 5.90414062 2 5.8125 C0.6696875 5.69841797 0.6696875 5.69841797 -0.6875 5.58203125 C-3 5 -3 5 -5 2 C-3.35 2 -1.7 2 0 2 C0 1.34 0 0.68 0 0 Z " fill="#F8F8F7" transform="translate(82,185)"/>
<path d="M0 0 C0.33 0.66 0.66 1.32 1 2 C1.99 2 2.98 2 4 2 C4.50423019 7.29441695 3.18923033 9.81413519 0 14 C-0.66 13.01 -1.32 12.02 -2 11 C-1.01 10.67 -0.02 10.34 1 10 C0.34 9.01 -0.32 8.02 -1 7 C-1.99 8.32 -2.98 9.64 -4 11 C-4.66 10.67 -5.32 10.34 -6 10 C-5.38125 9.0925 -4.7625 8.185 -4.125 7.25 C-2.55610389 4.85051183 -1.19556179 2.59038388 0 0 Z " fill="#E2E2E1" transform="translate(188,102)"/>
<path d="M0 0 C3.10844671 3.10844671 4.56635516 7.0497853 6.46875 10.98046875 C7.65830734 13.326203 8.88420271 15.35431675 10.375 17.5 C12.70253256 22.51314704 12.88399452 27.55268243 12 33 C10.47265625 34.859375 10.47265625 34.859375 9 36 C9.165 35.34 9.33 34.68 9.5 34 C10.92972717 25.421637 9.46579403 20.39686447 5 13 C4.4740625 12.34 3.948125 11.68 3.40625 11 C1.80978521 8.7294723 1.33099526 6.96212903 0.8125 4.25 C0.65394531 3.45078125 0.49539062 2.6515625 0.33203125 1.828125 C0.22246094 1.22484375 0.11289063 0.6215625 0 0 Z " fill="#FDFDFD" transform="translate(187,139)"/>
<path d="M0 0 C0.33 0.66 0.66 1.32 1 2 C2.65 2 4.3 2 6 2 C6.33 2.99 6.66 3.98 7 5 C6.34 5 5.68 5 5 5 C4.67 6.98 4.34 8.96 4 11 C3.67 10.34 3.34 9.68 3 9 C2.01 9.33 1.02 9.66 0 10 C0 9.34 0 8.68 0 8 C-0.99 8.33 -1.98 8.66 -3 9 C-2.01 6.03 -1.02 3.06 0 0 Z " fill="#2F2527" transform="translate(70,45)"/>
<path d="M0 0 C-0.928125 0.680625 -0.928125 0.680625 -1.875 1.375 C-4.05919833 2.97108919 -4.05919833 2.97108919 -6 5 C-4.35 5 -2.7 5 -1 5 C-1 5.66 -1 6.32 -1 7 C-2.258125 7.185625 -3.51625 7.37125 -4.8125 7.5625 C-5.87404297 7.71912109 -5.87404297 7.71912109 -6.95703125 7.87890625 C-9 8 -9 8 -12 7 C-12.66 6.34 -13.32 5.68 -14 5 C-9.48881925 0.17770333 -6.5260927 -0.12313382 0 0 Z " fill="#D8D8D7" transform="translate(138,183)"/>
<path d="M0 0 C0.33 0.66 0.66 1.32 1 2 C1.61875 1.649375 2.2375 1.29875 2.875 0.9375 C3.926875 0.4734375 3.926875 0.4734375 5 0 C5.66 0.33 6.32 0.66 7 1 C6.45564371 4.81049403 5.01129759 6.63979378 2 9 C-1.0625 9.875 -1.0625 9.875 -4 10 C-4.99 9.34 -5.98 8.68 -7 8 C-5.02 8 -3.04 8 -1 8 C0.01111093 4.95086772 0.01111093 4.95086772 -1 2 C-0.67 1.34 -0.34 0.68 0 0 Z " fill="#BEBEBF" transform="translate(158,175)"/>
<path d="M0 0 C0.76183594 0.17144531 1.52367188 0.34289062 2.30859375 0.51953125 C4.56224809 1.18742534 6.49795486 2.0729278 8.5625 3.1875 C0.13392857 5.47321429 0.13392857 5.47321429 -4.4375 5.1875 C-4.4375 4.5275 -4.4375 3.8675 -4.4375 3.1875 C-5.4275 3.1875 -6.4175 3.1875 -7.4375 3.1875 C-7.4375 2.1975 -7.4375 1.2075 -7.4375 0.1875 C-4.22057855 -0.88480715 -3.19727701 -0.74944604 0 0 Z " fill="#4E4A4A" transform="translate(100.4375,22.8125)"/>
<path d="M0 0 C1.46845421 5.47332932 0.44038726 8.11922548 -2 13 C-2.98651887 10.04044339 -3 8.07135164 -3 5 C-3.33 4.01 -3.66 3.02 -4 2 C-6.64 2.66 -9.28 3.32 -12 4 C-11.67 3.01 -11.34 2.02 -11 1 C-7.50970582 -0.47666292 -3.72563614 -0.07164685 0 0 Z " fill="#F7F7F7" transform="translate(176,91)"/>
<path d="M0 0 C0.66 0.33 1.32 0.66 2 1 C2 1.66 2 2.32 2 3 C2.66 3.33 3.32 3.66 4 4 C3.34 5.65 2.68 7.3 2 9 C3.32 9.66 4.64 10.32 6 11 C4.02 11.33 2.04 11.66 0 12 C0 11.01 0 10.02 0 9 C-0.66 9 -1.32 9 -2 9 C-2.33 6.69 -2.66 4.38 -3 2 C-2.34 2 -1.68 2 -1 2 C-0.67 1.34 -0.34 0.68 0 0 Z " fill="#D1D0D5" transform="translate(143,37)"/>
<path d="M0 0 C0.33 0.66 0.66 1.32 1 2 C1.66 2.33 2.32 2.66 3 3 C2.566875 3.42410156 2.13375 3.84820312 1.6875 4.28515625 C-1.49671781 7.63890417 -2.92225732 9.18370188 -3.375 13.9375 C-3.25125 14.948125 -3.1275 15.95875 -3 17 C-4.8125 18.0625 -4.8125 18.0625 -7 19 C-7.99 18.67 -8.98 18.34 -10 18 C-9.34 17.62875 -8.68 17.2575 -8 16.875 C-7.34 16.25625 -6.68 15.6375 -6 15 C-6.04125 14.13375 -6.0825 13.2675 -6.125 12.375 C-5.93523566 7.25136284 -2.99773289 4.01482083 0 0 Z " fill="#B8B6B8" transform="translate(172,110)"/>
<path d="M0 0 C0.33 0 0.66 0 1 0 C1.33 8.25 1.66 16.5 2 25 C-3 27 -3 27 -6 26 C-5.01 25.67 -4.02 25.34 -3 25 C-1.04031242 22.04605311 -0.7138605 19.51218695 -0.5859375 16.015625 C-0.52792969 14.61376953 -0.52792969 14.61376953 -0.46875 13.18359375 C-0.42234375 11.73146484 -0.42234375 11.73146484 -0.375 10.25 C-0.31699219 8.77466797 -0.31699219 8.77466797 -0.2578125 7.26953125 C-0.16371574 4.84653963 -0.07807672 2.42355204 0 0 Z " fill="#9E9D9E" transform="translate(160,72)"/>
<path d="M0 0 C1.1577506 3.47325181 1.06866652 6.36067448 1 10 C-3.75 11.125 -3.75 11.125 -6 10 C-4.87548273 7.0280615 -3.77706209 4.66559313 -2 2 C-1.34 2 -0.68 2 0 2 C0 1.34 0 0.68 0 0 Z " fill="#D4D4D4" transform="translate(174,102)"/>
<path d="M0 0 C2.64 0.33 5.28 0.66 8 1 C8 1.99 8 2.98 8 4 C7 5 7 5 3.4375 5.0625 C2.303125 5.041875 1.16875 5.02125 0 5 C0 3.35 0 1.7 0 0 Z " fill="#D0CFD2" transform="translate(77,172)"/>
<path d="M0 0 C2 0.25 2 0.25 4 1 C4.33 1.99 4.66 2.98 5 4 C4.01 5.485 4.01 5.485 3 7 C1.35 6.67 -0.3 6.34 -2 6 C-1.125 1.125 -1.125 1.125 0 0 Z " fill="#060505" transform="translate(129,20)"/>
<path d="M0 0 C3 2 3 2 3.5 4.4375 C3 7 3 7 0.625 8.875 C-0.674375 9.431875 -0.674375 9.431875 -2 10 C-2.66 9.67 -3.32 9.34 -4 9 C-4 8.34 -4 7.68 -4 7 C-2.68 6.67 -1.36 6.34 0 6 C-0.2784375 4.7934375 -0.2784375 4.7934375 -0.5625 3.5625 C-0.706875 2.716875 -0.85125 1.87125 -1 1 C-0.67 0.67 -0.34 0.34 0 0 Z " fill="#C2C0C5" transform="translate(164,118)"/>
<path d="M0 0 C1.953125 0.7109375 1.953125 0.7109375 4 2 C4.609375 4.1640625 4.609375 4.1640625 4.75 6.625 C4.80671875 7.44226563 4.8634375 8.25953125 4.921875 9.1015625 C4.94765625 9.72804688 4.9734375 10.35453125 5 11 C4.01 11 3.02 11 2 11 C1.34 11.66 0.68 12.32 0 13 C0.08378906 12.22914062 0.16757812 11.45828125 0.25390625 10.6640625 C0.40666016 9.15972656 0.40666016 9.15972656 0.5625 7.625 C0.66691406 6.62726563 0.77132812 5.62953125 0.87890625 4.6015625 C1.21144708 2.015963 1.21144708 2.015963 0 0 Z " fill="#E4E4E7" transform="translate(57,93)"/>
<path d="M0 0 C-1.4317521 5.01113235 -3.98445693 6.94469549 -8 10 C-8.33 9.01 -8.66 8.02 -9 7 C-8.34 7 -7.68 7 -7 7 C-6.896875 6.401875 -6.79375 5.80375 -6.6875 5.1875 C-5.47470998 1.32862265 -4.05869208 0 0 0 Z " fill="#1F1718" transform="translate(52,84)"/>
<path d="M0 0 C0.99 0 1.98 0 3 0 C3.13277344 0.69867188 3.26554687 1.39734375 3.40234375 2.1171875 C3.57894531 3.02726563 3.75554687 3.93734375 3.9375 4.875 C4.19853516 6.23238281 4.19853516 6.23238281 4.46484375 7.6171875 C4.89963701 9.99956317 4.89963701 9.99956317 6 12 C5.34 12 4.68 12 4 12 C3.67 12.66 3.34 13.32 3 14 C2.01 9.38 1.02 4.76 0 0 Z " fill="#A09EA2" transform="translate(118,168)"/>
<path d="M0 0 C0.94875 0.04125 1.8975 0.0825 2.875 0.125 C3.205 1.115 3.535 2.105 3.875 3.125 C3.545 3.785 3.215 4.445 2.875 5.125 C-1.67884615 5.49423077 -1.67884615 5.49423077 -3.9375 3.625 C-4.329375 3.13 -4.72125 2.635 -5.125 2.125 C-3.125 0.125 -3.125 0.125 0 0 Z " fill="#F3F3F3" transform="translate(111.125,196.875)"/>
<path d="M0 0 C2.5 1.375 2.5 1.375 5 3 C5 3.66 5 4.32 5 5 C6.98 5.66 8.96 6.32 11 7 C11 8.32 11 9.64 11 11 C6.81402577 8.37159758 3.32705097 5.71846873 0 2 C0 1.34 0 0.68 0 0 Z " fill="#CCCACD" transform="translate(50,115)"/>
<path d="M0 0 C4.29238623 1.65091778 6.8793915 4.73754566 10 8 C9.67 8.66 9.34 9.32 9 10 C7.68 9.01 6.36 8.02 5 7 C4.01 7.495 4.01 7.495 3 8 C3 7.34 3 6.68 3 6 C2.34 5.67 1.68 5.34 1 5 C0.375 2.4375 0.375 2.4375 0 0 Z " fill="#606060" transform="translate(148,30)"/>
<path d="M0 0 C0.33 0.66 0.66 1.32 1 2 C-0.4562545 2.67119549 -1.91507867 3.33681807 -3.375 4 C-4.59316406 4.556875 -4.59316406 4.556875 -5.8359375 5.125 C-8 6 -8 6 -10 6 C-7.82304683 0.97626191 -5.41372848 -0.29263397 0 0 Z " fill="#504849" transform="translate(49,84)"/>
<path d="M0 0 C0.66 0 1.32 0 2 0 C2.68707555 2.49064888 3 4.37886292 3 7 C0.69 7.33 -1.62 7.66 -4 8 C-2.87548273 5.0280615 -1.77706209 2.66559313 0 0 Z " fill="#DBDBDB" transform="translate(170,181)"/>
<path d="M0 0 C0 3 0 3 -1 5 C-1.66 5 -2.32 5 -3 5 C-2.67 5.99 -2.34 6.98 -2 8 C-2.66 8 -3.32 8 -4 8 C-4.33 8.66 -4.66 9.32 -5 10 C-5 9.34 -5 8.68 -5 8 C-5.99 7.67 -6.98 7.34 -8 7 C-5.61042731 3.75700849 -3.7952131 1.49097658 0 0 Z " fill="#110F11" transform="translate(126,178)"/>
<path d="M0 0 C1.4375 1.8125 1.4375 1.8125 1.4375 3.8125 C-1.5325 3.3175 -1.5325 3.3175 -4.5625 2.8125 C-4.8925 3.4725 -5.2225 4.1325 -5.5625 4.8125 C-7.5425 4.1525 -9.5225 3.4925 -11.5625 2.8125 C-11.5625 2.4825 -11.5625 2.1525 -11.5625 1.8125 C-3.414694 -1.58241917 -3.414694 -1.58241917 0 0 Z " fill="#202020" transform="translate(183.5625,88.1875)"/>
<path d="M0 0 C0.33 1.32 0.66 2.64 1 4 C-2.6441774 6.4294516 -4.71241272 6.16179575 -9 6 C-7.68 4.35 -6.36 2.7 -5 1 C-4.67 1.66 -4.34 2.32 -4 3 C-2.68 2.01 -1.36 1.02 0 0 Z " fill="#A7A5A7" transform="translate(184,164)"/>
<path d="M0 0 C1.65 0 3.3 0 5 0 C4.625 1.9375 4.625 1.9375 4 4 C3.01 4.495 3.01 4.495 2 5 C2.66 5.66 3.32 6.32 4 7 C1.69 7.33 -0.62 7.66 -3 8 C-2.34 7.01 -1.68 6.02 -1 5 C-0.61500109 3.34450469 -0.27206865 1.6777567 0 0 Z " fill="#F4F4F4" transform="translate(116,196)"/>
<path d="M0 0 C1.32 1.32 2.64 2.64 4 4 C3.01 5.98 2.02 7.96 1 10 C0.34 10 -0.32 10 -1 10 C-1.33 8.35 -1.66 6.7 -2 5 C-1.01 4.67 -0.02 4.34 1 4 C0.67 2.68 0.34 1.36 0 0 Z " fill="#FBFAF9" transform="translate(165,45)"/>
<path d="M0 0 C1.33804688 0.04060547 1.33804688 0.04060547 2.703125 0.08203125 C3.37859375 0.11683594 4.0540625 0.15164062 4.75 0.1875 C4.75 0.5175 4.75 0.8475 4.75 1.1875 C2.77 1.1875 0.79 1.1875 -1.25 1.1875 C-1.25 1.8475 -1.25 2.5075 -1.25 3.1875 C-7 4.3125 -7 4.3125 -9.25 3.1875 C-6.10408067 0.38704377 -4.182936 -0.16511589 0 0 Z " fill="#D5D5D4" transform="translate(83.25,183.8125)"/>
<path d="M0 0 C0.66 0.33 1.32 0.66 2 1 C2 2.98 2 4.96 2 7 C0.02 7.99 0.02 7.99 -2 9 C-1.125 1.125 -1.125 1.125 0 0 Z " fill="#E4E4E5" transform="translate(71,143)"/>
<path d="M0 0 C0.33 0 0.66 0 1 0 C1.05389087 1.95803507 1.09274217 3.91648909 1.125 5.875 C1.14820313 6.96554688 1.17140625 8.05609375 1.1953125 9.1796875 C1 12 1 12 -1 14 C-1.22331199 12.41870971 -1.42804644 10.83478911 -1.625 9.25 C-1.74101562 8.36828125 -1.85703125 7.4865625 -1.9765625 6.578125 C-2.00207817 3.77140122 -1.44843844 2.36615134 0 0 Z " fill="#D0CED1" transform="translate(148,134)"/>
<path d="M0 0 C1.98 0.66 3.96 1.32 6 2 C5.67 4.31 5.34 6.62 5 9 C4.34 8.67 3.68 8.34 3 8 C3 7.01 3 6.02 3 5 C2.01 5.495 2.01 5.495 1 6 C-0.0625 4.125 -0.0625 4.125 -1 2 C-0.67 1.34 -0.34 0.68 0 0 Z " fill="#CFCFD2" transform="translate(61,95)"/>
<path d="M0 0 C2 2 2 2 2 5 C0.68 4.67 -0.64 4.34 -2 4 C-2 6.64 -2 9.28 -2 12 C-2.33 12 -2.66 12 -3 12 C-3.33 8.37 -3.66 4.74 -4 1 C-2.68 0.67 -1.36 0.34 0 0 Z " fill="#C5C5C4" transform="translate(189,91)"/>
<path d="M0 0 C2.625 0.9375 2.625 0.9375 5 2 C5 2.66 5 3.32 5 4 C2.64561267 5.42944945 1.51967567 6.08661261 -1.25 5.625 C-1.8275 5.41875 -2.405 5.2125 -3 5 C-2.625 3.0625 -2.625 3.0625 -2 1 C-1.34 0.67 -0.68 0.34 0 0 Z " fill="#100605" transform="translate(88,26)"/>
<path d="M0 0 C2.475 0.99 2.475 0.99 5 2 C4.67 3.65 4.34 5.3 4 7 C3.01 7.33 2.02 7.66 1 8 C0.26919734 6.02253397 -0.39421747 4.01927511 -1 2 C-0.67 1.34 -0.34 0.68 0 0 Z " fill="#131313" transform="translate(139,177)"/>
<path d="M0 0 C3.63 0 7.26 0 11 0 C11 0.33 11 0.66 11 1 C8.69 1.33 6.38 1.66 4 2 C4 2.66 4 3.32 4 4 C3.01 4.33 2.02 4.66 1 5 C0.34 4.67 -0.32 4.34 -1 4 C-0.67 2.68 -0.34 1.36 0 0 Z " fill="#CFCFCF" transform="translate(172,176)"/>
<path d="M0 0 C0.33 1.32 0.66 2.64 1 4 C1.66 4 2.32 4 3 4 C3.33 5.32 3.66 6.64 4 8 C1 8 1 8 -2 6 C-2.1875 3.375 -2.1875 3.375 -2 1 C-1.34 0.67 -0.68 0.34 0 0 Z " fill="#0E0A0B" transform="translate(58,86)"/>
<path d="M0 0 C1.65 0.33 3.3 0.66 5 1 C5 1.99 5 2.98 5 4 C4.01 4 3.02 4 2 4 C1.67 4.99 1.34 5.98 1 7 C0.34 6.34 -0.32 5.68 -1 5 C-0.625 2.375 -0.625 2.375 0 0 Z " fill="#0F0506" transform="translate(68,53)"/>
<path d="M0 0 C-0.57584432 2.38564077 -1.22227595 4.66682784 -2 7 C-3.32 6.67 -4.64 6.34 -6 6 C-5.6875 4.125 -5.6875 4.125 -5 2 C-2 0 -2 0 0 0 Z " fill="#0D0303" transform="translate(71,61)"/>
<path d="M0 0 C0.99 0.99 1.98 1.98 3 3 C2.34 4.65 1.68 6.3 1 8 C-0.32 7.67 -1.64 7.34 -3 7 C-2.01 4.69 -1.02 2.38 0 0 Z " fill="#171617" transform="translate(178,139)"/>
<path d="M0 0 C0 1.98 0 3.96 0 6 C-0.99 6.495 -0.99 6.495 -2 7 C-2.33 7.66 -2.66 8.32 -3 9 C-3.66 7.35 -4.32 5.7 -5 4 C-1.125 0 -1.125 0 0 0 Z " fill="#1C1B1A" transform="translate(89,71)"/>
<path d="M0 0 C0.433125 0.9590625 0.433125 0.9590625 0.875 1.9375 C1.82823451 4.15206079 1.82823451 4.15206079 4 5 C2.68 5.33 1.36 5.66 0 6 C0 5.34 0 4.68 0 4 C-0.99 4 -1.98 4 -3 4 C-3 3.01 -3 2.02 -3 1 C-2.01 0.67 -1.02 0.34 0 0 Z " fill="#0E0707" transform="translate(96,22)"/>
<path d="M0 0 C0.66 0.99 1.32 1.98 2 3 C1.67 3.99 1.34 4.98 1 6 C-0.98 6.33 -2.96 6.66 -5 7 C-3.35 4.69 -1.7 2.38 0 0 Z " fill="#CFCFCF" transform="translate(180,115)"/>
<path d="M0 0 C0.66 0.33 1.32 0.66 2 1 C1.67 3.97 1.34 6.94 1 10 C0.34 10 -0.32 10 -1 10 C-1.125 3.375 -1.125 3.375 0 0 Z " fill="#FDFBFE" transform="translate(155,104)"/>
<path d="M0 0 C-0.33 0.99 -0.66 1.98 -1 3 C-2.36125 2.9690625 -2.36125 2.9690625 -3.75 2.9375 C-6.42672588 2.9889755 -8.46988052 3.2215017 -11 4 C-10.67 3.01 -10.34 2.02 -10 1 C-6.76421296 -0.31828361 -3.44785988 -0.07836045 0 0 Z " fill="#CBCBCB" transform="translate(175,91)"/>
<path d="M0 0 C1.98 0 3.96 0 6 0 C4.35 1.98 2.7 3.96 1 6 C0.34 5.01 -0.32 4.02 -1 3 C-0.67 2.01 -0.34 1.02 0 0 Z " fill="#40373A" transform="translate(81,35)"/>
<path d="M0 0 C2.76390737 2.40339772 3.04065919 3.16263678 4 7 C0.37 6.67 -3.26 6.34 -7 6 C-7 5.67 -7 5.34 -7 5 C-4.36 5 -1.72 5 1 5 C0.67 3.35 0.34 1.7 0 0 Z " fill="#ADADAD" transform="translate(138,171)"/>
<path d="M0 0 C1.32 1.65 2.64 3.3 4 5 C3.01 5.99 2.02 6.98 1 8 C0.67 6.68 0.34 5.36 0 4 C-0.66 4 -1.32 4 -2 4 C-1.34 2.68 -0.68 1.36 0 0 Z " fill="#BDBCBD" transform="translate(179,156)"/>
<path d="M0 0 C0.45375 0.66 0.9075 1.32 1.375 2 C1.91125 2.66 2.4475 3.32 3 4 C3.66 4 4.32 4 5 4 C5 4.66 5 5.32 5 6 C6.32 6.66 7.64 7.32 9 8 C7.02 8.33 5.04 8.66 3 9 C3 8.01 3 7.02 3 6 C2.34 6 1.68 6 1 6 C0.67 4.02 0.34 2.04 0 0 Z " fill="#DEDDE0" transform="translate(140,40)"/>
<path d="M0 0 C2.475 0.99 2.475 0.99 5 2 C1.375 5 1.375 5 -2 5 C-2 2 -2 2 0 0 Z " fill="#010101" transform="translate(98,186)"/>
<path d="M0 0 C1.75 1.4375 1.75 1.4375 3 3 C0 4 0 4 -3 3 C-3.33 3.66 -3.66 4.32 -4 5 C-4 3.68 -4 2.36 -4 1 C-2.1875 0.3125 -2.1875 0.3125 0 0 Z " fill="#EBEBE9" transform="translate(76,187)"/>
<path d="M0 0 C1.9375 0.6875 1.9375 0.6875 4 2 C4.75 4.625 4.75 4.625 5 7 C3.02 5.68 1.04 4.36 -1 3 C-0.67 2.01 -0.34 1.02 0 0 Z " fill="#AEAEAE" transform="translate(93,177)"/>
<path d="M0 0 C0.33 0 0.66 0 1 0 C1 3.63 1 7.26 1 11 C0.01 11.33 -0.98 11.66 -2 12 C-2.33 10.68 -2.66 9.36 -3 8 C-2.34 8 -1.68 8 -1 8 C-0.67 5.36 -0.34 2.72 0 0 Z " fill="#CFCFD0" transform="translate(93,152)"/>
<path d="M0 0 C0.66 0 1.32 0 2 0 C3.25541557 3.76624671 2.37061958 5.37188934 1 9 C-1.14809171 5.77786243 -1.29386153 4.72224599 -1 1 C-0.67 0.67 -0.34 0.34 0 0 Z " fill="#D0CFD1" transform="translate(114,157)"/>
<path d="M0 0 C0.99 0.33 1.98 0.66 3 1 C3 2.65 3 4.3 3 6 C2.01 6.33 1.02 6.66 0 7 C-1.125 2.25 -1.125 2.25 0 0 Z " fill="#D9D9D9" transform="translate(183,143)"/>
<path d="M0 0 C2 2 2 2 2.1953125 3.9453125 C2.13020833 5.96354167 2.06510417 7.98177083 2 10 C0.00902154 7.01353231 -0.94124926 4.40312738 -2 1 C-1.34 0.67 -0.68 0.34 0 0 Z " fill="#DDDBDC" transform="translate(180,135)"/>
<path d="M0 0 C0.33 0 0.66 0 1 0 C1.33 3.96 1.66 7.92 2 12 C1.01 12.66 0.02 13.32 -1 14 C-0.67 9.38 -0.34 4.76 0 0 Z " fill="#050000" transform="translate(42,95)"/>
<path d="M0 0 C1.33332095 2.6666419 0.67102033 4.16680303 0 7 C-0.99 6.67 -1.98 6.34 -3 6 C-3 6.66 -3 7.32 -3 8 C-3.66 7.67 -4.32 7.34 -5 7 C-1.125 1.125 -1.125 1.125 0 0 Z " fill="#615957" transform="translate(79,32)"/>
<path d="M0 0 C5.53846154 0.61538462 5.53846154 0.61538462 7.875 2.5625 C8.431875 3.2740625 8.431875 3.2740625 9 4 C6 5 6 5 3.8125 4.0625 C3.214375 3.711875 2.61625 3.36125 2 3 C2 2.34 2 1.68 2 1 C1.34 0.67 0.68 0.34 0 0 Z " fill="#707070" transform="translate(131,20)"/>
<path d="M0 0 C0.33 0 0.66 0 1 0 C1.33 2.31 1.66 4.62 2 7 C0.1875 8.0625 0.1875 8.0625 -2 9 C-2.99 8.67 -3.98 8.34 -5 8 C-4.360625 7.608125 -3.72125 7.21625 -3.0625 6.8125 C-0.56221181 4.61527704 -0.35049575 3.24208567 0 0 Z " fill="#8D8B8F" transform="translate(167,120)"/>
<path d="M0 0 C0.66 0.33 1.32 0.66 2 1 C1.43628586 4.26954202 0.50037734 5.82575883 -2 8 C-2 5.69 -2 3.38 -2 1 C-1.34 0.67 -0.68 0.34 0 0 Z " fill="#090203" transform="translate(39,94)"/>
<path d="M0 0 C0.99 0.66 1.98 1.32 3 2 C3 2.66 3 3.32 3 4 C1.35 4.33 -0.3 4.66 -2 5 C-1.125 1.125 -1.125 1.125 0 0 Z " fill="#080404" transform="translate(90,49)"/>
<path d="M0 0 C1.65 0.33 3.3 0.66 5 1 C4.01 1.33 3.02 1.66 2 2 C2.33 2.99 2.66 3.98 3 5 C1.35 4.67 -0.3 4.34 -2 4 C-1.34 2.68 -0.68 1.36 0 0 Z " fill="#232323" transform="translate(133,24)"/>
<path d="M0 0 C0.99 0.33 1.98 0.66 3 1 C2.01 1.33 1.02 1.66 0 2 C0 1.34 0 0.68 0 0 Z M-2 2 C-1.01 2.33 -0.02 2.66 1 3 C0.01 3.495 0.01 3.495 -1 4 C-1 4.66 -1 5.32 -1 6 C-1.99 5.67 -2.98 5.34 -4 5 C-4 4.34 -4 3.68 -4 3 C-3.34 2.67 -2.68 2.34 -2 2 Z " fill="#110F12" transform="translate(57,124)"/>
<path d="M0 0 C2.56687367 3.8503105 1.83288724 5.58569763 1 10 C0.34 9.34 -0.32 8.68 -1 8 C-0.96712417 5.27130593 -0.43602229 2.7033382 0 0 Z " fill="#3D3636" transform="translate(66,55)"/>
<path d="M0 0 C0.99 0 1.98 0 3 0 C1.92598892 2.91517292 1.22189824 4.77810176 -1 7 C-1.04254356 5.00045254 -1.04080783 2.99958364 -1 1 C-0.67 0.67 -0.34 0.34 0 0 Z " fill="#5A5453" transform="translate(78,41)"/>
</svg>
