<?xml version="1.0" encoding="UTF-8"?>
<svg version="1.1" xmlns="http://www.w3.org/2000/svg" width="444" height="562">
<path d="M0 0 C4.48455563 4.48455563 3.05464763 14.19582276 3.0625 20.25 C3.04684498 21.833393 3.02804921 23.41677806 3 25 C3.86625 25.103125 4.7325 25.20625 5.625 25.3125 C11.16870923 26.4417741 15.41820864 28.58245732 19 33 C22.70620057 39.39682306 24.13688054 44.31194617 24.0625 51.75 C24.05347656 52.92046875 24.04445312 54.0909375 24.03515625 55.296875 C24.01775391 56.63492188 24.01775391 56.63492188 24 58 C24.67804688 57.95359375 25.35609375 57.9071875 26.0546875 57.859375 C34.11812567 57.54666549 39.86730504 59.43365252 47 63 C47 63.66 47 64.32 47 65 C47.66 65 48.32 65 49 65 C53.61972336 72.59606687 55.2689601 80.19820797 56.64404297 88.83300781 C57.25754245 92.56786474 57.97868713 96.28228066 58.6875 100 C58.9418762 101.35407847 59.19582729 102.70823691 59.44921875 104.0625 C59.72185547 105.5165625 59.72185547 105.5165625 60 107 C60.55945313 107.13535156 61.11890625 107.27070313 61.6953125 107.41015625 C69.66470582 109.54984867 76.74113897 113.16481946 84 117 C84.95132812 117.49757813 85.90265625 117.99515625 86.8828125 118.5078125 C105.8861125 128.64659938 105.8861125 128.64659938 112 135 C113.44507128 136.14198517 114.90454756 137.26588741 116.375 138.375 C125.88186791 145.90714758 135.33822081 154.81139654 142 165 C142 165.66 142 166.32 142 167 C142.99 167.33 143.98 167.66 145 168 C146.38671875 169.99609375 146.38671875 169.99609375 147.6875 172.4375 C148.12449219 173.24058594 148.56148438 174.04367188 149.01171875 174.87109375 C150 177 150 177 150 179 C150.66 179 151.32 179 152 179 C152.95494795 180.9098959 153.90967193 182.81990412 154.86328125 184.73046875 C155.564771 186.13103764 156.2697683 187.52986364 156.98046875 188.92578125 C158.00356614 190.94274467 159.00615276 192.96845931 160 195 C160.391875 195.79921875 160.78375 196.5984375 161.1875 197.421875 C177.44960513 231.77557209 179.68545948 271.57583628 172.0625 308.5 C171.90491211 309.27053711 171.74732422 310.04107422 171.58496094 310.83496094 C170.59765431 315.28476575 169.12008009 318.93553706 167 323 C166.2863276 326.73771834 166.2863276 326.73771834 166 330 C166.66 330 167.32 330 168 330 C177.18675793 348.16540161 179.94394867 366.11707312 174 386 C170.99355401 393.75663066 166.93944199 402.07894638 161 408 C160.34 408 159.68 408 159 408 C158.7525 408.61875 158.505 409.2375 158.25 409.875 C156.79371361 412.35068687 155.62187494 412.95125002 153 414 C153 414.66 153 415.32 153 416 C151.68 416.33 150.36 416.66 149 417 C149 417.66 149 418.32 149 419 C132.71303221 427.89906487 116.23161466 429.38380052 98.1484375 425 C93.47473249 423.51554779 89.22985818 421.4657929 85 419 C85.32484375 420.0209375 85.32484375 420.0209375 85.65625 421.0625 C89.90439591 435.85234132 89.37931078 451.18690442 82.45703125 465.1015625 C77.04396209 474.0944417 70.21241854 480.98656201 61 486 C60.37480469 486.34675781 59.74960937 486.69351562 59.10546875 487.05078125 C40.8845225 496.66223762 21.83838094 498.67366859 1.57885742 498.52148438 C-1.79777371 498.50009329 -5.17226222 498.52136742 -8.54882812 498.546875 C-28.11300428 498.57241092 -46.14090845 496.30799967 -64 488 C-65.63582031 487.27103516 -65.63582031 487.27103516 -67.3046875 486.52734375 C-73.59406557 483.58654976 -79.37128755 480.28217774 -84 475 C-84 474.34 -84 473.68 -84 473 C-84.5775 472.814375 -85.155 472.62875 -85.75 472.4375 C-89.07295125 470.31450337 -90.38991669 467.47406437 -92 464 C-92.56460938 462.86884766 -92.56460938 462.86884766 -93.140625 461.71484375 C-96.16752427 454.47799655 -96.39264619 447.5834222 -96.4375 439.8125 C-96.44749023 438.79099854 -96.45748047 437.76949707 -96.46777344 436.71704102 C-96.39485094 430.29517374 -95.45193646 424.94349397 -93 419 C-93.85980469 419.40992188 -94.71960938 419.81984375 -95.60546875 420.2421875 C-113.10496134 428.21905544 -131.31880393 429.40967026 -149.68359375 423.07421875 C-157.48151082 419.64313524 -167.78075742 412.14391723 -171 404 C-171.66 404 -172.32 404 -173 404 C-182.74641148 387.12256629 -188.86106632 369.14964984 -184.015625 349.51171875 C-179.43995568 333.43995568 -179.43995568 333.43995568 -175 329 C-174.58079187 323.96950248 -175.42399168 320.43813422 -177.13671875 315.73828125 C-178.61901103 311.03653061 -179.43447744 306.19235288 -180.3515625 301.35546875 C-180.68844331 299.61221205 -181.03625696 297.86779857 -181.50585938 296.15551758 C-183.69454665 286.60812631 -183.1559671 276.23399297 -183.125 266.5 C-183.12886719 265.28441406 -183.13273437 264.06882812 -183.13671875 262.81640625 C-183.12427476 251.15638862 -182.60312442 239.899772 -179.75 228.5625 C-179.41730103 227.21200562 -179.41730103 227.21200562 -179.07788086 225.83422852 C-176.04939413 213.86041998 -171.71716781 202.95426809 -166 192 C-164.99891559 189.93802613 -163.99891201 187.87552716 -163 185.8125 C-159.81972067 179.45194133 -156.14339347 173.66475945 -151.6875 168.125 C-149.81525527 166.01631216 -149.81525527 166.01631216 -149 163 C-147.36364208 161.303566 -145.69156462 159.64139109 -144 158 C-142.71664827 156.55124735 -141.43353935 155.10226399 -140.15649414 153.64794922 C-131.67623448 144.08870495 -121.43533163 133.93879101 -110 128 C-109.34 128 -108.68 128 -108 128 C-108 127.34 -108 126.68 -108 126 C-106.68 126 -105.36 126 -104 126 C-104 125.34 -104 124.68 -104 124 C-90 117 -90 117 -86.89453125 115.44921875 C-85.16061668 114.58109148 -83.4282853 113.70977471 -81.69921875 112.83203125 C-76.28934158 110.09032651 -70.93807077 107.3812469 -65 106 C-64.94392578 104.27716797 -64.94392578 104.27716797 -64.88671875 102.51953125 C-64.51258069 93.05465605 -63.72319818 84.13461136 -61 75 C-60.69449219 73.95779297 -60.69449219 73.95779297 -60.3828125 72.89453125 C-58.58306325 67.86189909 -55.42727799 63.91883574 -51 61 C-44.72810466 58.789606 -38.63908086 57.83027914 -32 58 C-32.0309375 56.0509375 -32.0309375 56.0509375 -32.0625 54.0625 C-32.01804629 44.6234956 -31.31197354 38.38996692 -25.25 30.8125 C-20.83501436 27.25598379 -16.71071822 25 -11 25 C-11.01047363 24.34926514 -11.02094727 23.69853027 -11.03173828 23.02807617 C-11.07329835 20.0812567 -11.09932608 17.13449889 -11.125 14.1875 C-11.14175781 13.16333984 -11.15851563 12.13917969 -11.17578125 11.08398438 C-11.18222656 10.10107422 -11.18867188 9.11816406 -11.1953125 8.10546875 C-11.20578613 7.19949951 -11.21625977 6.29353027 -11.22705078 5.36010742 C-11 3 -11 3 -9 0 C-5.47955362 -1.17348213 -3.57539179 -0.83679382 0 0 Z " fill="#FCFCFC" transform="translate(226,32)"/>
<path d="M0 0 C4.48455563 4.48455563 3.05464763 14.19582276 3.0625 20.25 C3.04684498 21.833393 3.02804921 23.41677806 3 25 C3.86625 25.103125 4.7325 25.20625 5.625 25.3125 C11.16870923 26.4417741 15.41820864 28.58245732 19 33 C22.70620057 39.39682306 24.13688054 44.31194617 24.0625 51.75 C24.05347656 52.92046875 24.04445312 54.0909375 24.03515625 55.296875 C24.01775391 56.63492188 24.01775391 56.63492188 24 58 C24.67804688 57.95359375 25.35609375 57.9071875 26.0546875 57.859375 C34.11812567 57.54666549 39.86730504 59.43365252 47 63 C47 63.66 47 64.32 47 65 C47.66 65 48.32 65 49 65 C53.61972336 72.59606687 55.2689601 80.19820797 56.64404297 88.83300781 C57.25754245 92.56786474 57.97868713 96.28228066 58.6875 100 C58.9418762 101.35407847 59.19582729 102.70823691 59.44921875 104.0625 C59.72185547 105.5165625 59.72185547 105.5165625 60 107 C60.55945313 107.13535156 61.11890625 107.27070313 61.6953125 107.41015625 C69.66470582 109.54984867 76.74113897 113.16481946 84 117 C84.95132812 117.49757813 85.90265625 117.99515625 86.8828125 118.5078125 C105.8861125 128.64659938 105.8861125 128.64659938 112 135 C113.44507128 136.14198517 114.90454756 137.26588741 116.375 138.375 C125.88186791 145.90714758 135.33822081 154.81139654 142 165 C142 165.66 142 166.32 142 167 C142.99 167.33 143.98 167.66 145 168 C146.38671875 169.99609375 146.38671875 169.99609375 147.6875 172.4375 C148.12449219 173.24058594 148.56148438 174.04367188 149.01171875 174.87109375 C150 177 150 177 150 179 C150.66 179 151.32 179 152 179 C152.95494795 180.9098959 153.90967193 182.81990412 154.86328125 184.73046875 C155.564771 186.13103764 156.2697683 187.52986364 156.98046875 188.92578125 C158.00356614 190.94274467 159.00615276 192.96845931 160 195 C160.391875 195.79921875 160.78375 196.5984375 161.1875 197.421875 C177.44960513 231.77557209 179.68545948 271.57583628 172.0625 308.5 C171.90491211 309.27053711 171.74732422 310.04107422 171.58496094 310.83496094 C170.59765431 315.28476575 169.12008009 318.93553706 167 323 C166.2863276 326.73771834 166.2863276 326.73771834 166 330 C166.66 330 167.32 330 168 330 C177.18675793 348.16540161 179.94394867 366.11707312 174 386 C170.99355401 393.75663066 166.93944199 402.07894638 161 408 C160.34 408 159.68 408 159 408 C158.7525 408.61875 158.505 409.2375 158.25 409.875 C156.79371361 412.35068687 155.62187494 412.95125002 153 414 C153 414.66 153 415.32 153 416 C151.68 416.33 150.36 416.66 149 417 C149 417.66 149 418.32 149 419 C132.71303221 427.89906487 116.23161466 429.38380052 98.1484375 425 C93.47473249 423.51554779 89.22985818 421.4657929 85 419 C85.32484375 420.0209375 85.32484375 420.0209375 85.65625 421.0625 C89.90439591 435.85234132 89.37931078 451.18690442 82.45703125 465.1015625 C77.04396209 474.0944417 70.21241854 480.98656201 61 486 C60.37480469 486.34675781 59.74960937 486.69351562 59.10546875 487.05078125 C40.8845225 496.66223762 21.83838094 498.67366859 1.57885742 498.52148438 C-1.79777371 498.50009329 -5.17226222 498.52136742 -8.54882812 498.546875 C-28.11300428 498.57241092 -46.14090845 496.30799967 -64 488 C-65.63582031 487.27103516 -65.63582031 487.27103516 -67.3046875 486.52734375 C-73.59406557 483.58654976 -79.37128755 480.28217774 -84 475 C-84 474.34 -84 473.68 -84 473 C-84.5775 472.814375 -85.155 472.62875 -85.75 472.4375 C-89.07295125 470.31450337 -90.38991669 467.47406437 -92 464 C-92.56460938 462.86884766 -92.56460938 462.86884766 -93.140625 461.71484375 C-96.16752427 454.47799655 -96.39264619 447.5834222 -96.4375 439.8125 C-96.44749023 438.79099854 -96.45748047 437.76949707 -96.46777344 436.71704102 C-96.39485094 430.29517374 -95.45193646 424.94349397 -93 419 C-93.85980469 419.40992188 -94.71960938 419.81984375 -95.60546875 420.2421875 C-113.10496134 428.21905544 -131.31880393 429.40967026 -149.68359375 423.07421875 C-157.48151082 419.64313524 -167.78075742 412.14391723 -171 404 C-171.66 404 -172.32 404 -173 404 C-182.74641148 387.12256629 -188.86106632 369.14964984 -184.015625 349.51171875 C-179.43995568 333.43995568 -179.43995568 333.43995568 -175 329 C-174.58079187 323.96950248 -175.42399168 320.43813422 -177.13671875 315.73828125 C-178.61901103 311.03653061 -179.43447744 306.19235288 -180.3515625 301.35546875 C-180.68844331 299.61221205 -181.03625696 297.86779857 -181.50585938 296.15551758 C-183.69454665 286.60812631 -183.1559671 276.23399297 -183.125 266.5 C-183.12886719 265.28441406 -183.13273437 264.06882812 -183.13671875 262.81640625 C-183.12427476 251.15638862 -182.60312442 239.899772 -179.75 228.5625 C-179.41730103 227.21200562 -179.41730103 227.21200562 -179.07788086 225.83422852 C-176.04939413 213.86041998 -171.71716781 202.95426809 -166 192 C-164.99891559 189.93802613 -163.99891201 187.87552716 -163 185.8125 C-159.81972067 179.45194133 -156.14339347 173.66475945 -151.6875 168.125 C-149.81525527 166.01631216 -149.81525527 166.01631216 -149 163 C-147.36364208 161.303566 -145.69156462 159.64139109 -144 158 C-142.71664827 156.55124735 -141.43353935 155.10226399 -140.15649414 153.64794922 C-131.67623448 144.08870495 -121.43533163 133.93879101 -110 128 C-109.34 128 -108.68 128 -108 128 C-108 127.34 -108 126.68 -108 126 C-106.68 126 -105.36 126 -104 126 C-104 125.34 -104 124.68 -104 124 C-90 117 -90 117 -86.89453125 115.44921875 C-85.16061668 114.58109148 -83.4282853 113.70977471 -81.69921875 112.83203125 C-76.28934158 110.09032651 -70.93807077 107.3812469 -65 106 C-64.94392578 104.27716797 -64.94392578 104.27716797 -64.88671875 102.51953125 C-64.51258069 93.05465605 -63.72319818 84.13461136 -61 75 C-60.69449219 73.95779297 -60.69449219 73.95779297 -60.3828125 72.89453125 C-58.58306325 67.86189909 -55.42727799 63.91883574 -51 61 C-44.72810466 58.789606 -38.63908086 57.83027914 -32 58 C-32.0309375 56.0509375 -32.0309375 56.0509375 -32.0625 54.0625 C-32.01804629 44.6234956 -31.31197354 38.38996692 -25.25 30.8125 C-20.83501436 27.25598379 -16.71071822 25 -11 25 C-11.01047363 24.34926514 -11.02094727 23.69853027 -11.03173828 23.02807617 C-11.07329835 20.0812567 -11.09932608 17.13449889 -11.125 14.1875 C-11.14175781 13.16333984 -11.15851563 12.13917969 -11.17578125 11.08398438 C-11.18222656 10.10107422 -11.18867188 9.11816406 -11.1953125 8.10546875 C-11.20578613 7.19949951 -11.21625977 6.29353027 -11.22705078 5.36010742 C-11 3 -11 3 -9 0 C-5.47955362 -1.17348213 -3.57539179 -0.83679382 0 0 Z M-33 117 C-33.598125 117.61875 -34.19625 118.2375 -34.8125 118.875 C-38.30056655 122.2634075 -40.99837004 122.90147902 -45.8125 123.375 C-50.53806811 123.27617633 -55.60290527 121.39709473 -59 118 C-67.34307227 117.6642073 -74.08080167 120.89961972 -81.375 124.5625 C-82.48335205 125.10898193 -83.5917041 125.65546387 -84.73364258 126.21850586 C-92.2577383 129.98471681 -99.29648559 133.89115421 -106 139 C-107.08448015 139.79057762 -108.16912522 140.58092903 -109.25390625 141.37109375 C-132.53627332 158.66694194 -152.20249286 182.46339404 -162 210 C-162.38542969 210.92554688 -162.77085937 211.85109375 -163.16796875 212.8046875 C-176.20013129 245.60563814 -174.6876701 282.53350328 -165 316 C-158.9499612 313.75777071 -156.76761746 307.42530618 -154 302 C-148.89963415 290.65330002 -146.31527448 278.42650023 -147 266 C-144 268 -144 268 -143.32519531 269.81958008 C-142.68812809 274.09108709 -142.77279325 278.37672593 -142.75 282.6875 C-142.729375 283.64333984 -142.70875 284.59917969 -142.6875 285.58398438 C-142.65268204 291.96872808 -143.53577633 297.11409329 -146 303 C-146.38961914 303.9446814 -146.38961914 303.9446814 -146.78710938 304.90844727 C-147.60055525 306.77972084 -148.46967436 308.60897104 -149.375 310.4375 C-149.70806152 311.11288818 -150.04112305 311.78827637 -150.38427734 312.48413086 C-153.27777991 318.09454629 -156.82582933 323.03520026 -160.625 328.0625 C-170.37518161 340.97501558 -175.65966414 354.63502798 -174 371 C-171.58246016 385.07028416 -164.30401625 398.40842677 -153.19140625 407.453125 C-145.5668501 412.83516463 -137.69538485 415.28449139 -128.3125 415.3125 C-127.02988281 415.32925781 -125.74726562 415.34601563 -124.42578125 415.36328125 C-112.45698494 414.73107759 -102.52691186 409.55546903 -92.20898438 403.9675293 C-84.27050429 399.69571604 -77.0692568 396.82325099 -68 396 C-68 396.99 -68 397.98 -68 399 C-68.58394531 399.2475 -69.16789062 399.495 -69.76953125 399.75 C-72.32931647 401.18455564 -73.79523301 402.76704286 -75.6875 405 C-76.28949219 405.70125 -76.89148438 406.4025 -77.51171875 407.125 C-79.40465211 409.50979793 -79.96810564 410.76079231 -80.375 413.8125 C-79.86764485 418.12501875 -78.30586084 419.26907148 -75 422 C-71.34815827 424.95957938 -71.34815827 424.95957938 -67 426 C-66.75765625 425.34773438 -66.5153125 424.69546875 -66.265625 424.0234375 C-63.42687844 416.62085993 -61.12063546 411.02368692 -54 407 C-54.45321328 409.06363112 -54.91279106 411.12586507 -55.375 413.1875 C-55.75785156 414.91033203 -55.75785156 414.91033203 -56.1484375 416.66796875 C-57 420 -57 420 -58.1015625 422.61328125 C-59.08739487 425.23216637 -59.15855016 427.22537213 -59 430 C-56.62734939 430.67617524 -54.25244645 431.34108226 -51.875 432 C-50.87726563 432.28617187 -50.87726563 432.28617187 -49.859375 432.578125 C-45.8013795 433.69208455 -42.20314026 434.20950232 -38 434 C-37.85304687 432.69675781 -37.85304687 432.69675781 -37.703125 431.3671875 C-36.19122462 419.7151277 -36.19122462 419.7151277 -32 415 C-31.34 414.67 -30.68 414.34 -30 414 C-30.33 420.93 -30.66 427.86 -31 435 C-23.29509996 435.72516706 -15.73732806 436.13707865 -8 436 C-7.95101562 435.04738281 -7.90203125 434.09476562 -7.8515625 433.11328125 C-7.77679688 431.85902344 -7.70203125 430.60476563 -7.625 429.3125 C-7.52058594 427.45044922 -7.52058594 427.45044922 -7.4140625 425.55078125 C-7.03577906 422.30682228 -6.38020024 419.93432815 -5 417 C-4.34 417 -3.68 417 -3 417 C-1.35993952 423.66957927 -0.48641215 430.15182898 0 437 C2.89611544 436.85865273 5.7918081 436.7120847 8.6875 436.5625 C9.50412109 436.52318359 10.32074219 436.48386719 11.16210938 436.44335938 C15.19655811 436.23101997 19.05747309 435.95552078 23 435 C23.10152799 428.2314676 23.03026944 421.69675136 22 415 C22.99 415 23.98 415 25 415 C27.44651001 420.83398542 29.53410101 426.84322424 31 433 C38.12384541 433.66268329 44.30879185 431.25388064 51 429 C50.39700836 421.76410027 48.8849413 415.00629124 47 408 C50.29792089 408.99531847 51.53076957 410.58445575 53.140625 413.4765625 C53.85549122 414.85334188 54.55828445 416.23644508 55.25 417.625 C55.61351562 418.33140625 55.97703125 419.0378125 56.3515625 419.765625 C57.24480617 421.50509952 58.12380998 423.25187331 59 425 C63.52488163 424.24713345 66.31392509 422.78503438 70 420 C72.05437079 416.91844381 72.65126894 414.95405509 72.58984375 411.26171875 C71.35707544 406.53474622 67.41430429 403.30985138 64 400 C63 399 62 398 61 397 C67.53171366 397.89837486 73.18468548 398.71956617 79 402 C79.99 402 80.98 402 82 402 C82 402.66 82 403.32 82 404 C94.22508683 410.30159115 104.46568199 415.16379413 118.3125 415.25 C119.53743164 415.2809375 119.53743164 415.2809375 120.78710938 415.3125 C126.47775578 415.34877504 130.83772166 414.35933084 136 412 C136.93585938 411.5978125 137.87171875 411.195625 138.8359375 410.78125 C149.8657059 405.21545918 158.20259269 395.85712025 162.484375 384.23046875 C167.00988288 370.4114462 168.62864802 356.56173604 162.54296875 342.94140625 C159.40737861 336.96393948 155.77259001 331.46246288 151.83203125 325.98828125 C147.58134538 320.04024749 143.84056037 314.15460534 140.5625 307.625 C140.23258057 306.97120361 139.90266113 306.31740723 139.56274414 305.64379883 C135.98301056 298.29434842 134.65538791 291.63078175 134.6875 283.5 C134.67138672 282.68402344 134.65527344 281.86804688 134.63867188 281.02734375 C134.63432271 275.60828696 135.41105756 271.78733881 138 267 C138.66 266.67 139.32 266.34 140 266 C139.95359375 266.65742188 139.9071875 267.31484375 139.859375 267.9921875 C139.17778027 285.95707709 145.14877877 301.22316815 155 316 C155.66 316 156.32 316 157 316 C157.8066678 313.62925875 158.59497218 311.25452308 159.375 308.875 C159.59671875 308.22917969 159.8184375 307.58335937 160.046875 306.91796875 C164.07937715 294.46465328 164.34853772 281.69102269 164.31567383 268.73291016 C164.31251255 266.13531498 164.3360744 263.5388619 164.36132812 260.94140625 C164.41585918 246.78341346 162.4596027 233.64633272 158.3125 220.0625 C158.06266357 219.23548584 157.81282715 218.40847168 157.55541992 217.55639648 C154.35952361 207.41264678 150.02612708 196.81002804 144 188 C143.34 188 142.68 188 142 188 C141.79375 187.01 141.5875 186.02 141.375 185 C139.98626636 180.18765218 137.12526408 176.83208656 134 173 C133.38769531 172.21496094 132.77539062 171.42992187 132.14453125 170.62109375 C113.8217019 147.25125752 90.88148882 130.98613199 63.25 120.296875 C60 119 60 119 57.7109375 117.8203125 C55.11693509 116.57661271 53.69625958 117.10124681 51 118 C48.97543152 119.29572383 46.97321053 120.6273318 45 122 C40.67339294 123.44220235 36.30321099 124.02158552 32.0625 122.140625 C30.35576465 121.12541173 28.67671228 120.06406741 27 119 C24.98366695 117.86693843 24.98366695 117.86693843 23 118 C20.40144575 119.84550034 20.40144575 119.84550034 18 122 C13.38294737 123.53901754 8.82182468 123.53192049 4 123 C0.5625 121 0.5625 121 -2 119 C-6.01301448 118.58353663 -6.01301448 118.58353663 -8.5 121 C-12.98854675 124.22578424 -18.73780896 123.7861416 -24 123 C-27.47620659 121.30392765 -28.82708934 120.25936599 -31 117 C-31.66 117 -32.32 117 -33 117 Z " fill="#0A0C0A" transform="translate(226,32)"/>
<path d="M0 0 C12.48732159 7.97383186 21.65794295 19.47377835 25 34 C25.32443307 37.60815414 25.37006318 41.19134189 25.375 44.8125 C25.39949219 45.74642578 25.42398438 46.68035156 25.44921875 47.64257812 C25.50177741 60.26541537 19.27004128 71.61700611 10.75 80.75 C-0.59853616 91.33518171 -13.28898635 95.37118785 -28.55859375 95.21484375 C-44.02291537 94.24942072 -55.67373553 87.10110683 -66 76 C-68.35908371 72.80666272 -70.26797474 69.56809445 -72 66 C-72.31324219 65.36191406 -72.62648438 64.72382813 -72.94921875 64.06640625 C-78.08020464 52.8282957 -79.05898845 39.43725181 -75.4375 27.5625 C-69.02897358 11.27040115 -57.98757522 1.6555824 -42.24609375 -5.19921875 C-28.15276106 -8.67591334 -12.69571864 -6.86769555 0 0 Z " fill="#030504" transform="translate(168,315)"/>
<path d="M0 0 C9.54644458 7.66746184 18.05717303 17.25316904 20.0625 29.71484375 C21.8673898 46.83723162 20.49235073 60.50434423 9.55078125 74.54296875 C0.70019659 84.84935051 -11.07193341 91.00816361 -24.5390625 92.9765625 C-38.08819859 93.99593324 -47.73799002 91.32905471 -59.5390625 84.9765625 C-59.5390625 84.3165625 -59.5390625 83.6565625 -59.5390625 82.9765625 C-60.0959375 82.7496875 -60.6528125 82.5228125 -61.2265625 82.2890625 C-71.52047615 76.44657097 -76.65411606 64.56841974 -80.5390625 53.9765625 C-83.84070698 41.14788365 -81.21164755 28.09769668 -74.7890625 16.7265625 C-66.21967479 3.54124526 -55.00415406 -4.72780629 -39.6640625 -8.2109375 C-25.86151796 -10.65775221 -11.55212746 -8.15240226 0 0 Z " fill="#030504" transform="translate(332.5390625,317.0234375)"/>
<path d="M0 0 C1.33333333 0.66666667 2.66666667 1.33333333 4 2 C4.89976562 2.41894531 5.79953125 2.83789062 6.7265625 3.26953125 C14.44317815 7.37743311 14.44317815 7.37743311 16.08984375 12.17578125 C16.5625 15.625 16.5625 15.625 16.75390625 18.9140625 C17.00443886 22.05566185 17.51353548 24.2272682 19 27 C19.99 27.33 20.98 27.66 22 28 C22.33 23.05 22.66 18.1 23 13 C25.31 13.33 27.62 13.66 30 14 C31.20140625 14.15597656 32.4028125 14.31195313 33.640625 14.47265625 C43.18026861 16.03162398 43.18026861 16.03162398 45.46484375 18.73046875 C46.2130686 20.82145387 46.62425575 22.81348822 47 25 C48.50363431 29.79999547 48.50363431 29.79999547 52 33 C52 28.38 52 23.76 52 19 C59.59 19.33 67.18 19.66 75 20 C76.03155469 23.61044142 77.05452662 27.22537668 77.9375 30.875 C78.288125 31.90625 78.63875 32.9375 79 34 C80.485 34.495 80.485 34.495 82 35 C82.13277344 34.00097656 82.26554687 33.00195312 82.40234375 31.97265625 C82.57894531 30.68230469 82.75554687 29.39195312 82.9375 28.0625 C83.11152344 26.77472656 83.28554687 25.48695313 83.46484375 24.16015625 C84 21 84 21 85 20 C86.70772358 19.91286169 88.41898649 19.89299993 90.12890625 19.90234375 C91.68061523 19.90717773 91.68061523 19.90717773 93.26367188 19.91210938 C94.35228516 19.92048828 95.44089844 19.92886719 96.5625 19.9375 C98.2012207 19.94426758 98.2012207 19.94426758 99.87304688 19.95117188 C102.58205432 19.9630016 105.2910338 19.98093769 108 20 C108 24.29 108 28.58 108 33 C108.99 33 109.98 33 111 33 C111.13535156 32.45730469 111.27070313 31.91460937 111.41015625 31.35546875 C111.60480469 30.57816406 111.79945313 29.80085938 112 29 C112.22558594 28.08863281 112.45117188 27.17726563 112.68359375 26.23828125 C112.93238281 25.27277344 113.18117188 24.30726563 113.4375 23.3125 C113.68371094 22.33925781 113.92992187 21.36601562 114.18359375 20.36328125 C115 18 115 18 117 17 C119.05656733 16.6318313 121.12053971 16.30445445 123.1875 16 C124.93160156 15.74089844 124.93160156 15.74089844 126.7109375 15.4765625 C127.79632813 15.31929688 128.88171875 15.16203125 130 15 C130.79664063 14.88398438 131.59328125 14.76796875 132.4140625 14.6484375 C133.94214485 14.42834333 135.47096203 14.21335414 137 14 C138.5912689 18.873261 139.21192221 22.80790596 139 28 C141.36170242 25.8529978 142.81302506 23.97005183 144 21 C143.970094 19.24913967 143.90492994 17.49867463 143.8125 15.75 C143.99609375 12.8359375 143.99609375 12.8359375 145 10 C149.72501179 5.91665648 155.06600129 2.97799957 161 1 C163.66928471 9.9119667 162.3711795 19.49876473 159 28 C158.74476563 28.68578125 158.48953125 29.3715625 158.2265625 30.078125 C152.88482795 42.5258367 141.60161664 47.71270586 130 53 C129.35163681 53.33741714 128.70327362 53.67483429 128.03526306 54.0224762 C114.60458576 60.47314442 98.57501963 60.77698174 84.0065918 60.59692383 C80.93510426 60.56247313 77.86649304 60.57639429 74.79492188 60.59570312 C52.10879796 60.58050866 26.3106407 57.22505815 9 41 C0.1308788 31.03451142 -1.72897831 21.0387711 -1 8 C-0.75743365 5.30347071 -0.4198184 2.6763423 0 0 Z " fill="#F8F9F9" transform="translate(142,459)"/>
<path d="M0 0 C0.73031937 -0.0065712 1.46063873 -0.0131424 2.21308899 -0.01991272 C4.63595683 -0.03966117 7.05876255 -0.05131366 9.48168945 -0.0612793 C10.30959299 -0.06535482 11.13749653 -0.06943035 11.99048805 -0.07362938 C16.37516659 -0.09449989 20.75981377 -0.10879554 25.14453125 -0.11816406 C29.66613273 -0.12921139 34.18723975 -0.16358876 38.7086668 -0.20333576 C42.19091177 -0.22953216 45.67303969 -0.23785872 49.15537453 -0.24144554 C50.82148376 -0.24630622 52.48758795 -0.25790545 54.15360069 -0.27648354 C56.49211636 -0.30093312 58.82936337 -0.29989963 61.16796875 -0.29296875 C61.85031586 -0.30577881 62.53266296 -0.31858887 63.23568726 -0.33178711 C68.59152271 -0.27423607 71.6010414 1.20729186 75.9074707 4.17700195 C79.41483145 10.00485082 80.06029929 16.65916992 81.0949707 23.30200195 C81.2722168 24.37321289 81.44946289 25.44442383 81.63208008 26.5480957 C83.21450579 36.36035707 83.21450579 36.36035707 82.9074707 40.17700195 C79.9117128 43.25835294 77.25951015 45.06820097 72.9074707 45.17700195 C68.78085944 43.56661707 66.81225173 41.11716486 64.75512695 37.2277832 C63.28217535 33.6641906 62.56033681 29.96534345 61.9074707 26.17700195 C58.43599228 25.42743038 58.43599228 25.42743038 54.9074707 25.17700195 C54.78629883 26.2134082 54.66512695 27.24981445 54.5402832 28.31762695 C54.3713989 29.68746633 54.20210659 31.05725545 54.0324707 32.42700195 C53.95383789 33.10891602 53.87520508 33.79083008 53.79418945 34.4934082 C53.34429904 38.05792452 52.92736263 41.15464514 50.9074707 44.17700195 C47.77886575 45.74130443 45.35144146 45.53327479 41.9074707 45.17700195 C37.9477764 41.65727368 36.52319773 37.08154611 34.9074707 32.17700195 C34.5155957 31.02200195 34.1237207 29.86700195 33.7199707 28.67700195 C33.4518457 27.85200195 33.1837207 27.02700195 32.9074707 26.17700195 C31.2574707 26.50700195 29.6074707 26.83700195 27.9074707 27.17700195 C27.66512695 28.22500977 27.4227832 29.27301758 27.1730957 30.3527832 C26.83535621 31.73188615 26.49677003 33.11078194 26.1574707 34.48950195 C25.92157227 35.52494141 25.92157227 35.52494141 25.6809082 36.58129883 C24.89727599 39.70075781 24.25747222 41.82909625 21.95043945 44.12231445 C18.96402744 45.66405679 17.21957084 45.78534688 13.9074707 45.17700195 C8.62631475 40.85605617 8.07882595 36.29012014 7.2668457 29.6887207 C7.17311001 27.24269933 7.17311001 27.24269933 5.9074707 26.17700195 C4.24129955 26.13636363 2.57358975 26.13428095 0.9074707 26.17700195 C0.66963867 27.2462793 0.66963867 27.2462793 0.42700195 28.3371582 C-1.10087204 34.60903875 -2.46734333 39.55181599 -7.0925293 44.17700195 C-10.19999577 45.05268722 -11.77845892 44.76498218 -15.0925293 44.17700195 C-17.75703492 41.75527589 -18.08555322 40.2340675 -18.52612305 36.63012695 C-18.54978649 35.22928453 -18.54977368 33.82790509 -18.5300293 32.42700195 C-18.52318115 31.68345459 -18.51633301 30.93990723 -18.50927734 30.17382812 C-18.2107566 19.58025476 -16.59546368 9.05803697 -9.0925293 1.17700195 C-6.16443272 -0.28704633 -3.21076032 0.01246761 0 0 Z " fill="#D28983" transform="translate(191.092529296875,100.822998046875)"/>
<path d="M0 0 C9.6121692 5.55485865 14.68821671 16.18358326 18.0859375 26.2890625 C19.72721293 32.9523602 20.75691848 40.52467085 17.57421875 46.8203125 C15.76864904 49.3203321 14.94851365 50.12341486 12 51 C6.06242821 51.59375718 2.96689335 50.68104163 -2.1875 47.83203125 C-4.0754818 46.79748637 -4.0754818 46.79748637 -6.6875 47.125 C-8.23310249 47.70982256 -9.76058213 48.34488465 -11.265625 49.02734375 C-14.3234306 50.11504888 -16.82238971 50.36786425 -20.0625 50.4375 C-21.59583984 50.49744141 -21.59583984 50.49744141 -23.16015625 50.55859375 C-26 50 -26 50 -28.3359375 47.91015625 C-31.9534204 41.58380704 -30.86971251 33.33451477 -29.08203125 26.48046875 C-25.50694439 16.72707645 -20.93457303 6.86263751 -12 1 C-7.86072272 -0.37975909 -4.31488523 -0.83355737 0 0 Z " fill="#060807" transform="translate(228,368)"/>
<path d="M0 0 C4.5304841 3.05544277 7.23771888 5.91293776 9.6875 10.8125 C9.6875 15.1025 9.6875 19.3925 9.6875 23.8125 C-1.5325 23.8125 -12.7525 23.8125 -24.3125 23.8125 C-24.3125 8.21037798 -24.3125 8.21037798 -19.3125 2.8125 C-13.64096268 -2.46334867 -7.04975821 -2.52727181 0 0 Z " fill="#E9DDDB" transform="translate(229.3125,66.1875)"/>
<path d="M0 0 C3.69883253 1.23294418 4.32221035 2.55857771 6.5625 5.6875 C13.95204528 15.09237581 22.46960223 17.93970949 34 20 C34 20.99 34 21.98 34 23 C26.38819222 24.96433749 18.97917739 24.7536271 12 21 C5.89108608 17.15176525 2.33737095 11.79668696 0 5 C-0.12890625 2.19140625 -0.12890625 2.19140625 0 0 Z " fill="#161616" transform="translate(67,412)"/>
<path d="M0 0 C0.66 0 1.32 0 2 0 C2.77824033 5.96650923 1.14244696 9.6006349 -2.08203125 14.625 C-5.84859211 19.28909165 -10.99489746 23.01734686 -17 24 C-19.24907152 24.06790675 -21.50001605 24.08499984 -23.75 24.0625 C-24.92046875 24.05347656 -26.0909375 24.04445313 -27.296875 24.03515625 C-28.18890625 24.02355469 -29.0809375 24.01195312 -30 24 C-30.33 23.01 -30.66 22.02 -31 21 C-30.09378906 20.78085937 -29.18757813 20.56171875 -28.25390625 20.3359375 C-15.80712693 17.09582352 -8.83446202 13.11282124 -1.62890625 2.1953125 C-1.09136719 1.47085937 -0.55382812 0.74640625 0 0 Z " fill="#181818" transform="translate(375,411)"/>
<path d="M0 0 C0.66 0.33 1.32 0.66 2 1 C1.2884375 1.5878125 1.2884375 1.5878125 0.5625 2.1875 C-1.35179633 4.40808374 -1.61266988 6.13375709 -2 9 C-2.66 9 -3.32 9 -4 9 C-4.30744141 10.64548828 -4.30744141 10.64548828 -4.62109375 12.32421875 C-4.89321293 13.77864887 -5.16534925 15.23307578 -5.4375 16.6875 C-5.57220703 17.40873047 -5.70691406 18.12996094 -5.84570312 18.87304688 C-6.54098845 22.58688798 -7.24774702 26.29716254 -8 30 C-8.33 30 -8.66 30 -9 30 C-9.17151799 24.32084883 -8.69580665 19.37642643 -7.3125 13.875 C-7.16361328 13.19824219 -7.01472656 12.52148438 -6.86132812 11.82421875 C-5.61170365 6.75711403 -3.56927223 3.80012068 0 0 Z " fill="#A57570" transform="translate(182,102)"/>
<path d="M0 0 C0.66 0.33 1.32 0.66 2 1 C1.01 1.8971875 1.01 1.8971875 0 2.8125 C-2.3373846 4.87501834 -2.3373846 4.87501834 -2 8 C-3.98 8.99 -5.96 9.98 -8 11 C-7.43040847 7.37386801 -6.07625466 5.74482259 -3.4375 3.25 C-2.79683594 2.63640625 -2.15617188 2.0228125 -1.49609375 1.390625 C-1.00238281 0.93171875 -0.50867188 0.4728125 0 0 Z " fill="#1C2C1D" transform="translate(175,93)"/>
<path d="M0 0 C1.98 0.66 3.96 1.32 6 2 C6.33 6.29 6.66 10.58 7 15 C6.67 15 6.34 15 6 15 C5.86722656 14.39671875 5.73445313 13.7934375 5.59765625 13.171875 C5.42105469 12.37265625 5.24445313 11.5734375 5.0625 10.75 C4.88847656 9.96109375 4.71445312 9.1721875 4.53515625 8.359375 C4.35855469 7.58078125 4.18195313 6.8021875 4 6 C3.87496094 5.26265625 3.74992187 4.5253125 3.62109375 3.765625 C3.41613281 3.18296875 3.21117187 2.6003125 3 2 C2.01 1.67 1.02 1.34 0 1 C0 0.67 0 0.34 0 0 Z " fill="#271412" transform="translate(264,103)"/>
<path d="M0 0 C0.66 0.33 1.32 0.66 2 1 C2 2.32 2 3.64 2 5 C1.21625 5.28875 0.4325 5.5775 -0.375 5.875 C-3.09671632 6.84912254 -3.09671632 6.84912254 -5 9 C-5 5 -5 5 -2.5 2.25 C-1.675 1.5075 -0.85 0.765 0 0 Z " fill="#C78785" transform="translate(222,121)"/>
<path d="M0 0 C0.99 0.33 1.98 0.66 3 1 C3.33 1.99 3.66 2.98 4 4 C2.5625 6.1875 2.5625 6.1875 1 8 C0.67 5.36 0.34 2.72 0 0 Z " fill="#393939" transform="translate(67,412)"/>
<path d="M0 0 C1.65 0.33 3.3 0.66 5 1 C5 1.99 5 2.98 5 4 C4.401875 3.814375 3.80375 3.62875 3.1875 3.4375 C0.83591238 2.77906313 0.83591238 2.77906313 -2 4 C-1.34 2.68 -0.68 1.36 0 0 Z " fill="#27120F" transform="translate(220,126)"/>
</svg>
