<?xml version="1.0" encoding="UTF-8"?>
<svg version="1.1" xmlns="http://www.w3.org/2000/svg" width="500" height="500">
<path d="M0 0 C1.6360622 0.0100541 3.27213042 0.01917564 4.90820312 0.02734375 C8.87645316 0.04915508 12.84440851 0.08354947 16.8125 0.125 C16.2875159 4.44684714 15.7640924 8.63834732 14.75 12.875 C10.57378367 33.69280567 18.32009243 54.12584346 27.8515625 72.29296875 C28.68255378 73.877257 29.49890433 75.46920849 30.3125 77.0625 C36.06328332 88.04126816 43.22555333 98.34183193 50.8125 108.125 C51.04324219 107.21878906 51.27398437 106.31257813 51.51171875 105.37890625 C56.17934058 87.94450851 64.31498396 77.47885789 79.8125 68.125 C83.16614699 66.45257993 85.99439386 65.125 89.8125 65.125 C88.95737017 68.73257897 87.87511953 72.26131929 86.8125 75.8125 C85.22776521 81.30739565 84.2053644 86.42846613 83.8125 92.125 C84.988125 92.2178125 84.988125 92.2178125 86.1875 92.3125 C96.37116612 94.59504586 105.53039588 100.95037704 111.375 109.625 C111.849375 110.45 112.32375 111.275 112.8125 112.125 C120.32365469 111.26963719 125.33647341 105.04442851 130.015625 99.52734375 C131.65811604 97.42081561 133.26051228 95.29881062 134.8125 93.125 C135.8025 93.455 136.7925 93.785 137.8125 94.125 C138.61114901 113.58837216 133.94127197 129.24072462 121.51171875 144.4296875 C119.8125 146.125 119.8125 146.125 117.8125 146.125 C117.8125 146.785 117.8125 147.445 117.8125 148.125 C115.5025 149.115 113.1925 150.105 110.8125 151.125 C120.45344373 152.94124414 129.99142409 154.67603653 139.8125 155.125 C140.65296875 155.16625 141.4934375 155.2075 142.359375 155.25 C165.4025229 155.80862177 189.1455773 150.62432145 209.44702148 139.80395508 C212.89140279 137.98264077 215.93206359 136.63049746 219.8125 136.125 C223.02956152 141.62120424 224.14185165 147.29455737 225.375 153.5 C225.59115967 154.57709229 225.80731934 155.65418457 226.0300293 156.76391602 C230.51884409 179.58703785 231.8126866 202.26778138 226.8125 225.125 C226.54283297 226.49085862 226.27330087 227.85674388 226.00390625 229.22265625 C222.48086719 245.96365333 213.32921736 265.28173564 200.125 276.4375 C197.10070036 279.01688405 194.13140757 281.64163613 191.1875 284.3125 C182.37378641 292.125 182.37378641 292.125 176.8125 292.125 C177.35971962 287.88404792 178.95292172 284.41689373 180.77734375 280.6015625 C185.18596016 270.0541557 185.5792087 256.88237575 183.04296875 245.74609375 C179.7520598 238.31538415 173.15008305 233.12830141 165.89453125 229.77734375 C156.18114667 226.12007749 145.42153851 223.86744453 135.52734375 228.13671875 C132.80277786 229.70691276 130.86913769 231.77455692 128.8125 234.125 C127.125 235.9375 127.125 235.9375 125.8125 237.125 C125.1525 237.125 124.4925 237.125 123.8125 237.125 C124.29828543 234.00209365 124.8111012 231.12919641 125.8125 228.125 C127.43409193 216.16238378 127.43409193 216.16238378 124.0625 204.875 C119.46726129 199.25859713 115.09551881 196.53006899 107.88671875 195.640625 C106.42505132 195.54309264 104.96274473 195.45476269 103.5 195.375 C102.77876953 195.31957031 102.05753906 195.26414062 101.31445312 195.20703125 C94.20886478 194.7864314 87.7157207 195.86156283 81.8125 200.125 C80.44265802 201.42079647 79.0973951 202.74492749 77.8125 204.125 C73.93380686 202.83210229 73.48833646 201.34564632 71.4375 197.875 C68.00943242 192.31070504 65.01762233 187.73115138 58.8125 185.125 C52.37242723 184.16844342 47.36034672 185.30039312 41.625 188.25 C39.8125 189.125 39.8125 189.125 37.8125 189.125 C37.8125 189.785 37.8125 190.445 37.8125 191.125 C37.1525 191.125 36.4925 191.125 35.8125 191.125 C35.8125 191.785 35.8125 192.445 35.8125 193.125 C34.34249567 194.39900375 32.86734219 195.6685008 31.34765625 196.8828125 C29.72183658 198.19836124 28.25047979 199.60713245 26.8125 201.125 C26.1525 200.465 25.4925 199.805 24.8125 199.125 C25.64394531 197.96484375 25.64394531 197.96484375 26.4921875 196.78125 C33.45974811 186.8075648 33.45974811 186.8075648 34.5625 175 C33.89492224 171.55084823 32.95697523 168.43647341 31.8125 165.125 C29.74893105 165.4090051 27.6866715 165.70253352 25.625 166 C24.47644531 166.16242188 23.32789063 166.32484375 22.14453125 166.4921875 C19.11639969 167.067284 16.64593171 167.96030786 13.8125 169.125 C12.8225 169.125 11.8325 169.125 10.8125 169.125 C10.6875 163.375 10.6875 163.375 11.8125 161.125 C12.10566553 157.94465947 12.09057572 154.75477814 12.125 151.5625 C12.15400391 150.69302734 12.18300781 149.82355469 12.21289062 148.92773438 C12.30391672 139.53804218 8.75387977 132.29512414 2.8671875 125.08203125 C-1.56030167 120.86497407 -6.64560697 119.17039095 -12.6875 119.0625 C-21.40601586 121.70919231 -27.52990973 125.90480012 -34.05859375 132.234375 C-36.1875 134.125 -36.1875 134.125 -39.1875 135.125 C-39.34600007 132.3512487 -39.3352965 130.45856443 -38.19921875 127.89453125 C-35.05859034 119.29721254 -36.57612002 107.37307289 -40.1875 99.125 C-44.75392331 90.45636977 -49.93549053 82.84241104 -58.5 77.75 C-65.94577505 76.01842441 -73.36966363 76.65334099 -80.1875 80.125 C-89.72018821 86.11064143 -97.66316289 93.05453071 -105.2421875 101.3828125 C-107.1875 103.125 -107.1875 103.125 -110.1875 103.125 C-110.39569314 96.9079222 -109.66111368 91.32498219 -108.375 85.25 C-108.18905273 84.36086914 -108.00310547 83.47173828 -107.81152344 82.55566406 C-107.28378107 80.07554837 -106.74001351 77.59969885 -106.1875 75.125 C-105.97222656 74.14789063 -105.75695312 73.17078125 -105.53515625 72.1640625 C-102.48722422 60.49028361 -95.61359342 47.59828674 -88.1875 38.125 C-87.5275 38.125 -86.8675 38.125 -86.1875 38.125 C-85.76984375 37.23554688 -85.76984375 37.23554688 -85.34375 36.328125 C-75.7559539 18.05948648 -51.10820931 8.76957727 -32.68359375 3.01953125 C-21.65751446 0.19833331 -11.31050692 -0.12175421 0 0 Z " fill="#2B143B" transform="translate(190.1875,103.875)"/>
<path d="M0 0 C1.6360622 0.0100541 3.27213042 0.01917564 4.90820312 0.02734375 C8.87645316 0.04915508 12.84440851 0.08354947 16.8125 0.125 C16.2875159 4.44684714 15.7640924 8.63834732 14.75 12.875 C10.57378367 33.69280567 18.32009243 54.12584346 27.8515625 72.29296875 C28.68255378 73.877257 29.49890433 75.46920849 30.3125 77.0625 C35.02429505 86.05774509 40.57712149 95.05844653 47.1015625 102.86328125 C49.28777877 105.75327946 49.14147864 107.58847961 48.8125 111.125 C49.4725 110.795 50.1325 110.465 50.8125 110.125 C52.32191005 113.1438201 51.98343272 115.9559686 52 119.3125 C52.01417969 120.60542969 52.02835938 121.89835937 52.04296875 123.23046875 C51.80475711 127.2558417 51.06091553 130.32054003 49.8125 134.125 C50.4725 134.125 51.1325 134.125 51.8125 134.125 C51.791875 133.155625 51.77125 132.18625 51.75 131.1875 C51.8125 128.125 51.8125 128.125 52.8125 127.125 C53.04613881 125.27608054 53.22553635 123.42011969 53.375 121.5625 C53.45878906 120.55058594 53.54257813 119.53867188 53.62890625 118.49609375 C53.68949219 117.71363281 53.75007812 116.93117188 53.8125 116.125 C56.12511405 120.1577402 56.48092207 124.1105624 57.0546875 128.6640625 C57.57275136 131.28477611 57.57275136 131.28477611 59.8828125 132.4609375 C60.83800781 132.78964844 60.83800781 132.78964844 61.8125 133.125 C61.6475 132.465 61.4825 131.805 61.3125 131.125 C60.46346053 126.03076317 59.84281916 121.57952125 62.8125 117.125 C62.88597656 118.01251953 62.88597656 118.01251953 62.9609375 118.91796875 C63.37706867 123.31604472 63.86215595 127.09428897 65.8125 131.125 C67.7925 131.125 69.7725 131.125 71.8125 131.125 C72.76869733 127.12704108 72.9164592 123.41696078 72.875 119.3125 C72.86597656 118.15105469 72.85695313 116.98960937 72.84765625 115.79296875 C72.83605469 114.91253906 72.82445312 114.03210938 72.8125 113.125 C75.24074318 115.55324318 75.97347598 116.76890391 76.8125 120.125 C76.38603775 123.52109572 75.64969803 126.80840781 74.8125 130.125 C75.8025 130.455 76.7925 130.785 77.8125 131.125 C77.1525 131.455 76.4925 131.785 75.8125 132.125 C75.71971572 135.46523421 75.98439174 137.81256695 76.8125 141.125 C72.8525 139.145 72.8525 139.145 68.8125 137.125 C69.35958727 139.66244315 69.35958727 139.66244315 70.8125 142.125 C73.86522465 143.02330839 73.86522465 143.02330839 76.8125 143.125 C75.4925 144.115 74.1725 145.105 72.8125 146.125 C74.1325 146.785 75.4525 147.445 76.8125 148.125 C76.4825 148.455 76.1525 148.785 75.8125 149.125 C77.27623047 149.39763672 77.27623047 149.39763672 78.76953125 149.67578125 C80.04183594 149.92714844 81.31414062 150.17851562 82.625 150.4375 C83.88957031 150.68113281 85.15414062 150.92476562 86.45703125 151.17578125 C89.62087446 152.07079161 90.87811381 152.55780346 92.8125 155.125 C89.21423138 158.86166357 85.27353422 162.12154501 81.2578125 165.390625 C77.29244032 168.69193964 73.59439919 172.23760585 69.9375 175.875 C69.44870361 176.3592041 68.95990723 176.8434082 68.45629883 177.34228516 C65.80140787 179.98278234 65.80140787 179.98278234 63.8125 183.125 C64.8025 183.455 65.7925 183.785 66.8125 184.125 C66.8125 184.785 66.8125 185.445 66.8125 186.125 C67.8025 186.455 68.7925 186.785 69.8125 187.125 C69.1525 187.125 68.4925 187.125 67.8125 187.125 C67.8125 187.785 67.8125 188.445 67.8125 189.125 C63.1426304 187.3089396 63.1426304 187.3089396 60.93359375 186.078125 C56.30890394 183.99999551 50.9476816 184.38204725 46.23046875 186.0234375 C44.67875606 186.73035669 43.14137183 187.47015163 41.625 188.25 C39.8125 189.125 39.8125 189.125 37.8125 189.125 C37.8125 189.785 37.8125 190.445 37.8125 191.125 C37.1525 191.125 36.4925 191.125 35.8125 191.125 C35.8125 191.785 35.8125 192.445 35.8125 193.125 C34.34249567 194.39900375 32.86734219 195.6685008 31.34765625 196.8828125 C29.72183658 198.19836124 28.25047979 199.60713245 26.8125 201.125 C26.1525 200.465 25.4925 199.805 24.8125 199.125 C25.64394531 197.96484375 25.64394531 197.96484375 26.4921875 196.78125 C33.45974811 186.8075648 33.45974811 186.8075648 34.5625 175 C33.89492224 171.55084823 32.95697523 168.43647341 31.8125 165.125 C29.74893105 165.4090051 27.6866715 165.70253352 25.625 166 C24.47644531 166.16242188 23.32789063 166.32484375 22.14453125 166.4921875 C19.11639969 167.067284 16.64593171 167.96030786 13.8125 169.125 C12.8225 169.125 11.8325 169.125 10.8125 169.125 C10.6875 163.375 10.6875 163.375 11.8125 161.125 C12.10566553 157.94465947 12.09057572 154.75477814 12.125 151.5625 C12.15400391 150.69302734 12.18300781 149.82355469 12.21289062 148.92773438 C12.30391672 139.53804218 8.75387977 132.29512414 2.8671875 125.08203125 C-1.56030167 120.86497407 -6.64560697 119.17039095 -12.6875 119.0625 C-21.40601586 121.70919231 -27.52990973 125.90480012 -34.05859375 132.234375 C-36.1875 134.125 -36.1875 134.125 -39.1875 135.125 C-39.34600007 132.3512487 -39.3352965 130.45856443 -38.19921875 127.89453125 C-35.05859034 119.29721254 -36.57612002 107.37307289 -40.1875 99.125 C-44.75392331 90.45636977 -49.93549053 82.84241104 -58.5 77.75 C-65.94577505 76.01842441 -73.36966363 76.65334099 -80.1875 80.125 C-89.72018821 86.11064143 -97.66316289 93.05453071 -105.2421875 101.3828125 C-107.1875 103.125 -107.1875 103.125 -110.1875 103.125 C-110.39569314 96.9079222 -109.66111368 91.32498219 -108.375 85.25 C-108.18905273 84.36086914 -108.00310547 83.47173828 -107.81152344 82.55566406 C-107.28378107 80.07554837 -106.74001351 77.59969885 -106.1875 75.125 C-105.97222656 74.14789063 -105.75695312 73.17078125 -105.53515625 72.1640625 C-102.48722422 60.49028361 -95.61359342 47.59828674 -88.1875 38.125 C-87.5275 38.125 -86.8675 38.125 -86.1875 38.125 C-85.76984375 37.23554688 -85.76984375 37.23554688 -85.34375 36.328125 C-75.7559539 18.05948648 -51.10820931 8.76957727 -32.68359375 3.01953125 C-21.65751446 0.19833331 -11.31050692 -0.12175421 0 0 Z " fill="#241231" transform="translate(190.1875,103.875)"/>
<path d="M0 0 C-0.85512983 3.60757897 -1.93738047 7.13631929 -3 10.6875 C-4.58473479 16.18239565 -5.6071356 21.30346613 -6 27 C-4.824375 27.0928125 -4.824375 27.0928125 -3.625 27.1875 C6.55866612 29.47004586 15.71789588 35.82537704 21.5625 44.5 C22.036875 45.325 22.51125 46.15 23 47 C30.51115469 46.14463719 35.52397341 39.91942851 40.203125 34.40234375 C41.84561604 32.29581561 43.44801228 30.17381062 45 28 C46.485 28.495 46.485 28.495 48 29 C48.79864901 48.46337216 44.12877197 64.11572462 31.69921875 79.3046875 C30 81 30 81 28 81 C28 81.66 28 82.32 28 83 C24.79892719 85.00067051 21.78485702 85.33465436 18.07421875 85.71875 C15.73426907 85.98567416 15.73426907 85.98567416 12.5 87 C6.14555699 88.81555515 1.32394328 89.50016362 -5 87 C-5.99 87 -6.98 87 -8 87 C-8 86.34 -8 85.68 -8 85 C-8.9075 85.103125 -9.815 85.20625 -10.75 85.3125 C-14 85 -14 85 -16.375 82.5 C-16.91125 81.675 -17.4475 80.85 -18 80 C-16.515 79.505 -16.515 79.505 -15 79 C-15.804375 78.773125 -16.60875 78.54625 -17.4375 78.3125 C-18.283125 77.879375 -19.12875 77.44625 -20 77 C-20.8125 74.375 -20.8125 74.375 -21 72 C-16.25 73.875 -16.25 73.875 -14 75 C-14.2475 73.081875 -14.2475 73.081875 -14.5 71.125 C-14.87301107 68.23416422 -15.09112039 65.69571652 -14.7109375 62.79296875 C-14.60007812 61.93316406 -14.48921875 61.07335937 -14.375 60.1875 C-14.20097656 58.90939453 -14.20097656 58.90939453 -14.0234375 57.60546875 C-13.99660391 54.62246786 -14.73992342 52.67886509 -16 50 C-15.97679687 50.72445312 -15.95359375 51.44890625 -15.9296875 52.1953125 C-15.82981206 57.54578244 -15.83544252 61.99446082 -18 67 C-20.8125 66.8125 -20.8125 66.8125 -24 66 C-26.82199293 62.59414646 -27.49580031 59.33611731 -28 55 C-28.08333357 59.8333472 -27.95261487 64.23692563 -27 69 C-29.875 68.1875 -29.875 68.1875 -33 66 C-34.15211836 62.38362848 -34.62878311 58.76977154 -35 55 C-35.12375 56.010625 -35.2475 57.02125 -35.375 58.0625 C-35.98085335 61.87937612 -36.87193912 65.31500112 -38 69 C-38.66 69 -39.32 69 -40 69 C-39.83628906 68.00871094 -39.67257813 67.01742187 -39.50390625 65.99609375 C-38.93395774 62.00645421 -38.90182495 58.09378059 -38.9375 54.0625 C-38.94426758 53.03672852 -38.94426758 53.03672852 -38.95117188 51.99023438 C-38.9628044 50.32678396 -38.98073306 48.6633795 -39 47 C-39.99 47 -40.98 47 -42 47 C-41.67 45.35 -41.34 43.7 -41 42 C-40.34 42.33 -39.68 42.66 -39 43 C-38.65388672 41.64068359 -38.65388672 41.64068359 -38.30078125 40.25390625 C-33.63315942 22.81950851 -25.49751604 12.35385789 -10 3 C-6.64635301 1.32757993 -3.81810614 0 0 0 Z " fill="#261332" transform="translate(280,169)"/>
<path d="M0 0 C2.42824318 2.42824318 3.16097598 3.64390391 4 7 C3.57353775 10.39609572 2.83719803 13.68340781 2 17 C2.99 17.33 3.98 17.66 5 18 C4.34 18.33 3.68 18.66 3 19 C2.90721572 22.34023421 3.17189174 24.68756695 4 28 C1.36 26.68 -1.28 25.36 -4 24 C-3.45291273 26.53744315 -3.45291273 26.53744315 -2 29 C1.05272465 29.89830839 1.05272465 29.89830839 4 30 C3.34 30.66 2.68 31.32 2 32 C-3.2466753 31.80201225 -6.27428214 30.72571786 -10 27 C-10 26.34 -10 25.68 -10 25 C-10.99 24.67 -11.98 24.34 -13 24 C-13.33 22.35 -13.66 20.7 -14 19 C-13.01 19.33 -12.02 19.66 -11 20 C-11.165 19.34 -11.33 18.68 -11.5 18 C-12.34903947 12.90576317 -12.96968084 8.45452125 -10 4 C-9.95101562 4.59167969 -9.90203125 5.18335938 -9.8515625 5.79296875 C-9.43543133 10.19104472 -8.95034405 13.96928897 -7 18 C-5.02 18 -3.04 18 -1 18 C-0.04380267 14.00204108 0.1039592 10.29196078 0.0625 6.1875 C0.05347656 5.02605469 0.04445313 3.86460937 0.03515625 2.66796875 C0.02355469 1.78753906 0.01195312 0.90710938 0 0 Z " fill="#110715" transform="translate(263,217)"/>
<path d="M0 0 C3.0625 1.5 3.0625 1.5 5 3 C3.16118197 7.75451291 0.0467434 8.94418993 -4.39453125 11.0078125 C-7.87222626 12.33215213 -10.33576266 12.73284747 -14 12 C-16.5 9.6875 -16.5 9.6875 -18 7 C-16.87059096 3.61177288 -16.51483521 3.37375395 -13.5 1.8125 C-8.99187118 -0.29183302 -4.91092386 -0.81226307 0 0 Z " fill="#DFC78F" transform="translate(289,235)"/>
<path d="M0 0 C4.8910211 4.50488786 6.82681213 7.27229107 7.25 13.9375 C7.1672443 17.57185461 6.35571445 20.61071386 5 24 C2.125 23.6875 2.125 23.6875 -1 23 C-3.4214607 19.36780895 -3.29869516 17.50841442 -3.3125 13.1875 C-3.32925781 11.98480469 -3.34601563 10.78210938 -3.36328125 9.54296875 C-2.97224111 5.72927617 -1.91114324 3.29281408 0 0 Z " fill="#F2D66F" transform="translate(257,212)"/>
<path d="M0 0 C0.99 0.33 1.98 0.66 3 1 C3.18451025 15.78132118 3.18451025 15.78132118 2 22 C1.67 22 1.34 22 1 22 C0.67 20.35 0.34 18.7 0 17 C-1.32 18.32 -2.64 19.64 -4 21 C-5.51281079 18.17608653 -7 15.28056633 -7 12 C-8.65 13.65 -10.3 15.3 -12 17 C-12.66 16.67 -13.32 16.34 -14 16 C-13.49210937 15.5153125 -12.98421875 15.030625 -12.4609375 14.53125 C-7.79859597 9.99114215 -3.73909728 5.32538097 0 0 Z " fill="#452557" transform="translate(325,197)"/>
<path d="M0 0 C0.33 0 0.66 0 1 0 C4.00614077 18.0100041 4.59891492 37.03755857 1 55 C0.67 55 0.34 55 0 55 C-0.81929486 46.00361986 -1.15532474 37.09421851 -1.125 28.0625 C-1.12886719 26.88365234 -1.13273437 25.70480469 -1.13671875 24.49023438 C-1.13478516 22.7799707 -1.13478516 22.7799707 -1.1328125 21.03515625 C-1.13168457 20.0181665 -1.13055664 19.00117676 -1.12939453 17.95336914 C-0.99550267 14.89735046 -0.53820928 12.00832329 0 9 C0.0620775 7.37605252 0.08712041 5.74994703 0.0625 4.125 C0.05347656 3.34382813 0.04445313 2.56265625 0.03515625 1.7578125 C0.02355469 1.17773438 0.01195312 0.59765625 0 0 Z " fill="#705579" transform="translate(417,270)"/>
<path d="M0 0 C0 2.31 0 4.62 0 7 C-0.99 7.495 -0.99 7.495 -2 8 C-2.433125 7.505 -2.86625 7.01 -3.3125 6.5 C-4.99740483 4.66781808 -4.99740483 4.66781808 -8 5 C-8.66 4.67 -9.32 4.34 -10 4 C-10.309375 4.61875 -10.61875 5.2375 -10.9375 5.875 C-11.625 7.25 -12.3125 8.625 -13 10 C-14.32 10 -15.64 10 -17 10 C-17.33 10.99 -17.66 11.98 -18 13 C-19.98 13 -21.96 13 -24 13 C-24 12.34 -24 11.68 -24 11 C-25.98 11.33 -27.96 11.66 -30 12 C-27.37060498 9.37060498 -24.35052318 8.47199785 -20.9375 7.1875 C-15.58877387 5.13442137 -10.66662147 2.90332391 -5.83203125 -0.21484375 C-3.50978547 -1.21009194 -2.33437679 -0.83333628 0 0 Z " fill="#624A6E" transform="translate(411,241)"/>
<path d="M0 0 C0.66 0.33 1.32 0.66 2 1 C2.33 1.99 2.66 2.98 3 4 C3.66 3.34 4.32 2.68 5 2 C5 3.98 5 5.96 5 8 C5.66 8 6.32 8 7 8 C7.625 11.375 7.625 11.375 8 15 C7.34 15.66 6.68 16.32 6 17 C4.68 17 3.36 17 2 17 C2 16.34 2 15.68 2 15 C0.35 14.67 -1.3 14.34 -3 14 C-2.01 13.34 -1.02 12.68 0 12 C-0.804375 11.773125 -1.60875 11.54625 -2.4375 11.3125 C-3.7059375 10.6628125 -3.7059375 10.6628125 -5 10 C-5.8125 7.375 -5.8125 7.375 -6 5 C-1.25 6.875 -1.25 6.875 1 8 C0.67 5.36 0.34 2.72 0 0 Z " fill="#1C0E23" transform="translate(265,236)"/>
<path d="M0 0 C2.42824318 2.42824318 3.16097598 3.64390391 4 7 C3.57353775 10.39609572 2.83719803 13.68340781 2 17 C2.99 17.33 3.98 17.66 5 18 C4.34 18.33 3.68 18.66 3 19 C2.90721572 22.34023421 3.17189174 24.68756695 4 28 C-0.455 26.02 -0.455 26.02 -5 24 C-5 23.01 -5 22.02 -5 21 C-5.99 20.34 -6.98 19.68 -8 19 C-7.505 17.515 -7.505 17.515 -7 16 C-7 16.66 -7 17.32 -7 18 C-5.02 18 -3.04 18 -1 18 C-0.04380267 14.00204108 0.1039592 10.29196078 0.0625 6.1875 C0.05347656 5.02605469 0.04445313 3.86460937 0.03515625 2.66796875 C0.02355469 1.78753906 0.01195312 0.90710938 0 0 Z " fill="#231315" transform="translate(263,217)"/>
<path d="M0 0 C2.7404745 2.7404745 4.0855176 6.04986749 5.75 9.5 C8.56698152 15.27121887 11.55154494 20.79327666 15.06640625 26.1796875 C15.37449219 26.78039062 15.68257812 27.38109375 16 28 C15.67 28.66 15.34 29.32 15 30 C13.1875 29.4375 13.1875 29.4375 11 28 C9.1875 24.5 9.1875 24.5 8 21 C8.33 20.34 8.66 19.68 9 19 C7.68 19.33 6.36 19.66 5 20 C5.0825 19.236875 5.165 18.47375 5.25 17.6875 C5.30342071 14.85583656 5.30342071 14.85583656 3 13.3125 C2.34 12.879375 1.68 12.44625 1 12 C1 11.34 1 10.68 1 10 C0.01 10.33 -0.98 10.66 -2 11 C-1.67 10.29875 -1.34 9.5975 -1 8.875 C0.09044562 5.73996884 0.15322643 3.29436818 0 0 Z " fill="#5D4B66" transform="translate(211,164)"/>
<path d="M0 0 C-0.78697325 3.41021743 -1.87119943 6.68885166 -3 10 C-6 10 -6 10 -9 9 C-9.33 8.67 -9.66 8.34 -10 8 C-11.32594105 7.63837971 -12.65938457 7.30271961 -14 7 C-14.33 7.99 -14.66 8.98 -15 10 C-18.0625 11.1875 -18.0625 11.1875 -21 12 C-15.86149577 6.17636187 -8.03854861 0 0 0 Z " fill="#584B5A" transform="translate(280,169)"/>
<path d="M0 0 C0.33 0.66 0.66 1.32 1 2 C0 5 0 5 -3.125 6.6875 C-6.84841344 8.12783277 -9.99857144 8.53865385 -14 8 C-15.9375 6 -15.9375 6 -17 4 C-14.525 4.495 -14.525 4.495 -12 5 C-12 4.34 -12 3.68 -12 3 C-11.34 3 -10.68 3 -10 3 C-10 2.34 -10 1.68 -10 1 C-6.78548731 -0.60725635 -3.56387464 -0.05748185 0 0 Z " fill="#DFC268" transform="translate(289,239)"/>
<path d="M0 0 C4.8910211 4.50488786 6.82681213 7.27229107 7.25 13.9375 C7.1672443 17.57185461 6.35571445 20.61071386 5 24 C2.125 23.6875 2.125 23.6875 -1 23 C-3.46062979 19.30905532 -3.26816777 17.32955805 -3.25 12.9375 C-3.25515625 11.68839844 -3.2603125 10.43929687 -3.265625 9.15234375 C-3 6 -3 6 -1 4 C-1.33 8.29 -1.66 12.58 -2 17 C-1.34 17 -0.68 17 0 17 C0.33 18.65 0.66 20.3 1 22 C1.99 22 2.98 22 4 22 C4.24991456 15.34949576 3.73955334 9.43013467 2 3 C1.01 3 0.02 3 -1 3 C-0.67 2.01 -0.34 1.02 0 0 Z " fill="#D9C78D" transform="translate(257,212)"/>
<path d="M0 0 C2.125 0.9375 2.125 0.9375 4 2 C1.33333333 4.66666667 -1.33333333 7.33333333 -4 10 C-4.68578125 10.74765625 -5.3715625 11.4953125 -6.078125 12.265625 C-8 14 -8 14 -11 14 C-11.07654536 9.48382401 -11.10228696 5.40914783 -10 1 C-9.67 1 -9.34 1 -9 1 C-8.67 2.98 -8.34 4.96 -8 7 C-6.68 5.68 -5.36 4.36 -4 3 C-3.01 3.33 -2.02 3.66 -1 4 C-1.33 3.01 -1.66 2.02 -2 1 C-1.34 0.67 -0.68 0.34 0 0 Z " fill="#4D464C" transform="translate(91,193)"/>
<path d="M0 0 C1.42944945 2.35438733 2.08661261 3.48032433 1.625 6.25 C1.41875 6.8275 1.2125 7.405 1 8 C0.34 8 -0.32 8 -1 8 C-0.45773019 11.79588866 1.20127563 13.47211993 4 16 C2.92570402 16.84495189 1.84010798 17.67554858 0.75 18.5 C0.14671875 18.9640625 -0.4565625 19.428125 -1.078125 19.90625 C-3 21 -3 21 -7 21 C-6.44462345 16.69583174 -4.78284403 13.18880141 -2.98828125 9.29296875 C-1.67533407 6.24672372 -0.81979353 3.21085799 0 0 Z " fill="#755A7A" transform="translate(374,375)"/>
<path d="M0 0 C0.99 0 1.98 0 3 0 C3.90775646 3.49768308 4.28679093 5.36411212 2.77734375 8.7109375 C2.17019531 9.59007812 1.56304687 10.46921875 0.9375 11.375 C0.28910156 12.32117188 -0.35929687 13.26734375 -1.02734375 14.2421875 C-2.00380859 15.60730469 -2.00380859 15.60730469 -3 17 C-3.80630859 18.17949219 -3.80630859 18.17949219 -4.62890625 19.3828125 C-7.34281555 23.22338389 -9.63732141 25.94697478 -14 28 C-14.33 27.01 -14.66 26.02 -15 25 C-14.01 25 -13.02 25 -12 25 C-11.896875 24.401875 -11.79375 23.80375 -11.6875 23.1875 C-10.91123545 20.71756736 -9.92911079 19.67748765 -8 18 C-7.34 18.33 -6.68 18.66 -6 19 C-6.33 18.01 -6.66 17.02 -7 16 C-6.01 16 -5.02 16 -4 16 C-4.66 14.68 -5.32 13.36 -6 12 C-5.34 11.67 -4.68 11.34 -4 11 C-4 11.66 -4 12.32 -4 13 C-3.34 12.67 -2.68 12.34 -2 12 C-1.34444881 9.47266765 -1.34444881 9.47266765 -1 7 C-0.34 7 0.32 7 1 7 C1.15149298 3.37114676 1.15149298 3.37114676 0 0 Z " fill="#6F5875" transform="translate(403,352)"/>
<path d="M0 0 C0.99 0.66 1.98 1.32 3 2 C3.05632424 4.80435411 2.95814702 7.35146678 2.6875 10.125 C2.62626953 10.87910156 2.56503906 11.63320313 2.50195312 12.41015625 C2.3485467 14.27463438 2.17606541 16.13752498 2 18 C2.66 18.33 3.32 18.66 4 19 C2.08277831 26.81636537 2.08277831 26.81636537 -1 29 C-1.66 29 -2.32 29 -3 29 C-2.51421457 25.87709365 -2.0013988 23.00419641 -1 20 C-0.2011107 13.34258914 0.12885517 6.70046882 0 0 Z " fill="#5D4D58" transform="translate(317,312)"/>
<path d="M0 0 C0.33 0.66 0.66 1.32 1 2 C3.02463255 2.65213292 3.02463255 2.65213292 5 3 C4.835 3.7425 4.67 4.485 4.5 5.25 C3.79945413 10.50409401 3.92292501 15.70751749 4 21 C4.99 21.33 5.98 21.66 7 22 C6.38125 22.70125 5.7625 23.4025 5.125 24.125 C2.9572991 27.05777181 1.97344445 29.51182406 1 33 C1.66 33.33 2.32 33.66 3 34 C2.01 34 1.02 34 0 34 C-0.125 28.25 -0.125 28.25 1 26 C1.09539121 24.54933371 1.1307348 23.09442274 1.1328125 21.640625 C1.13410156 20.77179688 1.13539063 19.90296875 1.13671875 19.0078125 C1.13285156 18.09773438 1.12898437 17.18765625 1.125 16.25 C1.12886719 15.35539063 1.13273438 14.46078125 1.13671875 13.5390625 C1.1298951 8.9126273 0.94932093 4.55071304 0 0 Z " fill="#816C83" transform="translate(201,239)"/>
<path d="M0 0 C0.66 0 1.32 0 2 0 C0.71290385 4.57187279 -1.000464 7.70277394 -4 11.375 C-5.051875 12.68597656 -5.051875 12.68597656 -6.125 14.0234375 C-7.053125 15.00183594 -7.053125 15.00183594 -8 16 C-8.66 16 -9.32 16 -10 16 C-10 16.66 -10 17.32 -10 18 C-12.35438733 19.42944945 -13.48032433 20.08661261 -16.25 19.625 C-17.11625 19.315625 -17.11625 19.315625 -18 19 C-14.67692308 15.06153846 -14.67692308 15.06153846 -11.25 14.75 C-10.5075 14.8325 -9.765 14.915 -9 15 C-9.33 14.01 -9.66 13.02 -10 12 C-9.34 11.34 -8.68 10.68 -8 10 C-7.01 10 -6.02 10 -5 10 C-5 9.01 -5 8.02 -5 7 C-4.34 7 -3.68 7 -3 7 C-3 6.34 -3 5.68 -3 5 C-2.34 5 -1.68 5 -1 5 C-0.67 3.35 -0.34 1.7 0 0 Z " fill="#5E4B67" transform="translate(318,234)"/>
<path d="M0 0 C2.31 0 4.62 0 7 0 C7.3125 2.1875 7.3125 2.1875 7 5 C3.42173951 9.73253807 -1.30605597 12.51850359 -7 14 C-10.41797251 14.02856244 -13.64706377 13.64398775 -17 13 C-16.67 11.68 -16.34 10.36 -16 9 C-15.34 9.66 -14.68 10.32 -14 11 C-7.55153655 11.94040092 -2.33070672 9.62528905 3 6 C3.33 5.01 3.66 4.02 4 3 C2.68 2.01 1.36 1.02 0 0 Z " fill="#31171D" transform="translate(289,235)"/>
<path d="M0 0 C0.33 0 0.66 0 1 0 C1.33 4.95 1.66 9.9 2 15 C3.65 15.33 5.3 15.66 7 16 C6.0919838 17.13199353 5.17316174 18.25532363 4.25 19.375 C3.73953125 20.00148437 3.2290625 20.62796875 2.703125 21.2734375 C0.91800519 23.08312318 -0.67949644 24.00117455 -3 25 C-3.15700354 22.2524381 -3.15604877 20.35236819 -2.03125 17.8125 C-0.7394363 14.28937174 -0.54538666 10.89695967 -0.375 7.1875 C-0.33632812 6.49462891 -0.29765625 5.80175781 -0.2578125 5.08789062 C-0.16426432 3.39232985 -0.08107636 1.69620288 0 0 Z " fill="#766A72" transform="translate(154,214)"/>
<path d="M0 0 C1.34326102 4.34736876 0.31931837 7.83560022 -0.8125 12.125 C-0.99103516 12.85332031 -1.16957031 13.58164062 -1.35351562 14.33203125 C-2.7373059 19.7373059 -2.7373059 19.7373059 -5 22 C-5 21.01 -5 20.02 -5 19 C-5.66 18.67 -6.32 18.34 -7 18 C-6.67 15.36 -6.34 12.72 -6 10 C-5.01 9.67 -4.02 9.34 -3 9 C-1.97718482 6.90280128 -1.97718482 6.90280128 -1.3125 4.4375 C-1.06113281 3.61121094 -0.80976563 2.78492188 -0.55078125 1.93359375 C-0.36902344 1.29550781 -0.18726563 0.65742188 0 0 Z " fill="#674F74" transform="translate(416,325)"/>
<path d="M0 0 C3.15855569 0.20397718 6.07727374 0.77767024 9 2 C10.5625 5.125 10.5625 5.125 11 8 C10.01 8.495 10.01 8.495 9 9 C7.68 7.68 6.36 6.36 5 5 C4.01 7.31 3.02 9.62 2 12 C-0.56295176 9.33025858 -0.99337817 8.09767206 -1.25 4.3125 C-1 1 -1 1 0 0 Z " fill="#1E1211" transform="translate(252,208)"/>
<path d="M0 0 C1.15680267 0.00424484 1.15680267 0.00424484 2.3369751 0.00857544 C4.79251832 0.01974237 7.2476926 0.04484021 9.703125 0.0703125 C11.37108847 0.08034682 13.03905768 0.08947189 14.70703125 0.09765625 C18.78920397 0.11967025 22.871102 0.15417583 26.953125 0.1953125 C26.203125 7.8203125 26.203125 7.8203125 23.953125 11.1953125 C23.458125 7.7303125 23.458125 7.7303125 22.953125 4.1953125 C23.943125 4.1953125 24.933125 4.1953125 25.953125 4.1953125 C25.953125 3.2053125 25.953125 2.2153125 25.953125 1.1953125 C7.143125 1.6903125 7.143125 1.6903125 -12.046875 2.1953125 C-7.72379084 0.03377042 -4.67476367 -0.06477806 0 0 Z " fill="#7F6F83" transform="translate(180.046875,103.8046875)"/>
<path d="M0 0 C1.36689888 2.73379776 2.39874174 4.97200697 3.2890625 7.8203125 C3.50820312 8.52027344 3.72734375 9.22023437 3.953125 9.94140625 C4.17484375 10.66199219 4.3965625 11.38257813 4.625 12.125 C4.85445312 12.85332031 5.08390625 13.58164063 5.3203125 14.33203125 C7 19.74102493 7 19.74102493 7 22 C4 21 4 21 2.8125 19.125 C2 17 2 17 2 14 C-0.97 13.505 -0.97 13.505 -4 13 C-3.67 12.34 -3.34 11.68 -3 11 C-2.34 11 -1.68 11 -1 11 C-1 10.34 -1 9.68 -1 9 C-0.34 9 0.32 9 1 9 C0.67 6.03 0.34 3.06 0 0 Z " fill="#32183F" transform="translate(204,142)"/>
<path d="M0 0 C0.33 0 0.66 0 1 0 C1.67507066 3.06070934 2.33854922 6.1238209 3 9.1875 C3.19078125 10.05181641 3.3815625 10.91613281 3.578125 11.80664062 C3.75859375 12.64775391 3.9390625 13.48886719 4.125 14.35546875 C4.29257812 15.12528076 4.46015625 15.89509277 4.6328125 16.68823242 C5.02550915 19.16060247 5.06185285 21.50075809 5 24 C4.87625 23.071875 4.87625 23.071875 4.75 22.125 C4.5025 21.42375 4.255 20.7225 4 20 C3.01 19.566875 3.01 19.566875 2 19.125 C1.34 18.75375 0.68 18.3825 0 18 C-0.8125 14.9375 -0.8125 14.9375 -1 12 C-0.67 11.67 -0.34 11.34 0 11 C0.07226502 9.14712498 0.0838122 7.29166122 0.0625 5.4375 C0.05347656 4.42558594 0.04445313 3.41367188 0.03515625 2.37109375 C0.02355469 1.58863281 0.01195312 0.80617187 0 0 Z " fill="#735C80" transform="translate(412,246)"/>
<path d="M0 0 C0.99 0.33 1.98 0.66 3 1 C2.77169299 2.62818946 2.51656424 4.2526349 2.25 5.875 C2.11078125 6.77992188 1.9715625 7.68484375 1.828125 8.6171875 C1 11 1 11 -0.890625 12.3828125 C-3 13 -3 13 -6 12 C-6 11.34 -6 10.68 -6 10 C-5.34 10 -4.68 10 -4 10 C-4 8.68 -4 7.36 -4 6 C-3.34 5.34 -2.68 4.68 -2 4 C-1.30251417 2.68252676 -0.63040043 1.35085807 0 0 Z " fill="#110712" transform="translate(253,187)"/>
<path d="M0 0 C0 4.29 0 8.58 0 13 C-1.65 12.67 -3.3 12.34 -5 12 C-5.15384615 4 -5.15384615 4 -4 1 C-2 0 -2 0 0 0 Z " fill="#382F36" transform="translate(87,182)"/>
<path d="M0 0 C-0.75 2.4375 -0.75 2.4375 -2 5 C-4.49476051 6.04618989 -6.26856911 6 -9 6 C-9 5.34 -9 4.68 -9 4 C-10.98 4.33 -12.96 4.66 -15 5 C-10.80265327 0.80265327 -5.80003952 -0.42439314 0 0 Z " fill="#351943" transform="translate(396,248)"/>
<path d="M0 0 C1.8871875 0.061875 1.8871875 0.061875 3.8125 0.125 C3.8125 1.115 3.8125 2.105 3.8125 3.125 C0.5125 3.125 -2.7875 3.125 -6.1875 3.125 C-6.8475 4.775 -7.5075 6.425 -8.1875 8.125 C-10.1675 7.135 -12.1475 6.145 -14.1875 5.125 C-14.1875 4.465 -14.1875 3.805 -14.1875 3.125 C-13.094375 3.00125 -12.00125 2.8775 -10.875 2.75 C-6.6496682 2.03384207 -4.32024355 -0.14164733 0 0 Z " fill="#F6D977" transform="translate(285.1875,236.875)"/>
<path d="M0 0 C0.33 0.66 0.66 1.32 1 2 C0.67 2.99 0.34 3.98 0 5 C0.99 4.67 1.98 4.34 3 4 C3 4.66 3 5.32 3 6 C1.52999567 7.27400375 0.05484219 8.5435008 -1.46484375 9.7578125 C-3.09066342 11.07336124 -4.56202021 12.48213245 -6 14 C-6.66 13.34 -7.32 12.68 -8 12 C-5.36 8.04 -2.72 4.08 0 0 Z " fill="#9D8E92" transform="translate(223,291)"/>
<path d="M0 0 C0.33 0 0.66 0 1 0 C1.33 4.29 1.66 8.58 2 13 C0.68 13.33 -0.64 13.66 -2 14 C-2.33 11.03 -2.66 8.06 -3 5 C-2.34 4.67 -1.68 4.34 -1 4 C-0.34786708 1.97536745 -0.34786708 1.97536745 0 0 Z " fill="#36194D" transform="translate(411,244)"/>
<path d="M0 0 C4.62 0 9.24 0 14 0 C14 0.33 14 0.66 14 1 C13.443125 1.02578125 12.88625 1.0515625 12.3125 1.078125 C6.31706452 1.52373169 2.23258464 3.05072502 -3 6 C-3 7.32 -3 8.64 -3 10 C-3.66 10 -4.32 10 -5 10 C-5 7.69 -5 5.38 -5 3 C-4.360625 2.87625 -3.72125 2.7525 -3.0625 2.625 C-2.0415625 2.315625 -2.0415625 2.315625 -1 2 C-0.67 1.34 -0.34 0.68 0 0 Z " fill="#321F1B" transform="translate(275,234)"/>
<path d="M0 0 C1.60448132 4.0112033 0.25156999 7.02442473 -1 11 C-1 11.66 -1 12.32 -1 13 C-1.66 13 -2.32 13 -3 13 C-3.33 13.66 -3.66 14.32 -4 15 C-4 10.38 -4 5.76 -4 1 C-2.68 0.67 -1.36 0.34 0 0 Z " fill="#180C17" transform="translate(230,273)"/>
<path d="M0 0 C0.99 0 1.98 0 3 0 C3.56359649 9.58114035 3.56359649 9.58114035 0 14 C-0.33 14 -0.66 14 -1 14 C-1.18451025 4.58997722 -1.18451025 4.58997722 0 0 Z " fill="#ECCB68" transform="translate(256,215)"/>
<path d="M0 0 C2.16099373 2.16099373 2.71563716 3.5210418 3.6875 6.375 C3.95949219 7.14585937 4.23148438 7.91671875 4.51171875 8.7109375 C5.04278009 11.20055308 4.81115526 12.61553018 4 15 C2.5 13.625 2.5 13.625 1 12 C1 11.34 1 10.68 1 10 C0.01 10.33 -0.98 10.66 -2 11 C-1.67 10.29875 -1.34 9.5975 -1 8.875 C0.09044562 5.73996884 0.15322643 3.29436818 0 0 Z " fill="#574161" transform="translate(211,164)"/>
<path d="M0 0 C2.33965571 2.22723982 4.27099166 4.58956647 6.1875 7.1875 C6.71730469 7.90292969 7.24710938 8.61835938 7.79296875 9.35546875 C8.39044922 10.16951172 8.39044922 10.16951172 9 11 C8.67 11.66 8.34 12.32 8 13 C5.525 12.01 5.525 12.01 3 11 C3.33 9.68 3.66 8.36 4 7 C2.35 6.67 0.7 6.34 -1 6 C-0.67 4.02 -0.34 2.04 0 0 Z " fill="#664F72" transform="translate(230,198)"/>
<path d="M0 0 C3.875 3.75 3.875 3.75 5 6 C6.1446875 5.7525 6.1446875 5.7525 7.3125 5.5 C10 5 10 5 13 5 C12.67 6.32 12.34 7.64 12 9 C11.34 8.67 10.68 8.34 10 8 C8.62657169 7.9310528 7.24997898 7.91532292 5.875 7.9375 C4.59625 7.958125 3.3175 7.97875 2 8 C0.93224776 6.03533587 -0.06553465 4.03144641 -1 2 C-0.67 1.34 -0.34 0.68 0 0 Z " fill="#76617D" transform="translate(298,210)"/>
<path d="M0 0 C0.66 0.33 1.32 0.66 2 1 C1.01 2.485 1.01 2.485 0 4 C0 5.32 0 6.64 0 8 C-1.65 7.67 -3.3 7.34 -5 7 C-5 7.66 -5 8.32 -5 9 C-6.32 9.33 -7.64 9.66 -9 10 C-7.84906278 6.54718834 -6.6794007 5.61917837 -3.9375 3.3125 C-2.83728516 2.37857422 -2.83728516 2.37857422 -1.71484375 1.42578125 C-1.14894531 0.95527344 -0.58304687 0.48476562 0 0 Z " fill="#331847" transform="translate(319,207)"/>
<path d="M0 0 C1 3 1 3 1 6 C0.113125 6.391875 -0.77375 6.78375 -1.6875 7.1875 C-5.12129608 9.06636955 -7.36541769 11.13295455 -10 14 C-10.66 13.67 -11.32 13.34 -12 13 C-11.46890625 12.48050781 -10.9378125 11.96101562 -10.390625 11.42578125 C-6.68949647 7.77192991 -3.12841559 4.17122079 0 0 Z " fill="#725D7B" transform="translate(323,200)"/>
<path d="M0 0 C1.23593891 3.70781672 0.5678132 4.67510253 -0.9375 8.1875 C-1.31777344 9.08855469 -1.69804687 9.98960937 -2.08984375 10.91796875 C-2.54037109 11.94857422 -2.54037109 11.94857422 -3 13 C-3.33 13 -3.66 13 -4 13 C-4.33 9.37 -4.66 5.74 -5 2 C-3.68 2 -2.36 2 -1 2 C-0.67 1.34 -0.34 0.68 0 0 Z " fill="#705A7D" transform="translate(325,219)"/>
<path d="M0 0 C0.99 0.33 1.98 0.66 3 1 C3 3.64 3 6.28 3 9 C2.01 9 1.02 9 0 9 C-1.125 6.1875 -1.125 6.1875 -2 3 C-1.34 2.01 -0.68 1.02 0 0 Z " fill="#0F070F" transform="translate(266,297)"/>
<path d="M0 0 C0.99 0.33 1.98 0.66 3 1 C3.33 1.99 3.66 2.98 4 4 C0.93882432 6.62386487 0.26826873 7 -4 7 C-3.67 5.35 -3.34 3.7 -3 2 C-2.01 2 -1.02 2 0 2 C0 1.34 0 0.68 0 0 Z " fill="#685266" transform="translate(371,389)"/>
<path d="M0 0 C0.33 0.66 0.66 1.32 1 2 C1.66 2 2.32 2 3 2 C3 2.66 3 3.32 3 4 C3.66 4 4.32 4 5 4 C4.34 5.98 3.68 7.96 3 10 C2.01 9.67 1.02 9.34 0 9 C0 6.03 0 3.06 0 0 Z " fill="#0D040E" transform="translate(244,205)"/>
<path d="M0 0 C0.33 0 0.66 0 1 0 C1.39163671 2.22630405 1.76267785 4.45623765 2.125 6.6875 C2.33382813 7.92886719 2.54265625 9.17023438 2.7578125 10.44921875 C3.00252483 14.03701724 2.62715667 15.84813727 1 19 C0.67 19 0.34 19 0 19 C0 12.73 0 6.46 0 0 Z " fill="#7F6885" transform="translate(375,356)"/>
<path d="M0 0 C0.66 0 1.32 0 2 0 C0.58036591 5.67853635 -2.39363961 9.53174216 -6 14 C-6.66 12.68 -7.32 11.36 -8 10 C-7.01 10 -6.02 10 -5 10 C-5 9.01 -5 8.02 -5 7 C-4.34 7 -3.68 7 -3 7 C-3 6.34 -3 5.68 -3 5 C-2.34 5 -1.68 5 -1 5 C-0.67 3.35 -0.34 1.7 0 0 Z " fill="#6A5772" transform="translate(318,234)"/>
<path d="M0 0 C-0.33 0.99 -0.66 1.98 -1 3 C-6.70690634 3.99250545 -12.21408489 4.10477512 -18 4 C-18 3.67 -18 3.34 -18 3 C-15.56318413 2.49645133 -13.12564561 1.99703244 -10.6875 1.5 C-9.99720703 1.35691406 -9.30691406 1.21382813 -8.59570312 1.06640625 C-5.67475227 0.47374956 -2.98891878 0 0 0 Z " fill="#807285" transform="translate(372,255)"/>
<path d="M0 0 C0.96661363 3.12180401 0.98988909 5.52083795 0.5625 8.75 C0.46066406 9.54921875 0.35882813 10.3484375 0.25390625 11.171875 C0.17011719 11.77515625 0.08632812 12.3784375 0 13 C0.66 13 1.32 13 2 13 C2.33 14.98 2.66 16.96 3 19 C2.34 19 1.68 19 1 19 C-1.46827522 15.29758718 -1.23759026 13.3408889 -1.1875 8.9375 C-1.18105469 7.68839844 -1.17460937 6.43929687 -1.16796875 5.15234375 C-1 2 -1 2 0 0 Z " fill="#D5BE75" transform="translate(255,216)"/>
<path d="M0 0 C0.99 0.33 1.98 0.66 3 1 C0.55060729 5.77631579 0.55060729 5.77631579 -2 6.8125 C-4 7 -4 7 -7 7 C-7 6.34 -7 5.68 -7 5 C-6.030625 4.54625 -5.06125 4.0925 -4.0625 3.625 C-0.92920418 2.34213779 -0.92920418 2.34213779 0 0 Z " fill="#18091A" transform="translate(266,176)"/>
<path d="M0 0 C3.37503669 1.1858237 5.64722731 2.27573689 8 5 C5.125 5.625 5.125 5.625 2 6 C1.34 5.34 0.68 4.68 0 4 C0 2.68 0 1.36 0 0 Z " fill="#C7B47F" transform="translate(259,241)"/>
<path d="M0 0 C2.97 0.495 2.97 0.495 6 1 C6 2.32 6 3.64 6 5 C4.02 5.33 2.04 5.66 0 6 C0 4.02 0 2.04 0 0 Z " fill="#1B091D" transform="translate(155,225)"/>
<path d="M0 0 C0.66 0.99 1.32 1.98 2 3 C0.63875 3.6496875 0.63875 3.6496875 -0.75 4.3125 C-3.43218449 5.70517271 -5.66139605 7.11112757 -8 9 C-8 7.02 -8 5.04 -8 3 C-7.01 3.495 -7.01 3.495 -6 4 C-5.67 3.67 -5.34 3.34 -5 3 C-3.68 3 -2.36 3 -1 3 C-0.67 2.01 -0.34 1.02 0 0 Z " fill="#5D555C" transform="translate(277,297)"/>
<path d="M0 0 C2.31 0 4.62 0 7 0 C7.20086443 3.71599191 7.1519437 4.77208445 5 8 C3.68 7.67 2.36 7.34 1 7 C1.99 6.34 2.98 5.68 4 5 C4 4.34 4 3.68 4 3 C2.0399719 1.36323743 2.0399719 1.36323743 0 0 Z " fill="#472C2E" transform="translate(289,235)"/>
<path d="M0 0 C0.103125 0.639375 0.20625 1.27875 0.3125 1.9375 C0.539375 2.618125 0.76625 3.29875 1 4 C1.99 4.33 2.98 4.66 4 5 C2.71034824 6.37562854 1.37310707 7.70766393 0 9 C-0.66 9 -1.32 9 -2 9 C-1.51421457 5.87709365 -1.0013988 3.00419641 0 0 Z " fill="#918A8D" transform="translate(316,332)"/>
<path d="M0 0 C0.66 0 1.32 0 2 0 C2 0.66 2 1.32 2 2 C2.84304687 1.75443359 2.84304687 1.75443359 3.703125 1.50390625 C6.13059056 0.97135003 8.26889681 0.90101319 10.75 0.9375 C11.54921875 0.94652344 12.3484375 0.95554687 13.171875 0.96484375 C13.77515625 0.97644531 14.3784375 0.98804688 15 1 C15 1.33 15 1.66 15 2 C13.2508503 2.33776684 11.50063855 2.67003671 9.75 3 C8.28820312 3.2784375 8.28820312 3.2784375 6.796875 3.5625 C4 4 4 4 0 4 C-0.33 3.01 -0.66 2.02 -1 1 C-0.67 0.67 -0.34 0.34 0 0 Z " fill="#826E8C" transform="translate(205,267)"/>
<path d="M0 0 C0.66 0 1.32 0 2 0 C2.66 0.99 3.32 1.98 4 3 C7.06556598 3.73343428 7.06556598 3.73343428 10 4 C9.34 4.66 8.68 5.32 8 6 C4.375 5.625 4.375 5.625 1 5 C0.67 3.35 0.34 1.7 0 0 Z " fill="#1E0F10" transform="translate(257,243)"/>
<path d="M0 0 C0.33 0 0.66 0 1 0 C1.36923077 5.41538462 1.36923077 5.41538462 -0.5 8.375 C-0.995 8.91125 -1.49 9.4475 -2 10 C-3.05236973 6.65155086 -3.20005388 5.40920111 -1.625 2.1875 C-1.08875 1.465625 -0.5525 0.74375 0 0 Z " fill="#381C4C" transform="translate(325,213)"/>
<path d="M0 0 C2.53408774 1.26704387 2.93209972 2.43123157 4.1875 4.9375 C4.55230469 5.64777344 4.91710937 6.35804688 5.29296875 7.08984375 C5.52628906 7.72019531 5.75960937 8.35054687 6 9 C5.67 9.66 5.34 10.32 5 11 C3.68 11 2.36 11 1 11 C0.67 7.37 0.34 3.74 0 0 Z " fill="#75637C" transform="translate(215,173)"/>
<path d="M0 0 C0.33 0.99 0.66 1.98 1 3 C-1.8125 4.5625 -1.8125 4.5625 -5 6 C-5.99 5.67 -6.98 5.34 -8 5 C-7.01 4.67 -6.02 4.34 -5 4 C-4.67 3.01 -4.34 2.02 -4 1 C-2 0 -2 0 0 0 Z " fill="#150618" transform="translate(146,113)"/>
<path d="M0 0 C0.99 0 1.98 0 3 0 C3.92817192 3.62830843 4.26901295 5.41073355 2.6875 8.875 C2.130625 9.57625 1.57375 10.2775 1 11 C0.34 11 -0.32 11 -1 11 C-1 9.68 -1 8.36 -1 7 C-0.34 7 0.32 7 1 7 C1.15149298 3.37114676 1.15149298 3.37114676 0 0 Z " fill="#613C6E" transform="translate(403,352)"/>
<path d="M0 0 C0.53109375 0.14308594 1.0621875 0.28617188 1.609375 0.43359375 C4.47311231 1.1120936 7.34547652 1.58893639 10.25 2.0625 C11.32765625 2.23910156 12.4053125 2.41570312 13.515625 2.59765625 C14.33546875 2.73042969 15.1553125 2.86320312 16 3 C16 3.33 16 3.66 16 4 C10.555 4.495 10.555 4.495 5 5 C5 4.34 5 3.68 5 3 C3.35 2.67 1.7 2.34 0 2 C0 1.34 0 0.68 0 0 Z " fill="#908591" transform="translate(297,254)"/>
<path d="M0 0 C0.33 0 0.66 0 1 0 C1.06058594 0.61488281 1.12117187 1.22976562 1.18359375 1.86328125 C1.26738281 2.67152344 1.35117188 3.47976562 1.4375 4.3125 C1.51871094 5.11300781 1.59992188 5.91351563 1.68359375 6.73828125 C1.95265693 9.16087179 1.95265693 9.16087179 3 12 C1.68 11.67 0.36 11.34 -1 11 C-1.125 3.375 -1.125 3.375 0 0 Z " fill="#1B0B09" transform="translate(252,221)"/>
<path d="M0 0 C1.43088528 2.86177057 0.59991697 4.93375773 0 8 C-0.66 8 -1.32 8 -2 8 C-2.66 9.98 -3.32 11.96 -4 14 C-5.06528748 11.26980214 -5.07998186 10.20701188 -4.00390625 7.421875 C-3.52824219 6.54015625 -3.05257812 5.6584375 -2.5625 4.75 C-2.08941406 3.85796875 -1.61632812 2.9659375 -1.12890625 2.046875 C-0.75636719 1.37140625 -0.38382812 0.6959375 0 0 Z " fill="#7E777C" transform="translate(92,159)"/>
<path d="M0 0 C0 1.32 0 2.64 0 4 C-0.99 4 -1.98 4 -3 4 C-3 3.34 -3 2.68 -3 2 C-3.99 2 -4.98 2 -6 2 C-6 1.34 -6 0.68 -6 0 C-3.50907189 -1.24546405 -2.58919267 -0.7767578 0 0 Z " fill="#170A1A" transform="translate(311,298)"/>
<path d="M0 0 C-0.825 0.45375 -1.65 0.9075 -2.5 1.375 C-3.325 1.91125 -4.15 2.4475 -5 3 C-5 3.66 -5 4.32 -5 5 C-5.66 5 -6.32 5 -7 5 C-7 4.34 -7 3.68 -7 3 C-8.98 3.33 -10.96 3.66 -13 4 C-9.53474375 0.53474375 -4.80335354 -2.11347556 0 0 Z " fill="#7B6781" transform="translate(394,249)"/>
<path d="M0 0 C0.99 0.33 1.98 0.66 3 1 C3.33 1.99 3.66 2.98 4 4 C3.01 4.33 2.02 4.66 1 5 C0.67 5.99 0.34 6.98 0 8 C-0.33 8 -0.66 8 -1 8 C-1.04241723 5.66705225 -1.04092937 3.33297433 -1 1 C-0.67 0.67 -0.34 0.34 0 0 Z " fill="#0E070D" transform="translate(83,193)"/>
<path d="M0 0 C1.65 0.33 3.3 0.66 5 1 C5 1.99 5 2.98 5 4 C3.02 4.66 1.04 5.32 -1 6 C-0.67 4.02 -0.34 2.04 0 0 Z " fill="#16071B" transform="translate(304,258)"/>
<path d="M0 0 C2.31 0 4.62 0 7 0 C6.67 1.65 6.34 3.3 6 5 C4.02 4.01 2.04 3.02 0 2 C0 1.34 0 0.68 0 0 Z " fill="#F0D47F" transform="translate(271,240)"/>
<path d="M0 0 C4.875 4.625 4.875 4.625 6 8 C5.34 9.32 4.68 10.64 4 12 C3.34 9.03 2.68 6.06 2 3 C1.01 3 0.02 3 -1 3 C-0.67 2.01 -0.34 1.02 0 0 Z " fill="#D7C184" transform="translate(257,212)"/>
<path d="M0 0 C0 1.65 0 3.3 0 5 C-4 5 -4 5 -6 4 C-2.25 0 -2.25 0 0 0 Z " fill="#381B4C" transform="translate(402,359)"/>
<path d="M0 0 C0.33 0 0.66 0 1 0 C0.67 4.62 0.34 9.24 0 14 C-0.33 14 -0.66 14 -1 14 C-1.93402724 8.58264203 -2.20808081 5.19548425 0 0 Z " fill="#745E7A" transform="translate(418,311)"/>
<path d="M0 0 C1.485 0.99 1.485 0.99 3 2 C2.67 5.3 2.34 8.6 2 12 C-0.35333796 7.29332409 -0.17102038 5.1306114 0 0 Z " fill="#50434E" transform="translate(317,312)"/>
<path d="M0 0 C2.6015625 -0.29296875 2.6015625 -0.29296875 5.625 -0.1875 C7.12933594 -0.14689453 7.12933594 -0.14689453 8.6640625 -0.10546875 C9.43492187 -0.07066406 10.20578125 -0.03585937 11 0 C8.66785852 1.20628008 6.50357861 2.1654738 4 3 C3.34 2.67 2.68 2.34 2 2 C-0.09821215 2.39938767 -0.09821215 2.39938767 -2 3 C-1.34 2.01 -0.68 1.02 0 0 Z " fill="#1D0A25" transform="translate(332,261)"/>
<path d="M0 0 C0 3 0 3 -2 6 C-2.99 5.67 -3.98 5.34 -5 5 C-4.67 4.34 -4.34 3.68 -4 3 C-4.66 2.67 -5.32 2.34 -6 2 C-4.02 1.34 -2.04 0.68 0 0 Z " fill="#4F325C" transform="translate(400,245)"/>
<path d="M0 0 C0.33 0.66 0.66 1.32 1 2 C3.02463255 2.65213292 3.02463255 2.65213292 5 3 C4.34 4.98 3.68 6.96 3 9 C0.87491756 5.81237635 0.4979837 3.73487777 0 0 Z " fill="#58495C" transform="translate(201,239)"/>
<path d="M0 0 C0.99 0.33 1.98 0.66 3 1 C3 5.62 3 10.24 3 15 C2.67 15 2.34 15 2 15 C1.67 11.04 1.34 7.08 1 3 C0.34 3 -0.32 3 -1 3 C-0.67 2.01 -0.34 1.02 0 0 Z " fill="#B89FBA" transform="translate(325,197)"/>
<path d="M0 0 C3.93673644 1.31224548 6.22719294 2.91910327 9 6 C7.68 6 6.36 6 5 6 C4.67 5.34 4.34 4.68 4 4 C2.68 4 1.36 4 0 4 C0 2.68 0 1.36 0 0 Z " fill="#6D5E75" transform="translate(285,200)"/>
<path d="M0 0 C-0.33 0.66 -0.66 1.32 -1 2 C-3.06640625 2.4140625 -3.06640625 2.4140625 -5.5625 2.625 C-6.38878906 2.69976562 -7.21507812 2.77453125 -8.06640625 2.8515625 C-9.02353516 2.92503906 -9.02353516 2.92503906 -10 3 C-4.375 -1.3125 -4.375 -1.3125 0 0 Z " fill="#493C49" transform="translate(142,115)"/>
<path d="M0 0 C1.32 0.66 2.64 1.32 4 2 C2.35 3.32 0.7 4.64 -1 6 C-1.625 4.125 -1.625 4.125 -2 2 C-1.34 1.34 -0.68 0.68 0 0 Z " fill="#67536B" transform="translate(380,384)"/>
<path d="M0 0 C0 0.66 0 1.32 0 2 C-0.66 2 -1.32 2 -2 2 C-2.33 2.66 -2.66 3.32 -3 4 C-4.65 2.35 -6.3 0.7 -8 -1 C-3.375 -2.25 -3.375 -2.25 0 0 Z " fill="#634A6C" transform="translate(370,337)"/>
<path d="M0 0 C0.33 0 0.66 0 1 0 C1.2236337 1.41433206 1.42826476 2.83167618 1.625 4.25 C1.74101562 5.03890625 1.85703125 5.8278125 1.9765625 6.640625 C2.00319395 9.32152459 1.36592084 10.72694089 0 13 C-0.33 13 -0.66 13 -1 13 C-0.67 8.71 -0.34 4.42 0 0 Z " fill="#1B091A" transform="translate(319,318)"/>
<path d="M0 0 C1.42944945 2.35438733 2.08661261 3.48032433 1.625 6.25 C1.41875 6.8275 1.2125 7.405 1 8 C0.34 8 -0.32 8 -1 8 C-1.125 2.25 -1.125 2.25 0 0 Z " fill="#634D6A" transform="translate(374,375)"/>
<path d="M0 0 C2.475 0.495 2.475 0.495 5 1 C5.33 2.65 5.66 4.3 6 6 C5.01 6 4.02 6 3 6 C2.01 4.02 1.02 2.04 0 0 Z " fill="#544855" transform="translate(312,305)"/>
<path d="M0 0 C1.32 0.66 2.64 1.32 4 2 C3.1875 3.9375 3.1875 3.9375 2 6 C1.01 6.33 0.02 6.66 -1 7 C-0.67 4.69 -0.34 2.38 0 0 Z " fill="#DBC086" transform="translate(290,236)"/>
<path d="M0 0 C1.65 0.33 3.3 0.66 5 1 C3.35 2.65 1.7 4.3 0 6 C-1.125 2.25 -1.125 2.25 0 0 Z " fill="#4C3D4A" transform="translate(156,229)"/>
<path d="M0 0 C2.475 0.495 2.475 0.495 5 1 C4.67 2.65 4.34 4.3 4 6 C3.01 5.67 2.02 5.34 1 5 C1 4.34 1 3.68 1 3 C0.67 2.01 0.34 1.02 0 0 Z " fill="#391C4C" transform="translate(234,210)"/>
<path d="M0 0 C0.99 0.33 1.98 0.66 3 1 C2.40138258 3.35171131 1.73075648 5.6859378 1 8 C0.01 8.495 0.01 8.495 -1 9 C-0.67 6.03 -0.34 3.06 0 0 Z " fill="#6F5378" transform="translate(408,346)"/>
<path d="M0 0 C0.99 0.33 1.98 0.66 3 1 C3 1.66 3 2.32 3 3 C3.99 3.33 4.98 3.66 6 4 C5.34 4 4.68 4 4 4 C4 4.66 4 5.32 4 6 C3.01 5.67 2.02 5.34 1 5 C0.67 3.35 0.34 1.7 0 0 Z " fill="#1C1318" transform="translate(254,287)"/>
<path d="M0 0 C1.32 0.33 2.64 0.66 4 1 C4 2.65 4 4.3 4 6 C3.67 5.34 3.34 4.68 3 4 C-0.02934491 3.34227572 -0.02934491 3.34227572 -3 3 C-2.01 2.67 -1.02 2.34 0 2 C0 1.34 0 0.68 0 0 Z " fill="#4C3658" transform="translate(219,265)"/>
<path d="M0 0 C0.66 0.33 1.32 0.66 2 1 C2 1.66 2 2.32 2 3 C1.01 3.33 0.02 3.66 -1 4 C-2.66710346 5.49985609 -2.66710346 5.49985609 -4 7 C-4.33 5.35 -4.66 3.7 -5 2 C-3.35 2 -1.7 2 0 2 C0 1.34 0 0.68 0 0 Z " fill="#402552" transform="translate(319,231)"/>
<path d="M0 0 C2 1.75 2 1.75 4 4 C4 5.32 4 6.64 4 8 C3.34 8 2.68 8 2 8 C0.93224776 6.03533587 -0.06553465 4.03144641 -1 2 C-0.67 1.34 -0.34 0.68 0 0 Z " fill="#5B4A60" transform="translate(298,210)"/>
<path d="M0 0 C0.33 0 0.66 0 1 0 C0.67 2.97 0.34 5.94 0 9 C-0.99 9 -1.98 9 -3 9 C-3 7.68 -3 6.36 -3 5 C-2.34 4.67 -1.68 4.34 -1 4 C-0.34786708 1.97536745 -0.34786708 1.97536745 0 0 Z " fill="#49325F" transform="translate(411,244)"/>
<path d="M0 0 C2.95183101 2.95183101 3.08663988 5.95511947 4 10 C3.01 9.67 2.02 9.34 1 9 C0.67 6.03 0.34 3.06 0 0 Z " fill="#796A7B" transform="translate(207,154)"/>
<path d="M0 0 C1.95216435 3.90432869 2.50639991 6.72213252 3 11 C2.01 10.67 1.02 10.34 0 10 C0 6.7 0 3.4 0 0 Z " fill="#877989" transform="translate(204,142)"/>
<path d="M0 0 C-0.625 1.9375 -0.625 1.9375 -2 4 C-5.125 4.75 -5.125 4.75 -8 5 C-3.16129032 0 -3.16129032 0 0 0 Z " fill="#675E66" transform="translate(132,118)"/>
<path d="M0 0 C0 0.99 0 1.98 0 3 C-1.65 3.66 -3.3 4.32 -5 5 C-5.33 3.68 -5.66 2.36 -6 1 C-3.92446352 0.4465236 -2.15634036 0 0 0 Z " fill="#2F173F" transform="translate(206,105)"/>
</svg>
